%TF.GenerationSoftware,KiCad,Pcbnew,(5.1.7)-1*%
%TF.CreationDate,2020-11-09T09:10:02-08:00*%
%TF.ProjectId,Valve_Controller_Schematic,56616c76-655f-4436-9f6e-74726f6c6c65,rev?*%
%TF.SameCoordinates,Original*%
%TF.FileFunction,Soldermask,Top*%
%TF.FilePolarity,Negative*%
%FSLAX46Y46*%
G04 Gerber Fmt 4.6, Leading zero omitted, Abs format (unit mm)*
G04 Created by KiCad (PCBNEW (5.1.7)-1) date 2020-11-09 09:10:02*
%MOMM*%
%LPD*%
G01*
G04 APERTURE LIST*
%ADD10C,2.000000*%
%ADD11C,1.800000*%
%ADD12R,1.060000X0.650000*%
%ADD13R,0.650000X1.060000*%
%ADD14R,2.460000X2.310000*%
%ADD15R,1.550000X1.300000*%
%ADD16C,1.440000*%
%ADD17C,2.200000*%
G04 APERTURE END LIST*
D10*
%TO.C,TP7*%
X127000000Y-103000000D03*
%TD*%
%TO.C,TP6*%
X127000000Y-96000000D03*
%TD*%
%TO.C,TP5*%
X154000000Y-107000000D03*
%TD*%
%TO.C,TP4*%
X147000000Y-107000000D03*
%TD*%
%TO.C,TP3*%
X184000000Y-75000000D03*
%TD*%
%TO.C,TP2*%
X171000000Y-75000000D03*
%TD*%
%TO.C,TP1*%
X158000000Y-75000000D03*
%TD*%
D11*
%TO.C,U1*%
X173430000Y-107500000D03*
X170890000Y-107500000D03*
X168350000Y-107500000D03*
X165810000Y-107500000D03*
X165810000Y-104960000D03*
X165810000Y-102420000D03*
X165810000Y-99880000D03*
X165810000Y-97340000D03*
X165810000Y-94800000D03*
X165810000Y-92260000D03*
X168350000Y-92260000D03*
X170890000Y-92260000D03*
X173430000Y-92260000D03*
X175970000Y-92260000D03*
X175970000Y-107500000D03*
X178510000Y-107500000D03*
X178510000Y-92260000D03*
X181050000Y-107500000D03*
X181050000Y-92260000D03*
X183590000Y-107500000D03*
X183590000Y-92260000D03*
X186130000Y-92260000D03*
X188670000Y-92260000D03*
X186130000Y-107500000D03*
X188670000Y-107500000D03*
X191210000Y-107500000D03*
X193750000Y-107500000D03*
X196290000Y-107500000D03*
X198830000Y-107500000D03*
X191210000Y-92260000D03*
X193750000Y-92260000D03*
X196290000Y-92260000D03*
X198830000Y-92260000D03*
%TD*%
%TO.C,R9*%
G36*
G01*
X170450001Y-114525000D02*
X169549999Y-114525000D01*
G75*
G02*
X169300000Y-114275001I0J249999D01*
G01*
X169300000Y-113624999D01*
G75*
G02*
X169549999Y-113375000I249999J0D01*
G01*
X170450001Y-113375000D01*
G75*
G02*
X170700000Y-113624999I0J-249999D01*
G01*
X170700000Y-114275001D01*
G75*
G02*
X170450001Y-114525000I-249999J0D01*
G01*
G37*
G36*
G01*
X170450001Y-116575000D02*
X169549999Y-116575000D01*
G75*
G02*
X169300000Y-116325001I0J249999D01*
G01*
X169300000Y-115674999D01*
G75*
G02*
X169549999Y-115425000I249999J0D01*
G01*
X170450001Y-115425000D01*
G75*
G02*
X170700000Y-115674999I0J-249999D01*
G01*
X170700000Y-116325001D01*
G75*
G02*
X170450001Y-116575000I-249999J0D01*
G01*
G37*
%TD*%
%TO.C,R8*%
G36*
G01*
X188200001Y-114525000D02*
X187299999Y-114525000D01*
G75*
G02*
X187050000Y-114275001I0J249999D01*
G01*
X187050000Y-113624999D01*
G75*
G02*
X187299999Y-113375000I249999J0D01*
G01*
X188200001Y-113375000D01*
G75*
G02*
X188450000Y-113624999I0J-249999D01*
G01*
X188450000Y-114275001D01*
G75*
G02*
X188200001Y-114525000I-249999J0D01*
G01*
G37*
G36*
G01*
X188200001Y-116575000D02*
X187299999Y-116575000D01*
G75*
G02*
X187050000Y-116325001I0J249999D01*
G01*
X187050000Y-115674999D01*
G75*
G02*
X187299999Y-115425000I249999J0D01*
G01*
X188200001Y-115425000D01*
G75*
G02*
X188450000Y-115674999I0J-249999D01*
G01*
X188450000Y-116325001D01*
G75*
G02*
X188200001Y-116575000I-249999J0D01*
G01*
G37*
%TD*%
D12*
%TO.C,U4*%
X145200000Y-100100000D03*
X145200000Y-102000000D03*
X143000000Y-102000000D03*
X143000000Y-101050000D03*
X143000000Y-100100000D03*
%TD*%
D13*
%TO.C,U3*%
X131050000Y-85450000D03*
X132000000Y-85450000D03*
X130100000Y-85450000D03*
X130100000Y-83250000D03*
X131050000Y-83250000D03*
X132000000Y-83250000D03*
%TD*%
D14*
%TO.C,U2*%
X140750000Y-76500000D03*
G36*
G01*
X142825000Y-74325000D02*
X142825000Y-74125000D01*
G75*
G02*
X142925000Y-74025000I100000J0D01*
G01*
X144300000Y-74025000D01*
G75*
G02*
X144400000Y-74125000I0J-100000D01*
G01*
X144400000Y-74325000D01*
G75*
G02*
X144300000Y-74425000I-100000J0D01*
G01*
X142925000Y-74425000D01*
G75*
G02*
X142825000Y-74325000I0J100000D01*
G01*
G37*
G36*
G01*
X142825000Y-74975000D02*
X142825000Y-74775000D01*
G75*
G02*
X142925000Y-74675000I100000J0D01*
G01*
X144300000Y-74675000D01*
G75*
G02*
X144400000Y-74775000I0J-100000D01*
G01*
X144400000Y-74975000D01*
G75*
G02*
X144300000Y-75075000I-100000J0D01*
G01*
X142925000Y-75075000D01*
G75*
G02*
X142825000Y-74975000I0J100000D01*
G01*
G37*
G36*
G01*
X142825000Y-75625000D02*
X142825000Y-75425000D01*
G75*
G02*
X142925000Y-75325000I100000J0D01*
G01*
X144300000Y-75325000D01*
G75*
G02*
X144400000Y-75425000I0J-100000D01*
G01*
X144400000Y-75625000D01*
G75*
G02*
X144300000Y-75725000I-100000J0D01*
G01*
X142925000Y-75725000D01*
G75*
G02*
X142825000Y-75625000I0J100000D01*
G01*
G37*
G36*
G01*
X142825000Y-76275000D02*
X142825000Y-76075000D01*
G75*
G02*
X142925000Y-75975000I100000J0D01*
G01*
X144300000Y-75975000D01*
G75*
G02*
X144400000Y-76075000I0J-100000D01*
G01*
X144400000Y-76275000D01*
G75*
G02*
X144300000Y-76375000I-100000J0D01*
G01*
X142925000Y-76375000D01*
G75*
G02*
X142825000Y-76275000I0J100000D01*
G01*
G37*
G36*
G01*
X142825000Y-76925000D02*
X142825000Y-76725000D01*
G75*
G02*
X142925000Y-76625000I100000J0D01*
G01*
X144300000Y-76625000D01*
G75*
G02*
X144400000Y-76725000I0J-100000D01*
G01*
X144400000Y-76925000D01*
G75*
G02*
X144300000Y-77025000I-100000J0D01*
G01*
X142925000Y-77025000D01*
G75*
G02*
X142825000Y-76925000I0J100000D01*
G01*
G37*
G36*
G01*
X142825000Y-77575000D02*
X142825000Y-77375000D01*
G75*
G02*
X142925000Y-77275000I100000J0D01*
G01*
X144300000Y-77275000D01*
G75*
G02*
X144400000Y-77375000I0J-100000D01*
G01*
X144400000Y-77575000D01*
G75*
G02*
X144300000Y-77675000I-100000J0D01*
G01*
X142925000Y-77675000D01*
G75*
G02*
X142825000Y-77575000I0J100000D01*
G01*
G37*
G36*
G01*
X142825000Y-78225000D02*
X142825000Y-78025000D01*
G75*
G02*
X142925000Y-77925000I100000J0D01*
G01*
X144300000Y-77925000D01*
G75*
G02*
X144400000Y-78025000I0J-100000D01*
G01*
X144400000Y-78225000D01*
G75*
G02*
X144300000Y-78325000I-100000J0D01*
G01*
X142925000Y-78325000D01*
G75*
G02*
X142825000Y-78225000I0J100000D01*
G01*
G37*
G36*
G01*
X142825000Y-78875000D02*
X142825000Y-78675000D01*
G75*
G02*
X142925000Y-78575000I100000J0D01*
G01*
X144300000Y-78575000D01*
G75*
G02*
X144400000Y-78675000I0J-100000D01*
G01*
X144400000Y-78875000D01*
G75*
G02*
X144300000Y-78975000I-100000J0D01*
G01*
X142925000Y-78975000D01*
G75*
G02*
X142825000Y-78875000I0J100000D01*
G01*
G37*
G36*
G01*
X137100000Y-78875000D02*
X137100000Y-78675000D01*
G75*
G02*
X137200000Y-78575000I100000J0D01*
G01*
X138575000Y-78575000D01*
G75*
G02*
X138675000Y-78675000I0J-100000D01*
G01*
X138675000Y-78875000D01*
G75*
G02*
X138575000Y-78975000I-100000J0D01*
G01*
X137200000Y-78975000D01*
G75*
G02*
X137100000Y-78875000I0J100000D01*
G01*
G37*
G36*
G01*
X137100000Y-78225000D02*
X137100000Y-78025000D01*
G75*
G02*
X137200000Y-77925000I100000J0D01*
G01*
X138575000Y-77925000D01*
G75*
G02*
X138675000Y-78025000I0J-100000D01*
G01*
X138675000Y-78225000D01*
G75*
G02*
X138575000Y-78325000I-100000J0D01*
G01*
X137200000Y-78325000D01*
G75*
G02*
X137100000Y-78225000I0J100000D01*
G01*
G37*
G36*
G01*
X137100000Y-77575000D02*
X137100000Y-77375000D01*
G75*
G02*
X137200000Y-77275000I100000J0D01*
G01*
X138575000Y-77275000D01*
G75*
G02*
X138675000Y-77375000I0J-100000D01*
G01*
X138675000Y-77575000D01*
G75*
G02*
X138575000Y-77675000I-100000J0D01*
G01*
X137200000Y-77675000D01*
G75*
G02*
X137100000Y-77575000I0J100000D01*
G01*
G37*
G36*
G01*
X137100000Y-76925000D02*
X137100000Y-76725000D01*
G75*
G02*
X137200000Y-76625000I100000J0D01*
G01*
X138575000Y-76625000D01*
G75*
G02*
X138675000Y-76725000I0J-100000D01*
G01*
X138675000Y-76925000D01*
G75*
G02*
X138575000Y-77025000I-100000J0D01*
G01*
X137200000Y-77025000D01*
G75*
G02*
X137100000Y-76925000I0J100000D01*
G01*
G37*
G36*
G01*
X137100000Y-76275000D02*
X137100000Y-76075000D01*
G75*
G02*
X137200000Y-75975000I100000J0D01*
G01*
X138575000Y-75975000D01*
G75*
G02*
X138675000Y-76075000I0J-100000D01*
G01*
X138675000Y-76275000D01*
G75*
G02*
X138575000Y-76375000I-100000J0D01*
G01*
X137200000Y-76375000D01*
G75*
G02*
X137100000Y-76275000I0J100000D01*
G01*
G37*
G36*
G01*
X137100000Y-75625000D02*
X137100000Y-75425000D01*
G75*
G02*
X137200000Y-75325000I100000J0D01*
G01*
X138575000Y-75325000D01*
G75*
G02*
X138675000Y-75425000I0J-100000D01*
G01*
X138675000Y-75625000D01*
G75*
G02*
X138575000Y-75725000I-100000J0D01*
G01*
X137200000Y-75725000D01*
G75*
G02*
X137100000Y-75625000I0J100000D01*
G01*
G37*
G36*
G01*
X137100000Y-74975000D02*
X137100000Y-74775000D01*
G75*
G02*
X137200000Y-74675000I100000J0D01*
G01*
X138575000Y-74675000D01*
G75*
G02*
X138675000Y-74775000I0J-100000D01*
G01*
X138675000Y-74975000D01*
G75*
G02*
X138575000Y-75075000I-100000J0D01*
G01*
X137200000Y-75075000D01*
G75*
G02*
X137100000Y-74975000I0J100000D01*
G01*
G37*
G36*
G01*
X137100000Y-74325000D02*
X137100000Y-74125000D01*
G75*
G02*
X137200000Y-74025000I100000J0D01*
G01*
X138575000Y-74025000D01*
G75*
G02*
X138675000Y-74125000I0J-100000D01*
G01*
X138675000Y-74325000D01*
G75*
G02*
X138575000Y-74425000I-100000J0D01*
G01*
X137200000Y-74425000D01*
G75*
G02*
X137100000Y-74325000I0J100000D01*
G01*
G37*
%TD*%
D15*
%TO.C,SW2*%
X170000000Y-123500000D03*
X170000000Y-119000000D03*
X162040000Y-119000000D03*
X162040000Y-123500000D03*
%TD*%
%TO.C,SW1*%
X187960000Y-123500000D03*
X187960000Y-119000000D03*
X180000000Y-119000000D03*
X180000000Y-123500000D03*
%TD*%
D16*
%TO.C,RV3*%
X158920000Y-81000000D03*
X161460000Y-81000000D03*
X164000000Y-81000000D03*
%TD*%
%TO.C,RV2*%
X178920000Y-81000000D03*
X181460000Y-81000000D03*
X184000000Y-81000000D03*
%TD*%
%TO.C,RV1*%
X168920000Y-81000000D03*
X171460000Y-81000000D03*
X174000000Y-81000000D03*
%TD*%
%TO.C,R7*%
G36*
G01*
X135425000Y-96450001D02*
X135425000Y-95549999D01*
G75*
G02*
X135674999Y-95300000I249999J0D01*
G01*
X136325001Y-95300000D01*
G75*
G02*
X136575000Y-95549999I0J-249999D01*
G01*
X136575000Y-96450001D01*
G75*
G02*
X136325001Y-96700000I-249999J0D01*
G01*
X135674999Y-96700000D01*
G75*
G02*
X135425000Y-96450001I0J249999D01*
G01*
G37*
G36*
G01*
X133375000Y-96450001D02*
X133375000Y-95549999D01*
G75*
G02*
X133624999Y-95300000I249999J0D01*
G01*
X134275001Y-95300000D01*
G75*
G02*
X134525000Y-95549999I0J-249999D01*
G01*
X134525000Y-96450001D01*
G75*
G02*
X134275001Y-96700000I-249999J0D01*
G01*
X133624999Y-96700000D01*
G75*
G02*
X133375000Y-96450001I0J249999D01*
G01*
G37*
%TD*%
%TO.C,R6*%
G36*
G01*
X135475000Y-102450001D02*
X135475000Y-101549999D01*
G75*
G02*
X135724999Y-101300000I249999J0D01*
G01*
X136375001Y-101300000D01*
G75*
G02*
X136625000Y-101549999I0J-249999D01*
G01*
X136625000Y-102450001D01*
G75*
G02*
X136375001Y-102700000I-249999J0D01*
G01*
X135724999Y-102700000D01*
G75*
G02*
X135475000Y-102450001I0J249999D01*
G01*
G37*
G36*
G01*
X133425000Y-102450001D02*
X133425000Y-101549999D01*
G75*
G02*
X133674999Y-101300000I249999J0D01*
G01*
X134325001Y-101300000D01*
G75*
G02*
X134575000Y-101549999I0J-249999D01*
G01*
X134575000Y-102450001D01*
G75*
G02*
X134325001Y-102700000I-249999J0D01*
G01*
X133674999Y-102700000D01*
G75*
G02*
X133425000Y-102450001I0J249999D01*
G01*
G37*
%TD*%
%TO.C,R5*%
G36*
G01*
X138450001Y-112525000D02*
X137549999Y-112525000D01*
G75*
G02*
X137300000Y-112275001I0J249999D01*
G01*
X137300000Y-111624999D01*
G75*
G02*
X137549999Y-111375000I249999J0D01*
G01*
X138450001Y-111375000D01*
G75*
G02*
X138700000Y-111624999I0J-249999D01*
G01*
X138700000Y-112275001D01*
G75*
G02*
X138450001Y-112525000I-249999J0D01*
G01*
G37*
G36*
G01*
X138450001Y-114575000D02*
X137549999Y-114575000D01*
G75*
G02*
X137300000Y-114325001I0J249999D01*
G01*
X137300000Y-113674999D01*
G75*
G02*
X137549999Y-113425000I249999J0D01*
G01*
X138450001Y-113425000D01*
G75*
G02*
X138700000Y-113674999I0J-249999D01*
G01*
X138700000Y-114325001D01*
G75*
G02*
X138450001Y-114575000I-249999J0D01*
G01*
G37*
%TD*%
%TO.C,R4*%
G36*
G01*
X143549999Y-113425000D02*
X144450001Y-113425000D01*
G75*
G02*
X144700000Y-113674999I0J-249999D01*
G01*
X144700000Y-114325001D01*
G75*
G02*
X144450001Y-114575000I-249999J0D01*
G01*
X143549999Y-114575000D01*
G75*
G02*
X143300000Y-114325001I0J249999D01*
G01*
X143300000Y-113674999D01*
G75*
G02*
X143549999Y-113425000I249999J0D01*
G01*
G37*
G36*
G01*
X143549999Y-111375000D02*
X144450001Y-111375000D01*
G75*
G02*
X144700000Y-111624999I0J-249999D01*
G01*
X144700000Y-112275001D01*
G75*
G02*
X144450001Y-112525000I-249999J0D01*
G01*
X143549999Y-112525000D01*
G75*
G02*
X143300000Y-112275001I0J249999D01*
G01*
X143300000Y-111624999D01*
G75*
G02*
X143549999Y-111375000I249999J0D01*
G01*
G37*
%TD*%
%TO.C,R3*%
G36*
G01*
X125700001Y-83825000D02*
X124799999Y-83825000D01*
G75*
G02*
X124550000Y-83575001I0J249999D01*
G01*
X124550000Y-82924999D01*
G75*
G02*
X124799999Y-82675000I249999J0D01*
G01*
X125700001Y-82675000D01*
G75*
G02*
X125950000Y-82924999I0J-249999D01*
G01*
X125950000Y-83575001D01*
G75*
G02*
X125700001Y-83825000I-249999J0D01*
G01*
G37*
G36*
G01*
X125700001Y-85875000D02*
X124799999Y-85875000D01*
G75*
G02*
X124550000Y-85625001I0J249999D01*
G01*
X124550000Y-84974999D01*
G75*
G02*
X124799999Y-84725000I249999J0D01*
G01*
X125700001Y-84725000D01*
G75*
G02*
X125950000Y-84974999I0J-249999D01*
G01*
X125950000Y-85625001D01*
G75*
G02*
X125700001Y-85875000I-249999J0D01*
G01*
G37*
%TD*%
%TO.C,R2*%
G36*
G01*
X125275000Y-77049999D02*
X125275000Y-77950001D01*
G75*
G02*
X125025001Y-78200000I-249999J0D01*
G01*
X124374999Y-78200000D01*
G75*
G02*
X124125000Y-77950001I0J249999D01*
G01*
X124125000Y-77049999D01*
G75*
G02*
X124374999Y-76800000I249999J0D01*
G01*
X125025001Y-76800000D01*
G75*
G02*
X125275000Y-77049999I0J-249999D01*
G01*
G37*
G36*
G01*
X127325000Y-77049999D02*
X127325000Y-77950001D01*
G75*
G02*
X127075001Y-78200000I-249999J0D01*
G01*
X126424999Y-78200000D01*
G75*
G02*
X126175000Y-77950001I0J249999D01*
G01*
X126175000Y-77049999D01*
G75*
G02*
X126424999Y-76800000I249999J0D01*
G01*
X127075001Y-76800000D01*
G75*
G02*
X127325000Y-77049999I0J-249999D01*
G01*
G37*
%TD*%
%TO.C,R1*%
G36*
G01*
X125300000Y-73049999D02*
X125300000Y-73950001D01*
G75*
G02*
X125050001Y-74200000I-249999J0D01*
G01*
X124399999Y-74200000D01*
G75*
G02*
X124150000Y-73950001I0J249999D01*
G01*
X124150000Y-73049999D01*
G75*
G02*
X124399999Y-72800000I249999J0D01*
G01*
X125050001Y-72800000D01*
G75*
G02*
X125300000Y-73049999I0J-249999D01*
G01*
G37*
G36*
G01*
X127350000Y-73049999D02*
X127350000Y-73950001D01*
G75*
G02*
X127100001Y-74200000I-249999J0D01*
G01*
X126449999Y-74200000D01*
G75*
G02*
X126200000Y-73950001I0J249999D01*
G01*
X126200000Y-73049999D01*
G75*
G02*
X126449999Y-72800000I249999J0D01*
G01*
X127100001Y-72800000D01*
G75*
G02*
X127350000Y-73049999I0J-249999D01*
G01*
G37*
%TD*%
D17*
%TO.C,J1*%
X110500000Y-75500000D03*
X110500000Y-80500000D03*
X110500000Y-85500000D03*
X110500000Y-90500000D03*
X110500000Y-95500000D03*
X110500000Y-100500000D03*
X110500000Y-105500000D03*
X110500000Y-110500000D03*
X110500000Y-115500000D03*
X110500000Y-120500000D03*
X110500000Y-125500000D03*
%TD*%
%TO.C,D2*%
G36*
G01*
X162575000Y-113549999D02*
X162575000Y-114450001D01*
G75*
G02*
X162325001Y-114700000I-249999J0D01*
G01*
X161674999Y-114700000D01*
G75*
G02*
X161425000Y-114450001I0J249999D01*
G01*
X161425000Y-113549999D01*
G75*
G02*
X161674999Y-113300000I249999J0D01*
G01*
X162325001Y-113300000D01*
G75*
G02*
X162575000Y-113549999I0J-249999D01*
G01*
G37*
G36*
G01*
X164625000Y-113549999D02*
X164625000Y-114450001D01*
G75*
G02*
X164375001Y-114700000I-249999J0D01*
G01*
X163724999Y-114700000D01*
G75*
G02*
X163475000Y-114450001I0J249999D01*
G01*
X163475000Y-113549999D01*
G75*
G02*
X163724999Y-113300000I249999J0D01*
G01*
X164375001Y-113300000D01*
G75*
G02*
X164625000Y-113549999I0J-249999D01*
G01*
G37*
%TD*%
%TO.C,D1*%
G36*
G01*
X180550000Y-113549999D02*
X180550000Y-114450001D01*
G75*
G02*
X180300001Y-114700000I-249999J0D01*
G01*
X179649999Y-114700000D01*
G75*
G02*
X179400000Y-114450001I0J249999D01*
G01*
X179400000Y-113549999D01*
G75*
G02*
X179649999Y-113300000I249999J0D01*
G01*
X180300001Y-113300000D01*
G75*
G02*
X180550000Y-113549999I0J-249999D01*
G01*
G37*
G36*
G01*
X182600000Y-113549999D02*
X182600000Y-114450001D01*
G75*
G02*
X182350001Y-114700000I-249999J0D01*
G01*
X181699999Y-114700000D01*
G75*
G02*
X181450000Y-114450001I0J249999D01*
G01*
X181450000Y-113549999D01*
G75*
G02*
X181699999Y-113300000I249999J0D01*
G01*
X182350001Y-113300000D01*
G75*
G02*
X182600000Y-113549999I0J-249999D01*
G01*
G37*
%TD*%
%TO.C,C6*%
G36*
G01*
X147049999Y-87675000D02*
X147950001Y-87675000D01*
G75*
G02*
X148200000Y-87924999I0J-249999D01*
G01*
X148200000Y-88575001D01*
G75*
G02*
X147950001Y-88825000I-249999J0D01*
G01*
X147049999Y-88825000D01*
G75*
G02*
X146800000Y-88575001I0J249999D01*
G01*
X146800000Y-87924999D01*
G75*
G02*
X147049999Y-87675000I249999J0D01*
G01*
G37*
G36*
G01*
X147049999Y-85625000D02*
X147950001Y-85625000D01*
G75*
G02*
X148200000Y-85874999I0J-249999D01*
G01*
X148200000Y-86525001D01*
G75*
G02*
X147950001Y-86775000I-249999J0D01*
G01*
X147049999Y-86775000D01*
G75*
G02*
X146800000Y-86525001I0J249999D01*
G01*
X146800000Y-85874999D01*
G75*
G02*
X147049999Y-85625000I249999J0D01*
G01*
G37*
%TD*%
%TO.C,C5*%
G36*
G01*
X144475000Y-96450001D02*
X144475000Y-95549999D01*
G75*
G02*
X144724999Y-95300000I249999J0D01*
G01*
X145375001Y-95300000D01*
G75*
G02*
X145625000Y-95549999I0J-249999D01*
G01*
X145625000Y-96450001D01*
G75*
G02*
X145375001Y-96700000I-249999J0D01*
G01*
X144724999Y-96700000D01*
G75*
G02*
X144475000Y-96450001I0J249999D01*
G01*
G37*
G36*
G01*
X142425000Y-96450001D02*
X142425000Y-95549999D01*
G75*
G02*
X142674999Y-95300000I249999J0D01*
G01*
X143325001Y-95300000D01*
G75*
G02*
X143575000Y-95549999I0J-249999D01*
G01*
X143575000Y-96450001D01*
G75*
G02*
X143325001Y-96700000I-249999J0D01*
G01*
X142674999Y-96700000D01*
G75*
G02*
X142425000Y-96450001I0J249999D01*
G01*
G37*
%TD*%
%TO.C,C4*%
G36*
G01*
X139450001Y-82575000D02*
X138549999Y-82575000D01*
G75*
G02*
X138300000Y-82325001I0J249999D01*
G01*
X138300000Y-81674999D01*
G75*
G02*
X138549999Y-81425000I249999J0D01*
G01*
X139450001Y-81425000D01*
G75*
G02*
X139700000Y-81674999I0J-249999D01*
G01*
X139700000Y-82325001D01*
G75*
G02*
X139450001Y-82575000I-249999J0D01*
G01*
G37*
G36*
G01*
X139450001Y-84625000D02*
X138549999Y-84625000D01*
G75*
G02*
X138300000Y-84375001I0J249999D01*
G01*
X138300000Y-83724999D01*
G75*
G02*
X138549999Y-83475000I249999J0D01*
G01*
X139450001Y-83475000D01*
G75*
G02*
X139700000Y-83724999I0J-249999D01*
G01*
X139700000Y-84375001D01*
G75*
G02*
X139450001Y-84625000I-249999J0D01*
G01*
G37*
%TD*%
%TO.C,C3*%
G36*
G01*
X193475000Y-77450001D02*
X193475000Y-76549999D01*
G75*
G02*
X193724999Y-76300000I249999J0D01*
G01*
X194375001Y-76300000D01*
G75*
G02*
X194625000Y-76549999I0J-249999D01*
G01*
X194625000Y-77450001D01*
G75*
G02*
X194375001Y-77700000I-249999J0D01*
G01*
X193724999Y-77700000D01*
G75*
G02*
X193475000Y-77450001I0J249999D01*
G01*
G37*
G36*
G01*
X191425000Y-77450001D02*
X191425000Y-76549999D01*
G75*
G02*
X191674999Y-76300000I249999J0D01*
G01*
X192325001Y-76300000D01*
G75*
G02*
X192575000Y-76549999I0J-249999D01*
G01*
X192575000Y-77450001D01*
G75*
G02*
X192325001Y-77700000I-249999J0D01*
G01*
X191674999Y-77700000D01*
G75*
G02*
X191425000Y-77450001I0J249999D01*
G01*
G37*
%TD*%
%TO.C,C2*%
G36*
G01*
X193450000Y-81700001D02*
X193450000Y-80799999D01*
G75*
G02*
X193699999Y-80550000I249999J0D01*
G01*
X194350001Y-80550000D01*
G75*
G02*
X194600000Y-80799999I0J-249999D01*
G01*
X194600000Y-81700001D01*
G75*
G02*
X194350001Y-81950000I-249999J0D01*
G01*
X193699999Y-81950000D01*
G75*
G02*
X193450000Y-81700001I0J249999D01*
G01*
G37*
G36*
G01*
X191400000Y-81700001D02*
X191400000Y-80799999D01*
G75*
G02*
X191649999Y-80550000I249999J0D01*
G01*
X192300001Y-80550000D01*
G75*
G02*
X192550000Y-80799999I0J-249999D01*
G01*
X192550000Y-81700001D01*
G75*
G02*
X192300001Y-81950000I-249999J0D01*
G01*
X191649999Y-81950000D01*
G75*
G02*
X191400000Y-81700001I0J249999D01*
G01*
G37*
%TD*%
%TO.C,C1*%
G36*
G01*
X193475000Y-85450001D02*
X193475000Y-84549999D01*
G75*
G02*
X193724999Y-84300000I249999J0D01*
G01*
X194375001Y-84300000D01*
G75*
G02*
X194625000Y-84549999I0J-249999D01*
G01*
X194625000Y-85450001D01*
G75*
G02*
X194375001Y-85700000I-249999J0D01*
G01*
X193724999Y-85700000D01*
G75*
G02*
X193475000Y-85450001I0J249999D01*
G01*
G37*
G36*
G01*
X191425000Y-85450001D02*
X191425000Y-84549999D01*
G75*
G02*
X191674999Y-84300000I249999J0D01*
G01*
X192325001Y-84300000D01*
G75*
G02*
X192575000Y-84549999I0J-249999D01*
G01*
X192575000Y-85450001D01*
G75*
G02*
X192325001Y-85700000I-249999J0D01*
G01*
X191674999Y-85700000D01*
G75*
G02*
X191425000Y-85450001I0J249999D01*
G01*
G37*
%TD*%
M02*
