%TF.GenerationSoftware,KiCad,Pcbnew,(5.1.7)-1*%
%TF.CreationDate,2020-11-09T09:10:01-08:00*%
%TF.ProjectId,Valve_Controller_Schematic,56616c76-655f-4436-9f6e-74726f6c6c65,rev?*%
%TF.SameCoordinates,Original*%
%TF.FileFunction,Copper,L2,Bot*%
%TF.FilePolarity,Positive*%
%FSLAX46Y46*%
G04 Gerber Fmt 4.6, Leading zero omitted, Abs format (unit mm)*
G04 Created by KiCad (PCBNEW (5.1.7)-1) date 2020-11-09 09:10:01*
%MOMM*%
%LPD*%
G01*
G04 APERTURE LIST*
%TA.AperFunction,ComponentPad*%
%ADD10C,2.000000*%
%TD*%
%TA.AperFunction,ComponentPad*%
%ADD11C,1.800000*%
%TD*%
%TA.AperFunction,SMDPad,CuDef*%
%ADD12R,2.000000X3.500000*%
%TD*%
%TA.AperFunction,ComponentPad*%
%ADD13C,0.500000*%
%TD*%
%TA.AperFunction,ComponentPad*%
%ADD14C,1.440000*%
%TD*%
%TA.AperFunction,ComponentPad*%
%ADD15C,2.200000*%
%TD*%
%TA.AperFunction,ViaPad*%
%ADD16C,0.800000*%
%TD*%
%TA.AperFunction,Conductor*%
%ADD17C,0.250000*%
%TD*%
%TA.AperFunction,Conductor*%
%ADD18C,1.000000*%
%TD*%
%TA.AperFunction,Conductor*%
%ADD19C,0.500000*%
%TD*%
%TA.AperFunction,Conductor*%
%ADD20C,0.254000*%
%TD*%
%TA.AperFunction,Conductor*%
%ADD21C,0.100000*%
%TD*%
G04 APERTURE END LIST*
D10*
%TO.P,TP7,1*%
%TO.N,/+COIL*%
X127000000Y-103000000D03*
%TD*%
%TO.P,TP6,1*%
%TO.N,/-COIL*%
X127000000Y-96000000D03*
%TD*%
%TO.P,TP5,1*%
%TO.N,/2_IN*%
X154000000Y-107000000D03*
%TD*%
%TO.P,TP4,1*%
%TO.N,/1_IN*%
X147000000Y-107000000D03*
%TD*%
%TO.P,TP3,1*%
%TO.N,/I_SENSE*%
X184000000Y-75000000D03*
%TD*%
%TO.P,TP2,1*%
%TO.N,/HALL_SIG*%
X171000000Y-75000000D03*
%TD*%
%TO.P,TP1,1*%
%TO.N,/LVDT_SIG*%
X158000000Y-75000000D03*
%TD*%
D11*
%TO.P,U1,23*%
%TO.N,/HALL_ENABLE*%
X173430000Y-107500000D03*
%TO.P,U1,22*%
%TO.N,Net-(U1-Pad22)*%
X170890000Y-107500000D03*
%TO.P,U1,21*%
%TO.N,Net-(U1-Pad21)*%
X168350000Y-107500000D03*
%TO.P,U1,20*%
%TO.N,Net-(U1-Pad20)*%
X165810000Y-107500000D03*
%TO.P,U1,19*%
%TO.N,/DRV_SLP*%
X165810000Y-104960000D03*
%TO.P,U1,18*%
%TO.N,/nFAULT*%
X165810000Y-102420000D03*
%TO.P,U1,17*%
%TO.N,Net-(U1-Pad17)*%
X165810000Y-99880000D03*
%TO.P,U1,16*%
%TO.N,GND*%
X165810000Y-97340000D03*
%TO.P,U1,15*%
%TO.N,Net-(U1-Pad15)*%
X165810000Y-94800000D03*
%TO.P,U1,14*%
%TO.N,GND*%
X165810000Y-92260000D03*
%TO.P,U1,13*%
%TO.N,Net-(U1-Pad13)*%
X168350000Y-92260000D03*
%TO.P,U1,12*%
%TO.N,Net-(U1-Pad12)*%
X170890000Y-92260000D03*
%TO.P,U1,11*%
%TO.N,Net-(U1-Pad11)*%
X173430000Y-92260000D03*
%TO.P,U1,10*%
%TO.N,Net-(RV3-Pad2)*%
X175970000Y-92260000D03*
%TO.P,U1,24*%
%TO.N,/2_IN*%
X175970000Y-107500000D03*
%TO.P,U1,25*%
%TO.N,/LED_2*%
X178510000Y-107500000D03*
%TO.P,U1,9*%
%TO.N,Net-(RV1-Pad2)*%
X178510000Y-92260000D03*
%TO.P,U1,26*%
%TO.N,/LED_1*%
X181050000Y-107500000D03*
%TO.P,U1,8*%
%TO.N,Net-(RV2-Pad2)*%
X181050000Y-92260000D03*
%TO.P,U1,27*%
%TO.N,/BUTTON_2*%
X183590000Y-107500000D03*
%TO.P,U1,7*%
%TO.N,/LVDT_SIG*%
X183590000Y-92260000D03*
%TO.P,U1,6*%
%TO.N,/HALL_SIG*%
X186130000Y-92260000D03*
%TO.P,U1,5*%
%TO.N,/I_SENSE*%
X188670000Y-92260000D03*
%TO.P,U1,28*%
%TO.N,/BUTTON_1*%
X186130000Y-107500000D03*
%TO.P,U1,29*%
%TO.N,Net-(U1-Pad29)*%
X188670000Y-107500000D03*
%TO.P,U1,30*%
%TO.N,/1_IN*%
X191210000Y-107500000D03*
%TO.P,U1,31*%
%TO.N,Net-(U1-Pad31)*%
X193750000Y-107500000D03*
%TO.P,U1,32*%
%TO.N,GND*%
X196290000Y-107500000D03*
%TO.P,U1,33*%
%TO.N,Net-(U1-Pad33)*%
X198830000Y-107500000D03*
%TO.P,U1,4*%
%TO.N,/+5V*%
X191210000Y-92260000D03*
%TO.P,U1,3*%
%TO.N,Net-(U1-Pad3)*%
X193750000Y-92260000D03*
%TO.P,U1,2*%
%TO.N,/+3V3*%
X196290000Y-92260000D03*
%TO.P,U1,1*%
%TO.N,Net-(U1-Pad1)*%
X198830000Y-92260000D03*
%TD*%
D12*
%TO.P,U2,17*%
%TO.N,GND*%
X140750000Y-76500000D03*
D13*
X141500000Y-78000000D03*
X140000000Y-78000000D03*
X141500000Y-76500000D03*
X140000000Y-76500000D03*
X141500000Y-75000000D03*
X140000000Y-75000000D03*
%TD*%
D14*
%TO.P,RV3,3*%
%TO.N,GND*%
X158920000Y-81000000D03*
%TO.P,RV3,2*%
%TO.N,Net-(RV3-Pad2)*%
X161460000Y-81000000D03*
%TO.P,RV3,1*%
%TO.N,/+3V3*%
X164000000Y-81000000D03*
%TD*%
%TO.P,RV2,3*%
%TO.N,GND*%
X178920000Y-81000000D03*
%TO.P,RV2,2*%
%TO.N,Net-(RV2-Pad2)*%
X181460000Y-81000000D03*
%TO.P,RV2,1*%
%TO.N,/+3V3*%
X184000000Y-81000000D03*
%TD*%
%TO.P,RV1,3*%
%TO.N,GND*%
X168920000Y-81000000D03*
%TO.P,RV1,2*%
%TO.N,Net-(RV1-Pad2)*%
X171460000Y-81000000D03*
%TO.P,RV1,1*%
%TO.N,/+3V3*%
X174000000Y-81000000D03*
%TD*%
D15*
%TO.P,J1,11*%
%TO.N,/-COIL*%
X110500000Y-75500000D03*
%TO.P,J1,10*%
%TO.N,/+COIL*%
X110500000Y-80500000D03*
%TO.P,J1,9*%
%TO.N,GND*%
X110500000Y-85500000D03*
%TO.P,J1,8*%
%TO.N,+7.5V*%
X110500000Y-90500000D03*
%TO.P,J1,7*%
%TO.N,/HALL_SIG*%
X110500000Y-95500000D03*
%TO.P,J1,6*%
%TO.N,GND*%
X110500000Y-100500000D03*
%TO.P,J1,5*%
%TO.N,/HALL_ENABLE*%
X110500000Y-105500000D03*
%TO.P,J1,4*%
%TO.N,/+3V3*%
X110500000Y-110500000D03*
%TO.P,J1,3*%
%TO.N,Net-(J1-Pad3)*%
X110500000Y-115500000D03*
%TO.P,J1,2*%
%TO.N,GND*%
X110500000Y-120500000D03*
%TO.P,J1,1*%
%TO.N,/+5V*%
X110500000Y-125500000D03*
%TD*%
D16*
%TO.N,*%
X145000000Y-84000000D03*
%TO.N,/LVDT_SIG*%
X160000000Y-112000000D03*
X176000000Y-95000000D03*
X159000000Y-87000000D03*
%TO.N,GND*%
X131000000Y-102000000D03*
X134050000Y-111950000D03*
X141050000Y-101050000D03*
X148000000Y-91000000D03*
X132000000Y-81520000D03*
X125000000Y-80000000D03*
X190000000Y-79000000D03*
X190000000Y-81000000D03*
X190000000Y-83000000D03*
X147000000Y-96000000D03*
X123000000Y-74000000D03*
X167000000Y-116000000D03*
X185000000Y-116000000D03*
X191000000Y-121000000D03*
X173000000Y-123000000D03*
%TO.N,/HALL_SIG*%
X108000000Y-103000000D03*
X174000000Y-74000000D03*
X187000000Y-90000000D03*
%TO.N,/I_SENSE*%
X142763757Y-84354748D03*
X145000000Y-90000000D03*
X170000000Y-105000000D03*
X178000000Y-95000000D03*
X188000000Y-75000000D03*
X197000000Y-79000000D03*
%TO.N,/+5V*%
X158000000Y-115000000D03*
X184000000Y-99000000D03*
%TO.N,Net-(R3-Pad2)*%
X132875000Y-78500000D03*
X132925000Y-74875000D03*
%TO.N,/2_IN*%
X149250000Y-81750000D03*
X144250000Y-81750000D03*
X146500000Y-74750000D03*
X168000000Y-102000000D03*
%TO.N,/nFAULT*%
X140500000Y-80500000D03*
%TO.N,/1_IN*%
X150750000Y-83250000D03*
X143500000Y-82750000D03*
X145250000Y-74000000D03*
X150500000Y-76750000D03*
X155000000Y-98000000D03*
X157000000Y-96000000D03*
X159000000Y-90000000D03*
%TO.N,Net-(U3-Pad5)*%
X133000000Y-88000000D03*
X140000000Y-99000000D03*
%TD*%
D17*
%TO.N,/LVDT_SIG*%
X176000000Y-96583002D02*
X176000000Y-95000000D01*
X160000000Y-112000000D02*
X160000000Y-111434315D01*
X166398001Y-106185001D02*
X176000000Y-96583002D01*
X165249314Y-106185001D02*
X166398001Y-106185001D01*
X160000000Y-111434315D02*
X165249314Y-106185001D01*
X159000000Y-87000000D02*
X160000000Y-88000000D01*
X179330000Y-88000000D02*
X183590000Y-92260000D01*
X160000000Y-88000000D02*
X179330000Y-88000000D01*
%TO.N,GND*%
X134000000Y-111000000D02*
X134000000Y-107000000D01*
X140750000Y-75750000D02*
X141500000Y-75000000D01*
X140750000Y-76500000D02*
X140750000Y-75750000D01*
D18*
X140750000Y-76500000D02*
X142500000Y-76500000D01*
X140750000Y-76500000D02*
X138500000Y-76500000D01*
X140750000Y-76500000D02*
X140750000Y-74250000D01*
X140750000Y-76500000D02*
X140750000Y-78750000D01*
D17*
%TO.N,/HALL_SIG*%
X186130000Y-92260000D02*
X186130000Y-99130000D01*
X186130000Y-99130000D02*
X192000000Y-105000000D01*
X198143002Y-105000000D02*
X201000000Y-107856998D01*
X192000000Y-105000000D02*
X198143002Y-105000000D01*
X201000000Y-107856998D02*
X201000000Y-115000000D01*
X201000000Y-115000000D02*
X189000000Y-127000000D01*
X189000000Y-127000000D02*
X109890998Y-127000000D01*
X108000000Y-125109002D02*
X108000000Y-103000000D01*
X109890998Y-127000000D02*
X108000000Y-125109002D01*
X180414999Y-83414999D02*
X187000000Y-90000000D01*
X180414999Y-80414999D02*
X180414999Y-83414999D01*
X174000000Y-74000000D02*
X180414999Y-80414999D01*
%TO.N,/I_SENSE*%
X145000000Y-86590991D02*
X145000000Y-90000000D01*
X142763757Y-84354748D02*
X145000000Y-86590991D01*
X178000000Y-97000000D02*
X178000000Y-95000000D01*
X170000000Y-105000000D02*
X178000000Y-97000000D01*
X188000000Y-75000000D02*
X193000000Y-75000000D01*
X193000000Y-75000000D02*
X197000000Y-79000000D01*
%TO.N,/-COIL*%
X126000001Y-96999999D02*
X105999999Y-96999999D01*
X127000000Y-96000000D02*
X126000001Y-96999999D01*
X105999999Y-96999999D02*
X103000000Y-94000000D01*
X103000000Y-83000000D02*
X110500000Y-75500000D01*
X103000000Y-94000000D02*
X103000000Y-83000000D01*
%TO.N,/+COIL*%
X127000000Y-103000000D02*
X127000000Y-100000000D01*
X127000000Y-100000000D02*
X129000000Y-98000000D01*
X129000000Y-98000000D02*
X130000000Y-98000000D01*
X130000000Y-98000000D02*
X131000000Y-97000000D01*
X131000000Y-97000000D02*
X131000000Y-95000000D01*
X131000000Y-95000000D02*
X130000000Y-94000000D01*
X109890998Y-94000000D02*
X107000000Y-91109002D01*
X130000000Y-94000000D02*
X109890998Y-94000000D01*
X107000000Y-84000000D02*
X110500000Y-80500000D01*
X107000000Y-91109002D02*
X107000000Y-84000000D01*
%TO.N,/+5V*%
X177274999Y-105725001D02*
X184000000Y-99000000D01*
X158000000Y-115000000D02*
X160123002Y-115000000D01*
X168221999Y-105725001D02*
X177274999Y-105725001D01*
X167035001Y-108088001D02*
X167035001Y-106911999D01*
X160123002Y-115000000D02*
X167035001Y-108088001D01*
X167035001Y-106911999D02*
X168221999Y-105725001D01*
%TO.N,Net-(R3-Pad2)*%
X132925000Y-78075000D02*
X132875000Y-78125000D01*
D19*
X132925000Y-74875000D02*
X132925000Y-78075000D01*
D17*
%TO.N,/2_IN*%
X149250000Y-81750000D02*
X145250000Y-81750000D01*
X149250000Y-77500000D02*
X149250000Y-81750000D01*
X146500000Y-74750000D02*
X149250000Y-77500000D01*
X145250000Y-81750000D02*
X144250000Y-81750000D01*
X166265001Y-103734999D02*
X168000000Y-102000000D01*
X157265001Y-103734999D02*
X166265001Y-103734999D01*
X154000000Y-107000000D02*
X157265001Y-103734999D01*
%TO.N,/nFAULT*%
X161854315Y-102420000D02*
X165810000Y-102420000D01*
X140500000Y-81065685D02*
X161854315Y-102420000D01*
X140500000Y-80500000D02*
X140500000Y-81065685D01*
%TO.N,/1_IN*%
X144000000Y-83250000D02*
X143500000Y-82750000D01*
X150750000Y-83250000D02*
X144000000Y-83250000D01*
X147750000Y-74000000D02*
X150500000Y-76750000D01*
X145250000Y-74000000D02*
X147750000Y-74000000D01*
X155000000Y-99000000D02*
X155000000Y-98000000D01*
X147000000Y-107000000D02*
X155000000Y-99000000D01*
X159000000Y-94000000D02*
X159000000Y-90000000D01*
X157000000Y-96000000D02*
X159000000Y-94000000D01*
%TO.N,Net-(U3-Pad5)*%
X140000000Y-95000000D02*
X140000000Y-99000000D01*
X133000000Y-88000000D02*
X140000000Y-95000000D01*
%TD*%
D20*
%TO.N,GND*%
X207373000Y-87552606D02*
X207373000Y-112447394D01*
X192447394Y-127373000D01*
X189701801Y-127373000D01*
X201511003Y-115563799D01*
X201540001Y-115540001D01*
X201634974Y-115424276D01*
X201705546Y-115292247D01*
X201749003Y-115148986D01*
X201760000Y-115037333D01*
X201760000Y-115037325D01*
X201763676Y-115000000D01*
X201760000Y-114962675D01*
X201760000Y-107894320D01*
X201763676Y-107856997D01*
X201760000Y-107819674D01*
X201760000Y-107819665D01*
X201749003Y-107708012D01*
X201705546Y-107564751D01*
X201634974Y-107432722D01*
X201540001Y-107316997D01*
X201511004Y-107293200D01*
X198706806Y-104489003D01*
X198683003Y-104459999D01*
X198567278Y-104365026D01*
X198435249Y-104294454D01*
X198291988Y-104250997D01*
X198180335Y-104240000D01*
X198180324Y-104240000D01*
X198143002Y-104236324D01*
X198105680Y-104240000D01*
X192314802Y-104240000D01*
X186890000Y-98815199D01*
X186890000Y-93598313D01*
X187108505Y-93452312D01*
X187322312Y-93238505D01*
X187400000Y-93122237D01*
X187477688Y-93238505D01*
X187691495Y-93452312D01*
X187942905Y-93620299D01*
X188222257Y-93736011D01*
X188518816Y-93795000D01*
X188821184Y-93795000D01*
X189117743Y-93736011D01*
X189397095Y-93620299D01*
X189648505Y-93452312D01*
X189862312Y-93238505D01*
X189940000Y-93122237D01*
X190017688Y-93238505D01*
X190231495Y-93452312D01*
X190482905Y-93620299D01*
X190762257Y-93736011D01*
X191058816Y-93795000D01*
X191361184Y-93795000D01*
X191657743Y-93736011D01*
X191937095Y-93620299D01*
X192188505Y-93452312D01*
X192402312Y-93238505D01*
X192480000Y-93122237D01*
X192557688Y-93238505D01*
X192771495Y-93452312D01*
X193022905Y-93620299D01*
X193302257Y-93736011D01*
X193598816Y-93795000D01*
X193901184Y-93795000D01*
X194197743Y-93736011D01*
X194477095Y-93620299D01*
X194728505Y-93452312D01*
X194942312Y-93238505D01*
X195020000Y-93122237D01*
X195097688Y-93238505D01*
X195311495Y-93452312D01*
X195562905Y-93620299D01*
X195842257Y-93736011D01*
X196138816Y-93795000D01*
X196441184Y-93795000D01*
X196737743Y-93736011D01*
X197017095Y-93620299D01*
X197268505Y-93452312D01*
X197482312Y-93238505D01*
X197560000Y-93122237D01*
X197637688Y-93238505D01*
X197851495Y-93452312D01*
X198102905Y-93620299D01*
X198382257Y-93736011D01*
X198678816Y-93795000D01*
X198981184Y-93795000D01*
X199277743Y-93736011D01*
X199557095Y-93620299D01*
X199808505Y-93452312D01*
X200022312Y-93238505D01*
X200190299Y-92987095D01*
X200306011Y-92707743D01*
X200365000Y-92411184D01*
X200365000Y-92108816D01*
X200306011Y-91812257D01*
X200190299Y-91532905D01*
X200022312Y-91281495D01*
X199808505Y-91067688D01*
X199557095Y-90899701D01*
X199277743Y-90783989D01*
X198981184Y-90725000D01*
X198678816Y-90725000D01*
X198382257Y-90783989D01*
X198102905Y-90899701D01*
X197851495Y-91067688D01*
X197637688Y-91281495D01*
X197560000Y-91397763D01*
X197482312Y-91281495D01*
X197268505Y-91067688D01*
X197017095Y-90899701D01*
X196737743Y-90783989D01*
X196441184Y-90725000D01*
X196138816Y-90725000D01*
X195842257Y-90783989D01*
X195562905Y-90899701D01*
X195311495Y-91067688D01*
X195097688Y-91281495D01*
X195020000Y-91397763D01*
X194942312Y-91281495D01*
X194728505Y-91067688D01*
X194477095Y-90899701D01*
X194197743Y-90783989D01*
X193901184Y-90725000D01*
X193598816Y-90725000D01*
X193302257Y-90783989D01*
X193022905Y-90899701D01*
X192771495Y-91067688D01*
X192557688Y-91281495D01*
X192480000Y-91397763D01*
X192402312Y-91281495D01*
X192188505Y-91067688D01*
X191937095Y-90899701D01*
X191657743Y-90783989D01*
X191361184Y-90725000D01*
X191058816Y-90725000D01*
X190762257Y-90783989D01*
X190482905Y-90899701D01*
X190231495Y-91067688D01*
X190017688Y-91281495D01*
X189940000Y-91397763D01*
X189862312Y-91281495D01*
X189648505Y-91067688D01*
X189397095Y-90899701D01*
X189117743Y-90783989D01*
X188821184Y-90725000D01*
X188518816Y-90725000D01*
X188222257Y-90783989D01*
X187942905Y-90899701D01*
X187691495Y-91067688D01*
X187477688Y-91281495D01*
X187400000Y-91397763D01*
X187322312Y-91281495D01*
X187108505Y-91067688D01*
X187059584Y-91035000D01*
X187101939Y-91035000D01*
X187301898Y-90995226D01*
X187490256Y-90917205D01*
X187659774Y-90803937D01*
X187803937Y-90659774D01*
X187917205Y-90490256D01*
X187995226Y-90301898D01*
X188035000Y-90101939D01*
X188035000Y-89898061D01*
X187995226Y-89698102D01*
X187917205Y-89509744D01*
X187803937Y-89340226D01*
X187659774Y-89196063D01*
X187490256Y-89082795D01*
X187301898Y-89004774D01*
X187101939Y-88965000D01*
X187039802Y-88965000D01*
X181174999Y-83100198D01*
X181174999Y-82324856D01*
X181326544Y-82355000D01*
X181593456Y-82355000D01*
X181855239Y-82302928D01*
X182101833Y-82200785D01*
X182323762Y-82052497D01*
X182512497Y-81863762D01*
X182660785Y-81641833D01*
X182730000Y-81474734D01*
X182799215Y-81641833D01*
X182947503Y-81863762D01*
X183136238Y-82052497D01*
X183358167Y-82200785D01*
X183604761Y-82302928D01*
X183866544Y-82355000D01*
X184133456Y-82355000D01*
X184395239Y-82302928D01*
X184641833Y-82200785D01*
X184863762Y-82052497D01*
X185052497Y-81863762D01*
X185200785Y-81641833D01*
X185302928Y-81395239D01*
X185355000Y-81133456D01*
X185355000Y-80866544D01*
X185302928Y-80604761D01*
X185200785Y-80358167D01*
X185052497Y-80136238D01*
X184863762Y-79947503D01*
X184641833Y-79799215D01*
X184395239Y-79697072D01*
X184133456Y-79645000D01*
X183866544Y-79645000D01*
X183604761Y-79697072D01*
X183358167Y-79799215D01*
X183136238Y-79947503D01*
X182947503Y-80136238D01*
X182799215Y-80358167D01*
X182730000Y-80525266D01*
X182660785Y-80358167D01*
X182512497Y-80136238D01*
X182323762Y-79947503D01*
X182101833Y-79799215D01*
X181855239Y-79697072D01*
X181593456Y-79645000D01*
X181326544Y-79645000D01*
X181064761Y-79697072D01*
X180857659Y-79782857D01*
X175913769Y-74838967D01*
X182365000Y-74838967D01*
X182365000Y-75161033D01*
X182427832Y-75476912D01*
X182551082Y-75774463D01*
X182730013Y-76042252D01*
X182957748Y-76269987D01*
X183225537Y-76448918D01*
X183523088Y-76572168D01*
X183838967Y-76635000D01*
X184161033Y-76635000D01*
X184476912Y-76572168D01*
X184774463Y-76448918D01*
X185042252Y-76269987D01*
X185269987Y-76042252D01*
X185448918Y-75774463D01*
X185572168Y-75476912D01*
X185635000Y-75161033D01*
X185635000Y-74898061D01*
X186965000Y-74898061D01*
X186965000Y-75101939D01*
X187004774Y-75301898D01*
X187082795Y-75490256D01*
X187196063Y-75659774D01*
X187340226Y-75803937D01*
X187509744Y-75917205D01*
X187698102Y-75995226D01*
X187898061Y-76035000D01*
X188101939Y-76035000D01*
X188301898Y-75995226D01*
X188490256Y-75917205D01*
X188659774Y-75803937D01*
X188703711Y-75760000D01*
X192685199Y-75760000D01*
X195965000Y-79039802D01*
X195965000Y-79101939D01*
X196004774Y-79301898D01*
X196082795Y-79490256D01*
X196196063Y-79659774D01*
X196340226Y-79803937D01*
X196509744Y-79917205D01*
X196698102Y-79995226D01*
X196898061Y-80035000D01*
X197101939Y-80035000D01*
X197301898Y-79995226D01*
X197490256Y-79917205D01*
X197659774Y-79803937D01*
X197803937Y-79659774D01*
X197917205Y-79490256D01*
X197995226Y-79301898D01*
X198035000Y-79101939D01*
X198035000Y-78898061D01*
X197995226Y-78698102D01*
X197917205Y-78509744D01*
X197803937Y-78340226D01*
X197659774Y-78196063D01*
X197490256Y-78082795D01*
X197301898Y-78004774D01*
X197101939Y-77965000D01*
X197039802Y-77965000D01*
X193563804Y-74489003D01*
X193540001Y-74459999D01*
X193424276Y-74365026D01*
X193292247Y-74294454D01*
X193148986Y-74250997D01*
X193037333Y-74240000D01*
X193037322Y-74240000D01*
X193000000Y-74236324D01*
X192962678Y-74240000D01*
X188703711Y-74240000D01*
X188659774Y-74196063D01*
X188490256Y-74082795D01*
X188301898Y-74004774D01*
X188101939Y-73965000D01*
X187898061Y-73965000D01*
X187698102Y-74004774D01*
X187509744Y-74082795D01*
X187340226Y-74196063D01*
X187196063Y-74340226D01*
X187082795Y-74509744D01*
X187004774Y-74698102D01*
X186965000Y-74898061D01*
X185635000Y-74898061D01*
X185635000Y-74838967D01*
X185572168Y-74523088D01*
X185448918Y-74225537D01*
X185269987Y-73957748D01*
X185042252Y-73730013D01*
X184774463Y-73551082D01*
X184476912Y-73427832D01*
X184161033Y-73365000D01*
X183838967Y-73365000D01*
X183523088Y-73427832D01*
X183225537Y-73551082D01*
X182957748Y-73730013D01*
X182730013Y-73957748D01*
X182551082Y-74225537D01*
X182427832Y-74523088D01*
X182365000Y-74838967D01*
X175913769Y-74838967D01*
X175035000Y-73960199D01*
X175035000Y-73898061D01*
X174995226Y-73698102D01*
X174917205Y-73509744D01*
X174803937Y-73340226D01*
X174659774Y-73196063D01*
X174490256Y-73082795D01*
X174301898Y-73004774D01*
X174101939Y-72965000D01*
X173898061Y-72965000D01*
X173698102Y-73004774D01*
X173509744Y-73082795D01*
X173340226Y-73196063D01*
X173196063Y-73340226D01*
X173082795Y-73509744D01*
X173004774Y-73698102D01*
X172965000Y-73898061D01*
X172965000Y-74101939D01*
X173004774Y-74301898D01*
X173082795Y-74490256D01*
X173196063Y-74659774D01*
X173340226Y-74803937D01*
X173509744Y-74917205D01*
X173698102Y-74995226D01*
X173898061Y-75035000D01*
X173960199Y-75035000D01*
X178602990Y-79677792D01*
X178582499Y-79680937D01*
X178331647Y-79772125D01*
X178225932Y-79828632D01*
X178164045Y-80064440D01*
X178920000Y-80820395D01*
X178934143Y-80806253D01*
X179113748Y-80985858D01*
X179099605Y-81000000D01*
X179113748Y-81014143D01*
X178934143Y-81193748D01*
X178920000Y-81179605D01*
X178164045Y-81935560D01*
X178225932Y-82171368D01*
X178467790Y-82284266D01*
X178727027Y-82347811D01*
X178993680Y-82359561D01*
X179257501Y-82319063D01*
X179508353Y-82227875D01*
X179614068Y-82171368D01*
X179655000Y-82015407D01*
X179655000Y-83377667D01*
X179651323Y-83414999D01*
X179655000Y-83452332D01*
X179664700Y-83550811D01*
X179665997Y-83563984D01*
X179709453Y-83707245D01*
X179780025Y-83839275D01*
X179851200Y-83926001D01*
X179874999Y-83955000D01*
X179903997Y-83978798D01*
X185965000Y-90039802D01*
X185965000Y-90101939D01*
X186004774Y-90301898D01*
X186082795Y-90490256D01*
X186196063Y-90659774D01*
X186261289Y-90725000D01*
X185978816Y-90725000D01*
X185682257Y-90783989D01*
X185402905Y-90899701D01*
X185151495Y-91067688D01*
X184937688Y-91281495D01*
X184860000Y-91397763D01*
X184782312Y-91281495D01*
X184568505Y-91067688D01*
X184317095Y-90899701D01*
X184037743Y-90783989D01*
X183741184Y-90725000D01*
X183438816Y-90725000D01*
X183181070Y-90776269D01*
X179893804Y-87489003D01*
X179870001Y-87459999D01*
X179754276Y-87365026D01*
X179622247Y-87294454D01*
X179478986Y-87250997D01*
X179367333Y-87240000D01*
X179367322Y-87240000D01*
X179330000Y-87236324D01*
X179292678Y-87240000D01*
X160314802Y-87240000D01*
X160035000Y-86960199D01*
X160035000Y-86898061D01*
X159995226Y-86698102D01*
X159917205Y-86509744D01*
X159803937Y-86340226D01*
X159659774Y-86196063D01*
X159490256Y-86082795D01*
X159301898Y-86004774D01*
X159101939Y-85965000D01*
X158898061Y-85965000D01*
X158698102Y-86004774D01*
X158509744Y-86082795D01*
X158340226Y-86196063D01*
X158196063Y-86340226D01*
X158082795Y-86509744D01*
X158004774Y-86698102D01*
X157965000Y-86898061D01*
X157965000Y-87101939D01*
X158004774Y-87301898D01*
X158082795Y-87490256D01*
X158196063Y-87659774D01*
X158340226Y-87803937D01*
X158509744Y-87917205D01*
X158698102Y-87995226D01*
X158898061Y-88035000D01*
X158960199Y-88035000D01*
X159436200Y-88511002D01*
X159459999Y-88540001D01*
X159488997Y-88563799D01*
X159575724Y-88634974D01*
X159707753Y-88705546D01*
X159851014Y-88749003D01*
X160000000Y-88763677D01*
X160037333Y-88760000D01*
X179015199Y-88760000D01*
X180980198Y-90725000D01*
X180898816Y-90725000D01*
X180602257Y-90783989D01*
X180322905Y-90899701D01*
X180071495Y-91067688D01*
X179857688Y-91281495D01*
X179780000Y-91397763D01*
X179702312Y-91281495D01*
X179488505Y-91067688D01*
X179237095Y-90899701D01*
X178957743Y-90783989D01*
X178661184Y-90725000D01*
X178358816Y-90725000D01*
X178062257Y-90783989D01*
X177782905Y-90899701D01*
X177531495Y-91067688D01*
X177317688Y-91281495D01*
X177240000Y-91397763D01*
X177162312Y-91281495D01*
X176948505Y-91067688D01*
X176697095Y-90899701D01*
X176417743Y-90783989D01*
X176121184Y-90725000D01*
X175818816Y-90725000D01*
X175522257Y-90783989D01*
X175242905Y-90899701D01*
X174991495Y-91067688D01*
X174777688Y-91281495D01*
X174700000Y-91397763D01*
X174622312Y-91281495D01*
X174408505Y-91067688D01*
X174157095Y-90899701D01*
X173877743Y-90783989D01*
X173581184Y-90725000D01*
X173278816Y-90725000D01*
X172982257Y-90783989D01*
X172702905Y-90899701D01*
X172451495Y-91067688D01*
X172237688Y-91281495D01*
X172160000Y-91397763D01*
X172082312Y-91281495D01*
X171868505Y-91067688D01*
X171617095Y-90899701D01*
X171337743Y-90783989D01*
X171041184Y-90725000D01*
X170738816Y-90725000D01*
X170442257Y-90783989D01*
X170162905Y-90899701D01*
X169911495Y-91067688D01*
X169697688Y-91281495D01*
X169620000Y-91397763D01*
X169542312Y-91281495D01*
X169328505Y-91067688D01*
X169077095Y-90899701D01*
X168797743Y-90783989D01*
X168501184Y-90725000D01*
X168198816Y-90725000D01*
X167902257Y-90783989D01*
X167622905Y-90899701D01*
X167371495Y-91067688D01*
X167157688Y-91281495D01*
X167055049Y-91435105D01*
X166874080Y-91375525D01*
X165989605Y-92260000D01*
X166874080Y-93144475D01*
X167055049Y-93084895D01*
X167157688Y-93238505D01*
X167371495Y-93452312D01*
X167622905Y-93620299D01*
X167902257Y-93736011D01*
X168198816Y-93795000D01*
X168501184Y-93795000D01*
X168797743Y-93736011D01*
X169077095Y-93620299D01*
X169328505Y-93452312D01*
X169542312Y-93238505D01*
X169620000Y-93122237D01*
X169697688Y-93238505D01*
X169911495Y-93452312D01*
X170162905Y-93620299D01*
X170442257Y-93736011D01*
X170738816Y-93795000D01*
X171041184Y-93795000D01*
X171337743Y-93736011D01*
X171617095Y-93620299D01*
X171868505Y-93452312D01*
X172082312Y-93238505D01*
X172160000Y-93122237D01*
X172237688Y-93238505D01*
X172451495Y-93452312D01*
X172702905Y-93620299D01*
X172982257Y-93736011D01*
X173278816Y-93795000D01*
X173581184Y-93795000D01*
X173877743Y-93736011D01*
X174157095Y-93620299D01*
X174408505Y-93452312D01*
X174622312Y-93238505D01*
X174700000Y-93122237D01*
X174777688Y-93238505D01*
X174991495Y-93452312D01*
X175242905Y-93620299D01*
X175522257Y-93736011D01*
X175818816Y-93795000D01*
X176121184Y-93795000D01*
X176417743Y-93736011D01*
X176697095Y-93620299D01*
X176948505Y-93452312D01*
X177162312Y-93238505D01*
X177240000Y-93122237D01*
X177317688Y-93238505D01*
X177531495Y-93452312D01*
X177782905Y-93620299D01*
X178062257Y-93736011D01*
X178358816Y-93795000D01*
X178661184Y-93795000D01*
X178957743Y-93736011D01*
X179237095Y-93620299D01*
X179488505Y-93452312D01*
X179702312Y-93238505D01*
X179780000Y-93122237D01*
X179857688Y-93238505D01*
X180071495Y-93452312D01*
X180322905Y-93620299D01*
X180602257Y-93736011D01*
X180898816Y-93795000D01*
X181201184Y-93795000D01*
X181497743Y-93736011D01*
X181777095Y-93620299D01*
X182028505Y-93452312D01*
X182242312Y-93238505D01*
X182320000Y-93122237D01*
X182397688Y-93238505D01*
X182611495Y-93452312D01*
X182862905Y-93620299D01*
X183142257Y-93736011D01*
X183438816Y-93795000D01*
X183741184Y-93795000D01*
X184037743Y-93736011D01*
X184317095Y-93620299D01*
X184568505Y-93452312D01*
X184782312Y-93238505D01*
X184860000Y-93122237D01*
X184937688Y-93238505D01*
X185151495Y-93452312D01*
X185370000Y-93598313D01*
X185370001Y-99092668D01*
X185366324Y-99130000D01*
X185370001Y-99167333D01*
X185380998Y-99278986D01*
X185385690Y-99294454D01*
X185424454Y-99422246D01*
X185495026Y-99554276D01*
X185561254Y-99634974D01*
X185590000Y-99670001D01*
X185618998Y-99693799D01*
X191436200Y-105511002D01*
X191459999Y-105540001D01*
X191488997Y-105563799D01*
X191575724Y-105634974D01*
X191707753Y-105705546D01*
X191851014Y-105749003D01*
X192000000Y-105763677D01*
X192037333Y-105760000D01*
X197828201Y-105760000D01*
X198177149Y-106108948D01*
X198102905Y-106139701D01*
X197851495Y-106307688D01*
X197637688Y-106521495D01*
X197535049Y-106675105D01*
X197354080Y-106615525D01*
X196469605Y-107500000D01*
X197354080Y-108384475D01*
X197535049Y-108324895D01*
X197637688Y-108478505D01*
X197851495Y-108692312D01*
X198102905Y-108860299D01*
X198382257Y-108976011D01*
X198678816Y-109035000D01*
X198981184Y-109035000D01*
X199277743Y-108976011D01*
X199557095Y-108860299D01*
X199808505Y-108692312D01*
X200022312Y-108478505D01*
X200190299Y-108227095D01*
X200221052Y-108152852D01*
X200240000Y-108171800D01*
X200240001Y-114685197D01*
X188685199Y-126240000D01*
X112071433Y-126240000D01*
X112168325Y-126006081D01*
X112235000Y-125670883D01*
X112235000Y-125329117D01*
X112168325Y-124993919D01*
X112037537Y-124678169D01*
X111847663Y-124394002D01*
X111605998Y-124152337D01*
X111321831Y-123962463D01*
X111006081Y-123831675D01*
X110670883Y-123765000D01*
X110329117Y-123765000D01*
X109993919Y-123831675D01*
X109678169Y-123962463D01*
X109394002Y-124152337D01*
X109152337Y-124394002D01*
X108962463Y-124678169D01*
X108869178Y-124903379D01*
X108760000Y-124794201D01*
X108760000Y-121706712D01*
X109472893Y-121706712D01*
X109580726Y-121981338D01*
X109887384Y-122132216D01*
X110217585Y-122220369D01*
X110558639Y-122242409D01*
X110897439Y-122197489D01*
X111220966Y-122087336D01*
X111419274Y-121981338D01*
X111527107Y-121706712D01*
X110500000Y-120679605D01*
X109472893Y-121706712D01*
X108760000Y-121706712D01*
X108760000Y-120576808D01*
X108802511Y-120897439D01*
X108912664Y-121220966D01*
X109018662Y-121419274D01*
X109293288Y-121527107D01*
X110320395Y-120500000D01*
X110679605Y-120500000D01*
X111706712Y-121527107D01*
X111981338Y-121419274D01*
X112132216Y-121112616D01*
X112220369Y-120782415D01*
X112242409Y-120441361D01*
X112197489Y-120102561D01*
X112087336Y-119779034D01*
X111981338Y-119580726D01*
X111706712Y-119472893D01*
X110679605Y-120500000D01*
X110320395Y-120500000D01*
X109293288Y-119472893D01*
X109018662Y-119580726D01*
X108867784Y-119887384D01*
X108779631Y-120217585D01*
X108760000Y-120521361D01*
X108760000Y-119293288D01*
X109472893Y-119293288D01*
X110500000Y-120320395D01*
X111527107Y-119293288D01*
X111419274Y-119018662D01*
X111112616Y-118867784D01*
X110782415Y-118779631D01*
X110441361Y-118757591D01*
X110102561Y-118802511D01*
X109779034Y-118912664D01*
X109580726Y-119018662D01*
X109472893Y-119293288D01*
X108760000Y-119293288D01*
X108760000Y-115329117D01*
X108765000Y-115329117D01*
X108765000Y-115670883D01*
X108831675Y-116006081D01*
X108962463Y-116321831D01*
X109152337Y-116605998D01*
X109394002Y-116847663D01*
X109678169Y-117037537D01*
X109993919Y-117168325D01*
X110329117Y-117235000D01*
X110670883Y-117235000D01*
X111006081Y-117168325D01*
X111321831Y-117037537D01*
X111605998Y-116847663D01*
X111847663Y-116605998D01*
X112037537Y-116321831D01*
X112168325Y-116006081D01*
X112235000Y-115670883D01*
X112235000Y-115329117D01*
X112168325Y-114993919D01*
X112037537Y-114678169D01*
X111847663Y-114394002D01*
X111605998Y-114152337D01*
X111321831Y-113962463D01*
X111006081Y-113831675D01*
X110670883Y-113765000D01*
X110329117Y-113765000D01*
X109993919Y-113831675D01*
X109678169Y-113962463D01*
X109394002Y-114152337D01*
X109152337Y-114394002D01*
X108962463Y-114678169D01*
X108831675Y-114993919D01*
X108765000Y-115329117D01*
X108760000Y-115329117D01*
X108760000Y-110329117D01*
X108765000Y-110329117D01*
X108765000Y-110670883D01*
X108831675Y-111006081D01*
X108962463Y-111321831D01*
X109152337Y-111605998D01*
X109394002Y-111847663D01*
X109678169Y-112037537D01*
X109993919Y-112168325D01*
X110329117Y-112235000D01*
X110670883Y-112235000D01*
X111006081Y-112168325D01*
X111321831Y-112037537D01*
X111605998Y-111847663D01*
X111847663Y-111605998D01*
X112037537Y-111321831D01*
X112168325Y-111006081D01*
X112235000Y-110670883D01*
X112235000Y-110329117D01*
X112168325Y-109993919D01*
X112037537Y-109678169D01*
X111847663Y-109394002D01*
X111605998Y-109152337D01*
X111321831Y-108962463D01*
X111006081Y-108831675D01*
X110670883Y-108765000D01*
X110329117Y-108765000D01*
X109993919Y-108831675D01*
X109678169Y-108962463D01*
X109394002Y-109152337D01*
X109152337Y-109394002D01*
X108962463Y-109678169D01*
X108831675Y-109993919D01*
X108765000Y-110329117D01*
X108760000Y-110329117D01*
X108760000Y-105329117D01*
X108765000Y-105329117D01*
X108765000Y-105670883D01*
X108831675Y-106006081D01*
X108962463Y-106321831D01*
X109152337Y-106605998D01*
X109394002Y-106847663D01*
X109678169Y-107037537D01*
X109993919Y-107168325D01*
X110329117Y-107235000D01*
X110670883Y-107235000D01*
X111006081Y-107168325D01*
X111321831Y-107037537D01*
X111605998Y-106847663D01*
X111847663Y-106605998D01*
X112037537Y-106321831D01*
X112168325Y-106006081D01*
X112235000Y-105670883D01*
X112235000Y-105329117D01*
X112168325Y-104993919D01*
X112037537Y-104678169D01*
X111847663Y-104394002D01*
X111605998Y-104152337D01*
X111321831Y-103962463D01*
X111006081Y-103831675D01*
X110670883Y-103765000D01*
X110329117Y-103765000D01*
X109993919Y-103831675D01*
X109678169Y-103962463D01*
X109394002Y-104152337D01*
X109152337Y-104394002D01*
X108962463Y-104678169D01*
X108831675Y-104993919D01*
X108765000Y-105329117D01*
X108760000Y-105329117D01*
X108760000Y-103703711D01*
X108803937Y-103659774D01*
X108917205Y-103490256D01*
X108995226Y-103301898D01*
X109035000Y-103101939D01*
X109035000Y-102898061D01*
X108995226Y-102698102D01*
X108917205Y-102509744D01*
X108803937Y-102340226D01*
X108659774Y-102196063D01*
X108490256Y-102082795D01*
X108301898Y-102004774D01*
X108101939Y-101965000D01*
X107898061Y-101965000D01*
X107698102Y-102004774D01*
X107509744Y-102082795D01*
X107340226Y-102196063D01*
X107196063Y-102340226D01*
X107082795Y-102509744D01*
X107004774Y-102698102D01*
X106965000Y-102898061D01*
X106965000Y-103101939D01*
X107004774Y-103301898D01*
X107082795Y-103490256D01*
X107196063Y-103659774D01*
X107240001Y-103703712D01*
X107240000Y-124560394D01*
X95127000Y-112447394D01*
X95127000Y-101706712D01*
X109472893Y-101706712D01*
X109580726Y-101981338D01*
X109887384Y-102132216D01*
X110217585Y-102220369D01*
X110558639Y-102242409D01*
X110897439Y-102197489D01*
X111220966Y-102087336D01*
X111419274Y-101981338D01*
X111527107Y-101706712D01*
X110500000Y-100679605D01*
X109472893Y-101706712D01*
X95127000Y-101706712D01*
X95127000Y-100558639D01*
X108757591Y-100558639D01*
X108802511Y-100897439D01*
X108912664Y-101220966D01*
X109018662Y-101419274D01*
X109293288Y-101527107D01*
X110320395Y-100500000D01*
X110679605Y-100500000D01*
X111706712Y-101527107D01*
X111981338Y-101419274D01*
X112132216Y-101112616D01*
X112220369Y-100782415D01*
X112242409Y-100441361D01*
X112197489Y-100102561D01*
X112087336Y-99779034D01*
X111981338Y-99580726D01*
X111706712Y-99472893D01*
X110679605Y-100500000D01*
X110320395Y-100500000D01*
X109293288Y-99472893D01*
X109018662Y-99580726D01*
X108867784Y-99887384D01*
X108779631Y-100217585D01*
X108757591Y-100558639D01*
X95127000Y-100558639D01*
X95127000Y-99293288D01*
X109472893Y-99293288D01*
X110500000Y-100320395D01*
X111527107Y-99293288D01*
X111419274Y-99018662D01*
X111112616Y-98867784D01*
X110782415Y-98779631D01*
X110441361Y-98757591D01*
X110102561Y-98802511D01*
X109779034Y-98912664D01*
X109580726Y-99018662D01*
X109472893Y-99293288D01*
X95127000Y-99293288D01*
X95127000Y-87552606D01*
X99679606Y-83000000D01*
X102236324Y-83000000D01*
X102240001Y-83037332D01*
X102240000Y-93962678D01*
X102236324Y-94000000D01*
X102240000Y-94037322D01*
X102240000Y-94037332D01*
X102250997Y-94148985D01*
X102294454Y-94292246D01*
X102365026Y-94424276D01*
X102404871Y-94472826D01*
X102459999Y-94540001D01*
X102489003Y-94563804D01*
X105436200Y-97511002D01*
X105459998Y-97540000D01*
X105575723Y-97634973D01*
X105707752Y-97705545D01*
X105851013Y-97749002D01*
X105962666Y-97759999D01*
X105962675Y-97759999D01*
X105999998Y-97763675D01*
X106037321Y-97759999D01*
X125962679Y-97759999D01*
X126000001Y-97763675D01*
X126037323Y-97759999D01*
X126037334Y-97759999D01*
X126148987Y-97749002D01*
X126292248Y-97705545D01*
X126424277Y-97634973D01*
X126508279Y-97566034D01*
X126523088Y-97572168D01*
X126838967Y-97635000D01*
X127161033Y-97635000D01*
X127476912Y-97572168D01*
X127774463Y-97448918D01*
X128042252Y-97269987D01*
X128269987Y-97042252D01*
X128448918Y-96774463D01*
X128572168Y-96476912D01*
X128635000Y-96161033D01*
X128635000Y-95838967D01*
X128572168Y-95523088D01*
X128448918Y-95225537D01*
X128269987Y-94957748D01*
X128072239Y-94760000D01*
X129685199Y-94760000D01*
X130240001Y-95314803D01*
X130240000Y-96685198D01*
X129685199Y-97240000D01*
X129037322Y-97240000D01*
X128999999Y-97236324D01*
X128962676Y-97240000D01*
X128962667Y-97240000D01*
X128851014Y-97250997D01*
X128727223Y-97288548D01*
X128707753Y-97294454D01*
X128575723Y-97365026D01*
X128503526Y-97424277D01*
X128459999Y-97459999D01*
X128436201Y-97488997D01*
X126488998Y-99436201D01*
X126460000Y-99459999D01*
X126436202Y-99488997D01*
X126436201Y-99488998D01*
X126365026Y-99575724D01*
X126294454Y-99707754D01*
X126250998Y-99851015D01*
X126236324Y-100000000D01*
X126240001Y-100037332D01*
X126240000Y-101545091D01*
X126225537Y-101551082D01*
X125957748Y-101730013D01*
X125730013Y-101957748D01*
X125551082Y-102225537D01*
X125427832Y-102523088D01*
X125365000Y-102838967D01*
X125365000Y-103161033D01*
X125427832Y-103476912D01*
X125551082Y-103774463D01*
X125730013Y-104042252D01*
X125957748Y-104269987D01*
X126225537Y-104448918D01*
X126523088Y-104572168D01*
X126838967Y-104635000D01*
X127161033Y-104635000D01*
X127476912Y-104572168D01*
X127774463Y-104448918D01*
X128042252Y-104269987D01*
X128269987Y-104042252D01*
X128448918Y-103774463D01*
X128572168Y-103476912D01*
X128635000Y-103161033D01*
X128635000Y-102838967D01*
X128572168Y-102523088D01*
X128448918Y-102225537D01*
X128269987Y-101957748D01*
X128042252Y-101730013D01*
X127774463Y-101551082D01*
X127760000Y-101545091D01*
X127760000Y-100314801D01*
X129314802Y-98760000D01*
X129962678Y-98760000D01*
X130000000Y-98763676D01*
X130037322Y-98760000D01*
X130037333Y-98760000D01*
X130148986Y-98749003D01*
X130292247Y-98705546D01*
X130424276Y-98634974D01*
X130540001Y-98540001D01*
X130563804Y-98510998D01*
X131511004Y-97563798D01*
X131540001Y-97540001D01*
X131634974Y-97424276D01*
X131705546Y-97292247D01*
X131749003Y-97148986D01*
X131760000Y-97037333D01*
X131760000Y-97037332D01*
X131763677Y-97000000D01*
X131760000Y-96962667D01*
X131760000Y-95037333D01*
X131763677Y-95000000D01*
X131759516Y-94957748D01*
X131749003Y-94851014D01*
X131705546Y-94707753D01*
X131634974Y-94575724D01*
X131540001Y-94459999D01*
X131511003Y-94436201D01*
X130563804Y-93489002D01*
X130540001Y-93459999D01*
X130424276Y-93365026D01*
X130292247Y-93294454D01*
X130148986Y-93250997D01*
X130037333Y-93240000D01*
X130037322Y-93240000D01*
X130000000Y-93236324D01*
X129962678Y-93240000D01*
X110205800Y-93240000D01*
X107760000Y-90794201D01*
X107760000Y-90329117D01*
X108765000Y-90329117D01*
X108765000Y-90670883D01*
X108831675Y-91006081D01*
X108962463Y-91321831D01*
X109152337Y-91605998D01*
X109394002Y-91847663D01*
X109678169Y-92037537D01*
X109993919Y-92168325D01*
X110329117Y-92235000D01*
X110670883Y-92235000D01*
X111006081Y-92168325D01*
X111321831Y-92037537D01*
X111605998Y-91847663D01*
X111847663Y-91605998D01*
X112037537Y-91321831D01*
X112168325Y-91006081D01*
X112235000Y-90670883D01*
X112235000Y-90329117D01*
X112168325Y-89993919D01*
X112037537Y-89678169D01*
X111847663Y-89394002D01*
X111605998Y-89152337D01*
X111321831Y-88962463D01*
X111006081Y-88831675D01*
X110670883Y-88765000D01*
X110329117Y-88765000D01*
X109993919Y-88831675D01*
X109678169Y-88962463D01*
X109394002Y-89152337D01*
X109152337Y-89394002D01*
X108962463Y-89678169D01*
X108831675Y-89993919D01*
X108765000Y-90329117D01*
X107760000Y-90329117D01*
X107760000Y-87898061D01*
X131965000Y-87898061D01*
X131965000Y-88101939D01*
X132004774Y-88301898D01*
X132082795Y-88490256D01*
X132196063Y-88659774D01*
X132340226Y-88803937D01*
X132509744Y-88917205D01*
X132698102Y-88995226D01*
X132898061Y-89035000D01*
X132960199Y-89035000D01*
X139240000Y-95314802D01*
X139240001Y-98296288D01*
X139196063Y-98340226D01*
X139082795Y-98509744D01*
X139004774Y-98698102D01*
X138965000Y-98898061D01*
X138965000Y-99101939D01*
X139004774Y-99301898D01*
X139082795Y-99490256D01*
X139196063Y-99659774D01*
X139340226Y-99803937D01*
X139509744Y-99917205D01*
X139698102Y-99995226D01*
X139898061Y-100035000D01*
X140101939Y-100035000D01*
X140301898Y-99995226D01*
X140490256Y-99917205D01*
X140659774Y-99803937D01*
X140803937Y-99659774D01*
X140917205Y-99490256D01*
X140995226Y-99301898D01*
X141035000Y-99101939D01*
X141035000Y-98898061D01*
X140995226Y-98698102D01*
X140917205Y-98509744D01*
X140803937Y-98340226D01*
X140760000Y-98296289D01*
X140760000Y-95037323D01*
X140763676Y-95000000D01*
X140760000Y-94962677D01*
X140760000Y-94962667D01*
X140749003Y-94851014D01*
X140705546Y-94707753D01*
X140674043Y-94648816D01*
X140634974Y-94575723D01*
X140563799Y-94488997D01*
X140540001Y-94459999D01*
X140511004Y-94436202D01*
X134035000Y-87960199D01*
X134035000Y-87898061D01*
X133995226Y-87698102D01*
X133917205Y-87509744D01*
X133803937Y-87340226D01*
X133659774Y-87196063D01*
X133490256Y-87082795D01*
X133301898Y-87004774D01*
X133101939Y-86965000D01*
X132898061Y-86965000D01*
X132698102Y-87004774D01*
X132509744Y-87082795D01*
X132340226Y-87196063D01*
X132196063Y-87340226D01*
X132082795Y-87509744D01*
X132004774Y-87698102D01*
X131965000Y-87898061D01*
X107760000Y-87898061D01*
X107760000Y-86706712D01*
X109472893Y-86706712D01*
X109580726Y-86981338D01*
X109887384Y-87132216D01*
X110217585Y-87220369D01*
X110558639Y-87242409D01*
X110897439Y-87197489D01*
X111220966Y-87087336D01*
X111419274Y-86981338D01*
X111527107Y-86706712D01*
X110500000Y-85679605D01*
X109472893Y-86706712D01*
X107760000Y-86706712D01*
X107760000Y-85558639D01*
X108757591Y-85558639D01*
X108802511Y-85897439D01*
X108912664Y-86220966D01*
X109018662Y-86419274D01*
X109293288Y-86527107D01*
X110320395Y-85500000D01*
X110679605Y-85500000D01*
X111706712Y-86527107D01*
X111981338Y-86419274D01*
X112132216Y-86112616D01*
X112220369Y-85782415D01*
X112242409Y-85441361D01*
X112197489Y-85102561D01*
X112087336Y-84779034D01*
X111981338Y-84580726D01*
X111706712Y-84472893D01*
X110679605Y-85500000D01*
X110320395Y-85500000D01*
X109293288Y-84472893D01*
X109018662Y-84580726D01*
X108867784Y-84887384D01*
X108779631Y-85217585D01*
X108757591Y-85558639D01*
X107760000Y-85558639D01*
X107760000Y-84314801D01*
X107781513Y-84293288D01*
X109472893Y-84293288D01*
X110500000Y-85320395D01*
X111527107Y-84293288D01*
X111419274Y-84018662D01*
X111112616Y-83867784D01*
X110782415Y-83779631D01*
X110441361Y-83757591D01*
X110102561Y-83802511D01*
X109779034Y-83912664D01*
X109580726Y-84018662D01*
X109472893Y-84293288D01*
X107781513Y-84293288D01*
X109932088Y-82142714D01*
X109993919Y-82168325D01*
X110329117Y-82235000D01*
X110670883Y-82235000D01*
X111006081Y-82168325D01*
X111321831Y-82037537D01*
X111605998Y-81847663D01*
X111847663Y-81605998D01*
X112037537Y-81321831D01*
X112168325Y-81006081D01*
X112235000Y-80670883D01*
X112235000Y-80398061D01*
X139465000Y-80398061D01*
X139465000Y-80601939D01*
X139504774Y-80801898D01*
X139582795Y-80990256D01*
X139696063Y-81159774D01*
X139751013Y-81214724D01*
X139794454Y-81357932D01*
X139814396Y-81395239D01*
X139865026Y-81489961D01*
X139936201Y-81576687D01*
X139960000Y-81605686D01*
X139988998Y-81629484D01*
X142007154Y-83647640D01*
X141959820Y-83694974D01*
X141846552Y-83864492D01*
X141768531Y-84052850D01*
X141728757Y-84252809D01*
X141728757Y-84456687D01*
X141768531Y-84656646D01*
X141846552Y-84845004D01*
X141959820Y-85014522D01*
X142103983Y-85158685D01*
X142273501Y-85271953D01*
X142461859Y-85349974D01*
X142661818Y-85389748D01*
X142723956Y-85389748D01*
X144240000Y-86905793D01*
X144240001Y-89296288D01*
X144196063Y-89340226D01*
X144082795Y-89509744D01*
X144004774Y-89698102D01*
X143965000Y-89898061D01*
X143965000Y-90101939D01*
X144004774Y-90301898D01*
X144082795Y-90490256D01*
X144196063Y-90659774D01*
X144340226Y-90803937D01*
X144509744Y-90917205D01*
X144698102Y-90995226D01*
X144898061Y-91035000D01*
X145101939Y-91035000D01*
X145301898Y-90995226D01*
X145490256Y-90917205D01*
X145659774Y-90803937D01*
X145803937Y-90659774D01*
X145917205Y-90490256D01*
X145995226Y-90301898D01*
X146035000Y-90101939D01*
X146035000Y-89898061D01*
X145995226Y-89698102D01*
X145917205Y-89509744D01*
X145803937Y-89340226D01*
X145760000Y-89296289D01*
X145760000Y-87400486D01*
X155408404Y-97048890D01*
X155301898Y-97004774D01*
X155101939Y-96965000D01*
X154898061Y-96965000D01*
X154698102Y-97004774D01*
X154509744Y-97082795D01*
X154340226Y-97196063D01*
X154196063Y-97340226D01*
X154082795Y-97509744D01*
X154004774Y-97698102D01*
X153965000Y-97898061D01*
X153965000Y-98101939D01*
X154004774Y-98301898D01*
X154082795Y-98490256D01*
X154196063Y-98659774D01*
X154230743Y-98694454D01*
X147491376Y-105433823D01*
X147476912Y-105427832D01*
X147161033Y-105365000D01*
X146838967Y-105365000D01*
X146523088Y-105427832D01*
X146225537Y-105551082D01*
X145957748Y-105730013D01*
X145730013Y-105957748D01*
X145551082Y-106225537D01*
X145427832Y-106523088D01*
X145365000Y-106838967D01*
X145365000Y-107161033D01*
X145427832Y-107476912D01*
X145551082Y-107774463D01*
X145730013Y-108042252D01*
X145957748Y-108269987D01*
X146225537Y-108448918D01*
X146523088Y-108572168D01*
X146838967Y-108635000D01*
X147161033Y-108635000D01*
X147476912Y-108572168D01*
X147774463Y-108448918D01*
X148042252Y-108269987D01*
X148269987Y-108042252D01*
X148448918Y-107774463D01*
X148572168Y-107476912D01*
X148635000Y-107161033D01*
X148635000Y-106838967D01*
X148572168Y-106523088D01*
X148566177Y-106508624D01*
X155511009Y-99563794D01*
X155540001Y-99540001D01*
X155563795Y-99511008D01*
X155563799Y-99511004D01*
X155634973Y-99424277D01*
X155634974Y-99424276D01*
X155705546Y-99292247D01*
X155749003Y-99148986D01*
X155760000Y-99037333D01*
X155760000Y-99037324D01*
X155763676Y-99000001D01*
X155760000Y-98962678D01*
X155760000Y-98703711D01*
X155803937Y-98659774D01*
X155917205Y-98490256D01*
X155995226Y-98301898D01*
X156035000Y-98101939D01*
X156035000Y-97898061D01*
X155995226Y-97698102D01*
X155951110Y-97591596D01*
X161290516Y-102931003D01*
X161314314Y-102960001D01*
X161332589Y-102974999D01*
X157302326Y-102974999D01*
X157265001Y-102971323D01*
X157227676Y-102974999D01*
X157227668Y-102974999D01*
X157116015Y-102985996D01*
X156972754Y-103029453D01*
X156840725Y-103100025D01*
X156725000Y-103194998D01*
X156701202Y-103223996D01*
X154491376Y-105433823D01*
X154476912Y-105427832D01*
X154161033Y-105365000D01*
X153838967Y-105365000D01*
X153523088Y-105427832D01*
X153225537Y-105551082D01*
X152957748Y-105730013D01*
X152730013Y-105957748D01*
X152551082Y-106225537D01*
X152427832Y-106523088D01*
X152365000Y-106838967D01*
X152365000Y-107161033D01*
X152427832Y-107476912D01*
X152551082Y-107774463D01*
X152730013Y-108042252D01*
X152957748Y-108269987D01*
X153225537Y-108448918D01*
X153523088Y-108572168D01*
X153838967Y-108635000D01*
X154161033Y-108635000D01*
X154476912Y-108572168D01*
X154774463Y-108448918D01*
X155042252Y-108269987D01*
X155269987Y-108042252D01*
X155448918Y-107774463D01*
X155572168Y-107476912D01*
X155635000Y-107161033D01*
X155635000Y-106838967D01*
X155572168Y-106523088D01*
X155566177Y-106508624D01*
X157579803Y-104494999D01*
X164341138Y-104494999D01*
X164333989Y-104512257D01*
X164275000Y-104808816D01*
X164275000Y-105111184D01*
X164333989Y-105407743D01*
X164449701Y-105687095D01*
X164538909Y-105820604D01*
X159488998Y-110870516D01*
X159460000Y-110894314D01*
X159436202Y-110923312D01*
X159436201Y-110923313D01*
X159365026Y-111010039D01*
X159326137Y-111082795D01*
X159294454Y-111142068D01*
X159251013Y-111285276D01*
X159196063Y-111340226D01*
X159082795Y-111509744D01*
X159004774Y-111698102D01*
X158965000Y-111898061D01*
X158965000Y-112101939D01*
X159004774Y-112301898D01*
X159082795Y-112490256D01*
X159196063Y-112659774D01*
X159340226Y-112803937D01*
X159509744Y-112917205D01*
X159698102Y-112995226D01*
X159898061Y-113035000D01*
X160101939Y-113035000D01*
X160301898Y-112995226D01*
X160490256Y-112917205D01*
X160659774Y-112803937D01*
X160803937Y-112659774D01*
X160917205Y-112490256D01*
X160995226Y-112301898D01*
X161035000Y-112101939D01*
X161035000Y-111898061D01*
X160995226Y-111698102D01*
X160941271Y-111567845D01*
X164400589Y-108108528D01*
X164449701Y-108227095D01*
X164617688Y-108478505D01*
X164831495Y-108692312D01*
X165082905Y-108860299D01*
X165157148Y-108891052D01*
X159808201Y-114240000D01*
X158703711Y-114240000D01*
X158659774Y-114196063D01*
X158490256Y-114082795D01*
X158301898Y-114004774D01*
X158101939Y-113965000D01*
X157898061Y-113965000D01*
X157698102Y-114004774D01*
X157509744Y-114082795D01*
X157340226Y-114196063D01*
X157196063Y-114340226D01*
X157082795Y-114509744D01*
X157004774Y-114698102D01*
X156965000Y-114898061D01*
X156965000Y-115101939D01*
X157004774Y-115301898D01*
X157082795Y-115490256D01*
X157196063Y-115659774D01*
X157340226Y-115803937D01*
X157509744Y-115917205D01*
X157698102Y-115995226D01*
X157898061Y-116035000D01*
X158101939Y-116035000D01*
X158301898Y-115995226D01*
X158490256Y-115917205D01*
X158659774Y-115803937D01*
X158703711Y-115760000D01*
X160085680Y-115760000D01*
X160123002Y-115763676D01*
X160160324Y-115760000D01*
X160160335Y-115760000D01*
X160271988Y-115749003D01*
X160415249Y-115705546D01*
X160547278Y-115634974D01*
X160663003Y-115540001D01*
X160686806Y-115510997D01*
X167451820Y-108745984D01*
X167622905Y-108860299D01*
X167902257Y-108976011D01*
X168198816Y-109035000D01*
X168501184Y-109035000D01*
X168797743Y-108976011D01*
X169077095Y-108860299D01*
X169328505Y-108692312D01*
X169542312Y-108478505D01*
X169620000Y-108362237D01*
X169697688Y-108478505D01*
X169911495Y-108692312D01*
X170162905Y-108860299D01*
X170442257Y-108976011D01*
X170738816Y-109035000D01*
X171041184Y-109035000D01*
X171337743Y-108976011D01*
X171617095Y-108860299D01*
X171868505Y-108692312D01*
X172082312Y-108478505D01*
X172160000Y-108362237D01*
X172237688Y-108478505D01*
X172451495Y-108692312D01*
X172702905Y-108860299D01*
X172982257Y-108976011D01*
X173278816Y-109035000D01*
X173581184Y-109035000D01*
X173877743Y-108976011D01*
X174157095Y-108860299D01*
X174408505Y-108692312D01*
X174622312Y-108478505D01*
X174700000Y-108362237D01*
X174777688Y-108478505D01*
X174991495Y-108692312D01*
X175242905Y-108860299D01*
X175522257Y-108976011D01*
X175818816Y-109035000D01*
X176121184Y-109035000D01*
X176417743Y-108976011D01*
X176697095Y-108860299D01*
X176948505Y-108692312D01*
X177162312Y-108478505D01*
X177240000Y-108362237D01*
X177317688Y-108478505D01*
X177531495Y-108692312D01*
X177782905Y-108860299D01*
X178062257Y-108976011D01*
X178358816Y-109035000D01*
X178661184Y-109035000D01*
X178957743Y-108976011D01*
X179237095Y-108860299D01*
X179488505Y-108692312D01*
X179702312Y-108478505D01*
X179780000Y-108362237D01*
X179857688Y-108478505D01*
X180071495Y-108692312D01*
X180322905Y-108860299D01*
X180602257Y-108976011D01*
X180898816Y-109035000D01*
X181201184Y-109035000D01*
X181497743Y-108976011D01*
X181777095Y-108860299D01*
X182028505Y-108692312D01*
X182242312Y-108478505D01*
X182320000Y-108362237D01*
X182397688Y-108478505D01*
X182611495Y-108692312D01*
X182862905Y-108860299D01*
X183142257Y-108976011D01*
X183438816Y-109035000D01*
X183741184Y-109035000D01*
X184037743Y-108976011D01*
X184317095Y-108860299D01*
X184568505Y-108692312D01*
X184782312Y-108478505D01*
X184860000Y-108362237D01*
X184937688Y-108478505D01*
X185151495Y-108692312D01*
X185402905Y-108860299D01*
X185682257Y-108976011D01*
X185978816Y-109035000D01*
X186281184Y-109035000D01*
X186577743Y-108976011D01*
X186857095Y-108860299D01*
X187108505Y-108692312D01*
X187322312Y-108478505D01*
X187400000Y-108362237D01*
X187477688Y-108478505D01*
X187691495Y-108692312D01*
X187942905Y-108860299D01*
X188222257Y-108976011D01*
X188518816Y-109035000D01*
X188821184Y-109035000D01*
X189117743Y-108976011D01*
X189397095Y-108860299D01*
X189648505Y-108692312D01*
X189862312Y-108478505D01*
X189940000Y-108362237D01*
X190017688Y-108478505D01*
X190231495Y-108692312D01*
X190482905Y-108860299D01*
X190762257Y-108976011D01*
X191058816Y-109035000D01*
X191361184Y-109035000D01*
X191657743Y-108976011D01*
X191937095Y-108860299D01*
X192188505Y-108692312D01*
X192402312Y-108478505D01*
X192480000Y-108362237D01*
X192557688Y-108478505D01*
X192771495Y-108692312D01*
X193022905Y-108860299D01*
X193302257Y-108976011D01*
X193598816Y-109035000D01*
X193901184Y-109035000D01*
X194197743Y-108976011D01*
X194477095Y-108860299D01*
X194728505Y-108692312D01*
X194856737Y-108564080D01*
X195405525Y-108564080D01*
X195489208Y-108818261D01*
X195761775Y-108949158D01*
X196054642Y-109024365D01*
X196356553Y-109040991D01*
X196655907Y-108998397D01*
X196941199Y-108898222D01*
X197090792Y-108818261D01*
X197174475Y-108564080D01*
X196290000Y-107679605D01*
X195405525Y-108564080D01*
X194856737Y-108564080D01*
X194942312Y-108478505D01*
X195044951Y-108324895D01*
X195225920Y-108384475D01*
X196110395Y-107500000D01*
X195225920Y-106615525D01*
X195044951Y-106675105D01*
X194942312Y-106521495D01*
X194856737Y-106435920D01*
X195405525Y-106435920D01*
X196290000Y-107320395D01*
X197174475Y-106435920D01*
X197090792Y-106181739D01*
X196818225Y-106050842D01*
X196525358Y-105975635D01*
X196223447Y-105959009D01*
X195924093Y-106001603D01*
X195638801Y-106101778D01*
X195489208Y-106181739D01*
X195405525Y-106435920D01*
X194856737Y-106435920D01*
X194728505Y-106307688D01*
X194477095Y-106139701D01*
X194197743Y-106023989D01*
X193901184Y-105965000D01*
X193598816Y-105965000D01*
X193302257Y-106023989D01*
X193022905Y-106139701D01*
X192771495Y-106307688D01*
X192557688Y-106521495D01*
X192480000Y-106637763D01*
X192402312Y-106521495D01*
X192188505Y-106307688D01*
X191937095Y-106139701D01*
X191657743Y-106023989D01*
X191361184Y-105965000D01*
X191058816Y-105965000D01*
X190762257Y-106023989D01*
X190482905Y-106139701D01*
X190231495Y-106307688D01*
X190017688Y-106521495D01*
X189940000Y-106637763D01*
X189862312Y-106521495D01*
X189648505Y-106307688D01*
X189397095Y-106139701D01*
X189117743Y-106023989D01*
X188821184Y-105965000D01*
X188518816Y-105965000D01*
X188222257Y-106023989D01*
X187942905Y-106139701D01*
X187691495Y-106307688D01*
X187477688Y-106521495D01*
X187400000Y-106637763D01*
X187322312Y-106521495D01*
X187108505Y-106307688D01*
X186857095Y-106139701D01*
X186577743Y-106023989D01*
X186281184Y-105965000D01*
X185978816Y-105965000D01*
X185682257Y-106023989D01*
X185402905Y-106139701D01*
X185151495Y-106307688D01*
X184937688Y-106521495D01*
X184860000Y-106637763D01*
X184782312Y-106521495D01*
X184568505Y-106307688D01*
X184317095Y-106139701D01*
X184037743Y-106023989D01*
X183741184Y-105965000D01*
X183438816Y-105965000D01*
X183142257Y-106023989D01*
X182862905Y-106139701D01*
X182611495Y-106307688D01*
X182397688Y-106521495D01*
X182320000Y-106637763D01*
X182242312Y-106521495D01*
X182028505Y-106307688D01*
X181777095Y-106139701D01*
X181497743Y-106023989D01*
X181201184Y-105965000D01*
X180898816Y-105965000D01*
X180602257Y-106023989D01*
X180322905Y-106139701D01*
X180071495Y-106307688D01*
X179857688Y-106521495D01*
X179780000Y-106637763D01*
X179702312Y-106521495D01*
X179488505Y-106307688D01*
X179237095Y-106139701D01*
X178957743Y-106023989D01*
X178661184Y-105965000D01*
X178358816Y-105965000D01*
X178062257Y-106023989D01*
X178042719Y-106032082D01*
X184039802Y-100035000D01*
X184101939Y-100035000D01*
X184301898Y-99995226D01*
X184490256Y-99917205D01*
X184659774Y-99803937D01*
X184803937Y-99659774D01*
X184917205Y-99490256D01*
X184995226Y-99301898D01*
X185035000Y-99101939D01*
X185035000Y-98898061D01*
X184995226Y-98698102D01*
X184917205Y-98509744D01*
X184803937Y-98340226D01*
X184659774Y-98196063D01*
X184490256Y-98082795D01*
X184301898Y-98004774D01*
X184101939Y-97965000D01*
X183898061Y-97965000D01*
X183698102Y-98004774D01*
X183509744Y-98082795D01*
X183340226Y-98196063D01*
X183196063Y-98340226D01*
X183082795Y-98509744D01*
X183004774Y-98698102D01*
X182965000Y-98898061D01*
X182965000Y-98960198D01*
X176960198Y-104965001D01*
X171109800Y-104965001D01*
X178511009Y-97563794D01*
X178540001Y-97540001D01*
X178563795Y-97511008D01*
X178563799Y-97511004D01*
X178634973Y-97424277D01*
X178634974Y-97424276D01*
X178705546Y-97292247D01*
X178749003Y-97148986D01*
X178760000Y-97037333D01*
X178760000Y-97037324D01*
X178763676Y-97000001D01*
X178760000Y-96962678D01*
X178760000Y-95703711D01*
X178803937Y-95659774D01*
X178917205Y-95490256D01*
X178995226Y-95301898D01*
X179035000Y-95101939D01*
X179035000Y-94898061D01*
X178995226Y-94698102D01*
X178917205Y-94509744D01*
X178803937Y-94340226D01*
X178659774Y-94196063D01*
X178490256Y-94082795D01*
X178301898Y-94004774D01*
X178101939Y-93965000D01*
X177898061Y-93965000D01*
X177698102Y-94004774D01*
X177509744Y-94082795D01*
X177340226Y-94196063D01*
X177196063Y-94340226D01*
X177082795Y-94509744D01*
X177004774Y-94698102D01*
X177000000Y-94722103D01*
X176995226Y-94698102D01*
X176917205Y-94509744D01*
X176803937Y-94340226D01*
X176659774Y-94196063D01*
X176490256Y-94082795D01*
X176301898Y-94004774D01*
X176101939Y-93965000D01*
X175898061Y-93965000D01*
X175698102Y-94004774D01*
X175509744Y-94082795D01*
X175340226Y-94196063D01*
X175196063Y-94340226D01*
X175082795Y-94509744D01*
X175004774Y-94698102D01*
X174965000Y-94898061D01*
X174965000Y-95101939D01*
X175004774Y-95301898D01*
X175082795Y-95490256D01*
X175196063Y-95659774D01*
X175240001Y-95703712D01*
X175240000Y-96268200D01*
X167201052Y-104307149D01*
X167170299Y-104232905D01*
X167038759Y-104036042D01*
X168039802Y-103035000D01*
X168101939Y-103035000D01*
X168301898Y-102995226D01*
X168490256Y-102917205D01*
X168659774Y-102803937D01*
X168803937Y-102659774D01*
X168917205Y-102490256D01*
X168995226Y-102301898D01*
X169035000Y-102101939D01*
X169035000Y-101898061D01*
X168995226Y-101698102D01*
X168917205Y-101509744D01*
X168803937Y-101340226D01*
X168659774Y-101196063D01*
X168490256Y-101082795D01*
X168301898Y-101004774D01*
X168101939Y-100965000D01*
X167898061Y-100965000D01*
X167698102Y-101004774D01*
X167509744Y-101082795D01*
X167340226Y-101196063D01*
X167196063Y-101340226D01*
X167082795Y-101509744D01*
X167069447Y-101541969D01*
X167002312Y-101441495D01*
X166788505Y-101227688D01*
X166672237Y-101150000D01*
X166788505Y-101072312D01*
X167002312Y-100858505D01*
X167170299Y-100607095D01*
X167286011Y-100327743D01*
X167345000Y-100031184D01*
X167345000Y-99728816D01*
X167286011Y-99432257D01*
X167170299Y-99152905D01*
X167002312Y-98901495D01*
X166788505Y-98687688D01*
X166634895Y-98585049D01*
X166694475Y-98404080D01*
X165810000Y-97519605D01*
X164925525Y-98404080D01*
X164985105Y-98585049D01*
X164831495Y-98687688D01*
X164617688Y-98901495D01*
X164449701Y-99152905D01*
X164333989Y-99432257D01*
X164275000Y-99728816D01*
X164275000Y-100031184D01*
X164333989Y-100327743D01*
X164449701Y-100607095D01*
X164617688Y-100858505D01*
X164831495Y-101072312D01*
X164947763Y-101150000D01*
X164831495Y-101227688D01*
X164617688Y-101441495D01*
X164471687Y-101660000D01*
X162169117Y-101660000D01*
X157915670Y-97406553D01*
X164269009Y-97406553D01*
X164311603Y-97705907D01*
X164411778Y-97991199D01*
X164491739Y-98140792D01*
X164745920Y-98224475D01*
X165630395Y-97340000D01*
X165989605Y-97340000D01*
X166874080Y-98224475D01*
X167128261Y-98140792D01*
X167259158Y-97868225D01*
X167334365Y-97575358D01*
X167350991Y-97273447D01*
X167308397Y-96974093D01*
X167208222Y-96688801D01*
X167128261Y-96539208D01*
X166874080Y-96455525D01*
X165989605Y-97340000D01*
X165630395Y-97340000D01*
X164745920Y-96455525D01*
X164491739Y-96539208D01*
X164360842Y-96811775D01*
X164285635Y-97104642D01*
X164269009Y-97406553D01*
X157915670Y-97406553D01*
X157445048Y-96935931D01*
X157490256Y-96917205D01*
X157659774Y-96803937D01*
X157803937Y-96659774D01*
X157917205Y-96490256D01*
X157995226Y-96301898D01*
X158035000Y-96101939D01*
X158035000Y-96039801D01*
X159425985Y-94648816D01*
X164275000Y-94648816D01*
X164275000Y-94951184D01*
X164333989Y-95247743D01*
X164449701Y-95527095D01*
X164617688Y-95778505D01*
X164831495Y-95992312D01*
X164985105Y-96094951D01*
X164925525Y-96275920D01*
X165810000Y-97160395D01*
X166694475Y-96275920D01*
X166634895Y-96094951D01*
X166788505Y-95992312D01*
X167002312Y-95778505D01*
X167170299Y-95527095D01*
X167286011Y-95247743D01*
X167345000Y-94951184D01*
X167345000Y-94648816D01*
X167286011Y-94352257D01*
X167170299Y-94072905D01*
X167002312Y-93821495D01*
X166788505Y-93607688D01*
X166634895Y-93505049D01*
X166694475Y-93324080D01*
X165810000Y-92439605D01*
X164925525Y-93324080D01*
X164985105Y-93505049D01*
X164831495Y-93607688D01*
X164617688Y-93821495D01*
X164449701Y-94072905D01*
X164333989Y-94352257D01*
X164275000Y-94648816D01*
X159425985Y-94648816D01*
X159511004Y-94563798D01*
X159540001Y-94540001D01*
X159632056Y-94427832D01*
X159634974Y-94424277D01*
X159705546Y-94292247D01*
X159722510Y-94236323D01*
X159749003Y-94148986D01*
X159760000Y-94037333D01*
X159760000Y-94037324D01*
X159763676Y-94000001D01*
X159760000Y-93962678D01*
X159760000Y-92326553D01*
X164269009Y-92326553D01*
X164311603Y-92625907D01*
X164411778Y-92911199D01*
X164491739Y-93060792D01*
X164745920Y-93144475D01*
X165630395Y-92260000D01*
X164745920Y-91375525D01*
X164491739Y-91459208D01*
X164360842Y-91731775D01*
X164285635Y-92024642D01*
X164269009Y-92326553D01*
X159760000Y-92326553D01*
X159760000Y-91195920D01*
X164925525Y-91195920D01*
X165810000Y-92080395D01*
X166694475Y-91195920D01*
X166610792Y-90941739D01*
X166338225Y-90810842D01*
X166045358Y-90735635D01*
X165743447Y-90719009D01*
X165444093Y-90761603D01*
X165158801Y-90861778D01*
X165009208Y-90941739D01*
X164925525Y-91195920D01*
X159760000Y-91195920D01*
X159760000Y-90703711D01*
X159803937Y-90659774D01*
X159917205Y-90490256D01*
X159995226Y-90301898D01*
X160035000Y-90101939D01*
X160035000Y-89898061D01*
X159995226Y-89698102D01*
X159917205Y-89509744D01*
X159803937Y-89340226D01*
X159659774Y-89196063D01*
X159490256Y-89082795D01*
X159301898Y-89004774D01*
X159101939Y-88965000D01*
X158898061Y-88965000D01*
X158698102Y-89004774D01*
X158509744Y-89082795D01*
X158340226Y-89196063D01*
X158196063Y-89340226D01*
X158082795Y-89509744D01*
X158004774Y-89698102D01*
X157965000Y-89898061D01*
X157965000Y-90101939D01*
X158004774Y-90301898D01*
X158082795Y-90490256D01*
X158196063Y-90659774D01*
X158240001Y-90703712D01*
X158240000Y-93685198D01*
X156960199Y-94965000D01*
X156898061Y-94965000D01*
X156698102Y-95004774D01*
X156509744Y-95082795D01*
X156340226Y-95196063D01*
X156196063Y-95340226D01*
X156082795Y-95509744D01*
X156064069Y-95554952D01*
X145445047Y-84935931D01*
X145490256Y-84917205D01*
X145659774Y-84803937D01*
X145803937Y-84659774D01*
X145917205Y-84490256D01*
X145995226Y-84301898D01*
X146035000Y-84101939D01*
X146035000Y-84010000D01*
X150046289Y-84010000D01*
X150090226Y-84053937D01*
X150259744Y-84167205D01*
X150448102Y-84245226D01*
X150648061Y-84285000D01*
X150851939Y-84285000D01*
X151051898Y-84245226D01*
X151240256Y-84167205D01*
X151409774Y-84053937D01*
X151553937Y-83909774D01*
X151667205Y-83740256D01*
X151745226Y-83551898D01*
X151785000Y-83351939D01*
X151785000Y-83148061D01*
X151745226Y-82948102D01*
X151667205Y-82759744D01*
X151553937Y-82590226D01*
X151409774Y-82446063D01*
X151240256Y-82332795D01*
X151051898Y-82254774D01*
X150851939Y-82215000D01*
X150648061Y-82215000D01*
X150448102Y-82254774D01*
X150259744Y-82332795D01*
X150090226Y-82446063D01*
X150046289Y-82490000D01*
X149973711Y-82490000D01*
X150053937Y-82409774D01*
X150167205Y-82240256D01*
X150245226Y-82051898D01*
X150268366Y-81935560D01*
X158164045Y-81935560D01*
X158225932Y-82171368D01*
X158467790Y-82284266D01*
X158727027Y-82347811D01*
X158993680Y-82359561D01*
X159257501Y-82319063D01*
X159508353Y-82227875D01*
X159614068Y-82171368D01*
X159675955Y-81935560D01*
X158920000Y-81179605D01*
X158164045Y-81935560D01*
X150268366Y-81935560D01*
X150285000Y-81851939D01*
X150285000Y-81648061D01*
X150245226Y-81448102D01*
X150167205Y-81259744D01*
X150053937Y-81090226D01*
X150037391Y-81073680D01*
X157560439Y-81073680D01*
X157600937Y-81337501D01*
X157692125Y-81588353D01*
X157748632Y-81694068D01*
X157984440Y-81755955D01*
X158740395Y-81000000D01*
X159099605Y-81000000D01*
X159855560Y-81755955D01*
X160091368Y-81694068D01*
X160191764Y-81478993D01*
X160259215Y-81641833D01*
X160407503Y-81863762D01*
X160596238Y-82052497D01*
X160818167Y-82200785D01*
X161064761Y-82302928D01*
X161326544Y-82355000D01*
X161593456Y-82355000D01*
X161855239Y-82302928D01*
X162101833Y-82200785D01*
X162323762Y-82052497D01*
X162512497Y-81863762D01*
X162660785Y-81641833D01*
X162730000Y-81474734D01*
X162799215Y-81641833D01*
X162947503Y-81863762D01*
X163136238Y-82052497D01*
X163358167Y-82200785D01*
X163604761Y-82302928D01*
X163866544Y-82355000D01*
X164133456Y-82355000D01*
X164395239Y-82302928D01*
X164641833Y-82200785D01*
X164863762Y-82052497D01*
X164980699Y-81935560D01*
X168164045Y-81935560D01*
X168225932Y-82171368D01*
X168467790Y-82284266D01*
X168727027Y-82347811D01*
X168993680Y-82359561D01*
X169257501Y-82319063D01*
X169508353Y-82227875D01*
X169614068Y-82171368D01*
X169675955Y-81935560D01*
X168920000Y-81179605D01*
X168164045Y-81935560D01*
X164980699Y-81935560D01*
X165052497Y-81863762D01*
X165200785Y-81641833D01*
X165302928Y-81395239D01*
X165355000Y-81133456D01*
X165355000Y-81073680D01*
X167560439Y-81073680D01*
X167600937Y-81337501D01*
X167692125Y-81588353D01*
X167748632Y-81694068D01*
X167984440Y-81755955D01*
X168740395Y-81000000D01*
X169099605Y-81000000D01*
X169855560Y-81755955D01*
X170091368Y-81694068D01*
X170191764Y-81478993D01*
X170259215Y-81641833D01*
X170407503Y-81863762D01*
X170596238Y-82052497D01*
X170818167Y-82200785D01*
X171064761Y-82302928D01*
X171326544Y-82355000D01*
X171593456Y-82355000D01*
X171855239Y-82302928D01*
X172101833Y-82200785D01*
X172323762Y-82052497D01*
X172512497Y-81863762D01*
X172660785Y-81641833D01*
X172730000Y-81474734D01*
X172799215Y-81641833D01*
X172947503Y-81863762D01*
X173136238Y-82052497D01*
X173358167Y-82200785D01*
X173604761Y-82302928D01*
X173866544Y-82355000D01*
X174133456Y-82355000D01*
X174395239Y-82302928D01*
X174641833Y-82200785D01*
X174863762Y-82052497D01*
X175052497Y-81863762D01*
X175200785Y-81641833D01*
X175302928Y-81395239D01*
X175355000Y-81133456D01*
X175355000Y-81073680D01*
X177560439Y-81073680D01*
X177600937Y-81337501D01*
X177692125Y-81588353D01*
X177748632Y-81694068D01*
X177984440Y-81755955D01*
X178740395Y-81000000D01*
X177984440Y-80244045D01*
X177748632Y-80305932D01*
X177635734Y-80547790D01*
X177572189Y-80807027D01*
X177560439Y-81073680D01*
X175355000Y-81073680D01*
X175355000Y-80866544D01*
X175302928Y-80604761D01*
X175200785Y-80358167D01*
X175052497Y-80136238D01*
X174863762Y-79947503D01*
X174641833Y-79799215D01*
X174395239Y-79697072D01*
X174133456Y-79645000D01*
X173866544Y-79645000D01*
X173604761Y-79697072D01*
X173358167Y-79799215D01*
X173136238Y-79947503D01*
X172947503Y-80136238D01*
X172799215Y-80358167D01*
X172730000Y-80525266D01*
X172660785Y-80358167D01*
X172512497Y-80136238D01*
X172323762Y-79947503D01*
X172101833Y-79799215D01*
X171855239Y-79697072D01*
X171593456Y-79645000D01*
X171326544Y-79645000D01*
X171064761Y-79697072D01*
X170818167Y-79799215D01*
X170596238Y-79947503D01*
X170407503Y-80136238D01*
X170259215Y-80358167D01*
X170189562Y-80526324D01*
X170147875Y-80411647D01*
X170091368Y-80305932D01*
X169855560Y-80244045D01*
X169099605Y-81000000D01*
X168740395Y-81000000D01*
X167984440Y-80244045D01*
X167748632Y-80305932D01*
X167635734Y-80547790D01*
X167572189Y-80807027D01*
X167560439Y-81073680D01*
X165355000Y-81073680D01*
X165355000Y-80866544D01*
X165302928Y-80604761D01*
X165200785Y-80358167D01*
X165052497Y-80136238D01*
X164980699Y-80064440D01*
X168164045Y-80064440D01*
X168920000Y-80820395D01*
X169675955Y-80064440D01*
X169614068Y-79828632D01*
X169372210Y-79715734D01*
X169112973Y-79652189D01*
X168846320Y-79640439D01*
X168582499Y-79680937D01*
X168331647Y-79772125D01*
X168225932Y-79828632D01*
X168164045Y-80064440D01*
X164980699Y-80064440D01*
X164863762Y-79947503D01*
X164641833Y-79799215D01*
X164395239Y-79697072D01*
X164133456Y-79645000D01*
X163866544Y-79645000D01*
X163604761Y-79697072D01*
X163358167Y-79799215D01*
X163136238Y-79947503D01*
X162947503Y-80136238D01*
X162799215Y-80358167D01*
X162730000Y-80525266D01*
X162660785Y-80358167D01*
X162512497Y-80136238D01*
X162323762Y-79947503D01*
X162101833Y-79799215D01*
X161855239Y-79697072D01*
X161593456Y-79645000D01*
X161326544Y-79645000D01*
X161064761Y-79697072D01*
X160818167Y-79799215D01*
X160596238Y-79947503D01*
X160407503Y-80136238D01*
X160259215Y-80358167D01*
X160189562Y-80526324D01*
X160147875Y-80411647D01*
X160091368Y-80305932D01*
X159855560Y-80244045D01*
X159099605Y-81000000D01*
X158740395Y-81000000D01*
X157984440Y-80244045D01*
X157748632Y-80305932D01*
X157635734Y-80547790D01*
X157572189Y-80807027D01*
X157560439Y-81073680D01*
X150037391Y-81073680D01*
X150010000Y-81046289D01*
X150010000Y-80064440D01*
X158164045Y-80064440D01*
X158920000Y-80820395D01*
X159675955Y-80064440D01*
X159614068Y-79828632D01*
X159372210Y-79715734D01*
X159112973Y-79652189D01*
X158846320Y-79640439D01*
X158582499Y-79680937D01*
X158331647Y-79772125D01*
X158225932Y-79828632D01*
X158164045Y-80064440D01*
X150010000Y-80064440D01*
X150010000Y-77667311D01*
X150198102Y-77745226D01*
X150398061Y-77785000D01*
X150601939Y-77785000D01*
X150801898Y-77745226D01*
X150990256Y-77667205D01*
X151159774Y-77553937D01*
X151303937Y-77409774D01*
X151417205Y-77240256D01*
X151495226Y-77051898D01*
X151535000Y-76851939D01*
X151535000Y-76648061D01*
X151495226Y-76448102D01*
X151417205Y-76259744D01*
X151303937Y-76090226D01*
X151159774Y-75946063D01*
X150990256Y-75832795D01*
X150801898Y-75754774D01*
X150601939Y-75715000D01*
X150539802Y-75715000D01*
X149663769Y-74838967D01*
X156365000Y-74838967D01*
X156365000Y-75161033D01*
X156427832Y-75476912D01*
X156551082Y-75774463D01*
X156730013Y-76042252D01*
X156957748Y-76269987D01*
X157225537Y-76448918D01*
X157523088Y-76572168D01*
X157838967Y-76635000D01*
X158161033Y-76635000D01*
X158476912Y-76572168D01*
X158774463Y-76448918D01*
X159042252Y-76269987D01*
X159269987Y-76042252D01*
X159448918Y-75774463D01*
X159572168Y-75476912D01*
X159635000Y-75161033D01*
X159635000Y-74838967D01*
X169365000Y-74838967D01*
X169365000Y-75161033D01*
X169427832Y-75476912D01*
X169551082Y-75774463D01*
X169730013Y-76042252D01*
X169957748Y-76269987D01*
X170225537Y-76448918D01*
X170523088Y-76572168D01*
X170838967Y-76635000D01*
X171161033Y-76635000D01*
X171476912Y-76572168D01*
X171774463Y-76448918D01*
X172042252Y-76269987D01*
X172269987Y-76042252D01*
X172448918Y-75774463D01*
X172572168Y-75476912D01*
X172635000Y-75161033D01*
X172635000Y-74838967D01*
X172572168Y-74523088D01*
X172448918Y-74225537D01*
X172269987Y-73957748D01*
X172042252Y-73730013D01*
X171774463Y-73551082D01*
X171476912Y-73427832D01*
X171161033Y-73365000D01*
X170838967Y-73365000D01*
X170523088Y-73427832D01*
X170225537Y-73551082D01*
X169957748Y-73730013D01*
X169730013Y-73957748D01*
X169551082Y-74225537D01*
X169427832Y-74523088D01*
X169365000Y-74838967D01*
X159635000Y-74838967D01*
X159572168Y-74523088D01*
X159448918Y-74225537D01*
X159269987Y-73957748D01*
X159042252Y-73730013D01*
X158774463Y-73551082D01*
X158476912Y-73427832D01*
X158161033Y-73365000D01*
X157838967Y-73365000D01*
X157523088Y-73427832D01*
X157225537Y-73551082D01*
X156957748Y-73730013D01*
X156730013Y-73957748D01*
X156551082Y-74225537D01*
X156427832Y-74523088D01*
X156365000Y-74838967D01*
X149663769Y-74838967D01*
X148313804Y-73489003D01*
X148290001Y-73459999D01*
X148174276Y-73365026D01*
X148042247Y-73294454D01*
X147898986Y-73250997D01*
X147787333Y-73240000D01*
X147787322Y-73240000D01*
X147750000Y-73236324D01*
X147712678Y-73240000D01*
X145953711Y-73240000D01*
X145909774Y-73196063D01*
X145740256Y-73082795D01*
X145551898Y-73004774D01*
X145351939Y-72965000D01*
X145148061Y-72965000D01*
X144948102Y-73004774D01*
X144759744Y-73082795D01*
X144590226Y-73196063D01*
X144446063Y-73340226D01*
X144332795Y-73509744D01*
X144254774Y-73698102D01*
X144215000Y-73898061D01*
X144215000Y-74101939D01*
X144254774Y-74301898D01*
X144332795Y-74490256D01*
X144446063Y-74659774D01*
X144590226Y-74803937D01*
X144759744Y-74917205D01*
X144948102Y-74995226D01*
X145148061Y-75035000D01*
X145351939Y-75035000D01*
X145495724Y-75006400D01*
X145504774Y-75051898D01*
X145582795Y-75240256D01*
X145696063Y-75409774D01*
X145840226Y-75553937D01*
X146009744Y-75667205D01*
X146198102Y-75745226D01*
X146398061Y-75785000D01*
X146460199Y-75785000D01*
X148490000Y-77814802D01*
X148490001Y-80990000D01*
X144953711Y-80990000D01*
X144909774Y-80946063D01*
X144740256Y-80832795D01*
X144551898Y-80754774D01*
X144351939Y-80715000D01*
X144148061Y-80715000D01*
X143948102Y-80754774D01*
X143759744Y-80832795D01*
X143590226Y-80946063D01*
X143446063Y-81090226D01*
X143332795Y-81259744D01*
X143254774Y-81448102D01*
X143215000Y-81648061D01*
X143215000Y-81751413D01*
X143198102Y-81754774D01*
X143009744Y-81832795D01*
X142840226Y-81946063D01*
X142696063Y-82090226D01*
X142657322Y-82148206D01*
X141441271Y-80932155D01*
X141495226Y-80801898D01*
X141535000Y-80601939D01*
X141535000Y-80398061D01*
X141495226Y-80198102D01*
X141417205Y-80009744D01*
X141303937Y-79840226D01*
X141159774Y-79696063D01*
X140990256Y-79582795D01*
X140801898Y-79504774D01*
X140601939Y-79465000D01*
X140398061Y-79465000D01*
X140198102Y-79504774D01*
X140009744Y-79582795D01*
X139840226Y-79696063D01*
X139696063Y-79840226D01*
X139582795Y-80009744D01*
X139504774Y-80198102D01*
X139465000Y-80398061D01*
X112235000Y-80398061D01*
X112235000Y-80329117D01*
X112168325Y-79993919D01*
X112037537Y-79678169D01*
X111847663Y-79394002D01*
X111605998Y-79152337D01*
X111321831Y-78962463D01*
X111006081Y-78831675D01*
X110670883Y-78765000D01*
X110329117Y-78765000D01*
X109993919Y-78831675D01*
X109678169Y-78962463D01*
X109394002Y-79152337D01*
X109152337Y-79394002D01*
X108962463Y-79678169D01*
X108831675Y-79993919D01*
X108765000Y-80329117D01*
X108765000Y-80670883D01*
X108831675Y-81006081D01*
X108857286Y-81067912D01*
X106488998Y-83436201D01*
X106460000Y-83459999D01*
X106436202Y-83488997D01*
X106436201Y-83488998D01*
X106365026Y-83575724D01*
X106294454Y-83707754D01*
X106250998Y-83851015D01*
X106236324Y-84000000D01*
X106240001Y-84037332D01*
X106240000Y-91071679D01*
X106236324Y-91109002D01*
X106240000Y-91146324D01*
X106240000Y-91146334D01*
X106250997Y-91257987D01*
X106270364Y-91321831D01*
X106294454Y-91401248D01*
X106365026Y-91533278D01*
X106382405Y-91554454D01*
X106459999Y-91649003D01*
X106489003Y-91672806D01*
X109181268Y-94365071D01*
X109152337Y-94394002D01*
X108962463Y-94678169D01*
X108831675Y-94993919D01*
X108765000Y-95329117D01*
X108765000Y-95670883D01*
X108831675Y-96006081D01*
X108928567Y-96239999D01*
X106314801Y-96239999D01*
X103760000Y-93685199D01*
X103760000Y-83314801D01*
X108676740Y-78398061D01*
X131840000Y-78398061D01*
X131840000Y-78601939D01*
X131879774Y-78801898D01*
X131957795Y-78990256D01*
X132071063Y-79159774D01*
X132215226Y-79303937D01*
X132384744Y-79417205D01*
X132573102Y-79495226D01*
X132773061Y-79535000D01*
X132976939Y-79535000D01*
X133176898Y-79495226D01*
X133365256Y-79417205D01*
X133534774Y-79303937D01*
X133678937Y-79159774D01*
X133792205Y-78990256D01*
X133870226Y-78801898D01*
X133910000Y-78601939D01*
X133910000Y-78398061D01*
X133870226Y-78198102D01*
X133810000Y-78052705D01*
X133810000Y-75413454D01*
X133842205Y-75365256D01*
X133920226Y-75176898D01*
X133960000Y-74976939D01*
X133960000Y-74773061D01*
X133955413Y-74750000D01*
X139111928Y-74750000D01*
X139115000Y-76214250D01*
X139147856Y-76247106D01*
X139114887Y-76413998D01*
X139115116Y-76588328D01*
X139148039Y-76752711D01*
X139115000Y-76785750D01*
X139111928Y-78250000D01*
X139124188Y-78374482D01*
X139160498Y-78494180D01*
X139219463Y-78604494D01*
X139298815Y-78701185D01*
X139395506Y-78780537D01*
X139505820Y-78839502D01*
X139625518Y-78875812D01*
X139750000Y-78888072D01*
X140464250Y-78885000D01*
X140623000Y-78726250D01*
X140623000Y-78421641D01*
X140750000Y-78418920D01*
X140877000Y-78421641D01*
X140877000Y-78726250D01*
X141035750Y-78885000D01*
X141750000Y-78888072D01*
X141874482Y-78875812D01*
X141994180Y-78839502D01*
X142104494Y-78780537D01*
X142201185Y-78701185D01*
X142280537Y-78604494D01*
X142339502Y-78494180D01*
X142375812Y-78374482D01*
X142388072Y-78250000D01*
X142385000Y-76785750D01*
X142352144Y-76752894D01*
X142385113Y-76586002D01*
X142384884Y-76411672D01*
X142351961Y-76247289D01*
X142385000Y-76214250D01*
X142388072Y-74750000D01*
X142375812Y-74625518D01*
X142339502Y-74505820D01*
X142280537Y-74395506D01*
X142201185Y-74298815D01*
X142104494Y-74219463D01*
X141994180Y-74160498D01*
X141874482Y-74124188D01*
X141750000Y-74111928D01*
X141035750Y-74115000D01*
X140877000Y-74273750D01*
X140877000Y-74578359D01*
X140750000Y-74581080D01*
X140623000Y-74578359D01*
X140623000Y-74273750D01*
X140464250Y-74115000D01*
X139750000Y-74111928D01*
X139625518Y-74124188D01*
X139505820Y-74160498D01*
X139395506Y-74219463D01*
X139298815Y-74298815D01*
X139219463Y-74395506D01*
X139160498Y-74505820D01*
X139124188Y-74625518D01*
X139111928Y-74750000D01*
X133955413Y-74750000D01*
X133920226Y-74573102D01*
X133842205Y-74384744D01*
X133728937Y-74215226D01*
X133584774Y-74071063D01*
X133415256Y-73957795D01*
X133226898Y-73879774D01*
X133026939Y-73840000D01*
X132823061Y-73840000D01*
X132623102Y-73879774D01*
X132434744Y-73957795D01*
X132265226Y-74071063D01*
X132121063Y-74215226D01*
X132007795Y-74384744D01*
X131929774Y-74573102D01*
X131890000Y-74773061D01*
X131890000Y-74976939D01*
X131929774Y-75176898D01*
X132007795Y-75365256D01*
X132040000Y-75413455D01*
X132040001Y-77886714D01*
X131957795Y-78009744D01*
X131879774Y-78198102D01*
X131840000Y-78398061D01*
X108676740Y-78398061D01*
X109932088Y-77142714D01*
X109993919Y-77168325D01*
X110329117Y-77235000D01*
X110670883Y-77235000D01*
X111006081Y-77168325D01*
X111321831Y-77037537D01*
X111605998Y-76847663D01*
X111847663Y-76605998D01*
X112037537Y-76321831D01*
X112168325Y-76006081D01*
X112235000Y-75670883D01*
X112235000Y-75329117D01*
X112168325Y-74993919D01*
X112037537Y-74678169D01*
X111847663Y-74394002D01*
X111605998Y-74152337D01*
X111321831Y-73962463D01*
X111006081Y-73831675D01*
X110670883Y-73765000D01*
X110329117Y-73765000D01*
X109993919Y-73831675D01*
X109678169Y-73962463D01*
X109394002Y-74152337D01*
X109152337Y-74394002D01*
X108962463Y-74678169D01*
X108831675Y-74993919D01*
X108765000Y-75329117D01*
X108765000Y-75670883D01*
X108831675Y-76006081D01*
X108857286Y-76067912D01*
X102488998Y-82436201D01*
X102460000Y-82459999D01*
X102436202Y-82488997D01*
X102436201Y-82488998D01*
X102365026Y-82575724D01*
X102294454Y-82707754D01*
X102250998Y-82851015D01*
X102236324Y-83000000D01*
X99679606Y-83000000D01*
X110052606Y-72627000D01*
X192447394Y-72627000D01*
X207373000Y-87552606D01*
%TA.AperFunction,Conductor*%
D21*
G36*
X207373000Y-87552606D02*
G01*
X207373000Y-112447394D01*
X192447394Y-127373000D01*
X189701801Y-127373000D01*
X201511003Y-115563799D01*
X201540001Y-115540001D01*
X201634974Y-115424276D01*
X201705546Y-115292247D01*
X201749003Y-115148986D01*
X201760000Y-115037333D01*
X201760000Y-115037325D01*
X201763676Y-115000000D01*
X201760000Y-114962675D01*
X201760000Y-107894320D01*
X201763676Y-107856997D01*
X201760000Y-107819674D01*
X201760000Y-107819665D01*
X201749003Y-107708012D01*
X201705546Y-107564751D01*
X201634974Y-107432722D01*
X201540001Y-107316997D01*
X201511004Y-107293200D01*
X198706806Y-104489003D01*
X198683003Y-104459999D01*
X198567278Y-104365026D01*
X198435249Y-104294454D01*
X198291988Y-104250997D01*
X198180335Y-104240000D01*
X198180324Y-104240000D01*
X198143002Y-104236324D01*
X198105680Y-104240000D01*
X192314802Y-104240000D01*
X186890000Y-98815199D01*
X186890000Y-93598313D01*
X187108505Y-93452312D01*
X187322312Y-93238505D01*
X187400000Y-93122237D01*
X187477688Y-93238505D01*
X187691495Y-93452312D01*
X187942905Y-93620299D01*
X188222257Y-93736011D01*
X188518816Y-93795000D01*
X188821184Y-93795000D01*
X189117743Y-93736011D01*
X189397095Y-93620299D01*
X189648505Y-93452312D01*
X189862312Y-93238505D01*
X189940000Y-93122237D01*
X190017688Y-93238505D01*
X190231495Y-93452312D01*
X190482905Y-93620299D01*
X190762257Y-93736011D01*
X191058816Y-93795000D01*
X191361184Y-93795000D01*
X191657743Y-93736011D01*
X191937095Y-93620299D01*
X192188505Y-93452312D01*
X192402312Y-93238505D01*
X192480000Y-93122237D01*
X192557688Y-93238505D01*
X192771495Y-93452312D01*
X193022905Y-93620299D01*
X193302257Y-93736011D01*
X193598816Y-93795000D01*
X193901184Y-93795000D01*
X194197743Y-93736011D01*
X194477095Y-93620299D01*
X194728505Y-93452312D01*
X194942312Y-93238505D01*
X195020000Y-93122237D01*
X195097688Y-93238505D01*
X195311495Y-93452312D01*
X195562905Y-93620299D01*
X195842257Y-93736011D01*
X196138816Y-93795000D01*
X196441184Y-93795000D01*
X196737743Y-93736011D01*
X197017095Y-93620299D01*
X197268505Y-93452312D01*
X197482312Y-93238505D01*
X197560000Y-93122237D01*
X197637688Y-93238505D01*
X197851495Y-93452312D01*
X198102905Y-93620299D01*
X198382257Y-93736011D01*
X198678816Y-93795000D01*
X198981184Y-93795000D01*
X199277743Y-93736011D01*
X199557095Y-93620299D01*
X199808505Y-93452312D01*
X200022312Y-93238505D01*
X200190299Y-92987095D01*
X200306011Y-92707743D01*
X200365000Y-92411184D01*
X200365000Y-92108816D01*
X200306011Y-91812257D01*
X200190299Y-91532905D01*
X200022312Y-91281495D01*
X199808505Y-91067688D01*
X199557095Y-90899701D01*
X199277743Y-90783989D01*
X198981184Y-90725000D01*
X198678816Y-90725000D01*
X198382257Y-90783989D01*
X198102905Y-90899701D01*
X197851495Y-91067688D01*
X197637688Y-91281495D01*
X197560000Y-91397763D01*
X197482312Y-91281495D01*
X197268505Y-91067688D01*
X197017095Y-90899701D01*
X196737743Y-90783989D01*
X196441184Y-90725000D01*
X196138816Y-90725000D01*
X195842257Y-90783989D01*
X195562905Y-90899701D01*
X195311495Y-91067688D01*
X195097688Y-91281495D01*
X195020000Y-91397763D01*
X194942312Y-91281495D01*
X194728505Y-91067688D01*
X194477095Y-90899701D01*
X194197743Y-90783989D01*
X193901184Y-90725000D01*
X193598816Y-90725000D01*
X193302257Y-90783989D01*
X193022905Y-90899701D01*
X192771495Y-91067688D01*
X192557688Y-91281495D01*
X192480000Y-91397763D01*
X192402312Y-91281495D01*
X192188505Y-91067688D01*
X191937095Y-90899701D01*
X191657743Y-90783989D01*
X191361184Y-90725000D01*
X191058816Y-90725000D01*
X190762257Y-90783989D01*
X190482905Y-90899701D01*
X190231495Y-91067688D01*
X190017688Y-91281495D01*
X189940000Y-91397763D01*
X189862312Y-91281495D01*
X189648505Y-91067688D01*
X189397095Y-90899701D01*
X189117743Y-90783989D01*
X188821184Y-90725000D01*
X188518816Y-90725000D01*
X188222257Y-90783989D01*
X187942905Y-90899701D01*
X187691495Y-91067688D01*
X187477688Y-91281495D01*
X187400000Y-91397763D01*
X187322312Y-91281495D01*
X187108505Y-91067688D01*
X187059584Y-91035000D01*
X187101939Y-91035000D01*
X187301898Y-90995226D01*
X187490256Y-90917205D01*
X187659774Y-90803937D01*
X187803937Y-90659774D01*
X187917205Y-90490256D01*
X187995226Y-90301898D01*
X188035000Y-90101939D01*
X188035000Y-89898061D01*
X187995226Y-89698102D01*
X187917205Y-89509744D01*
X187803937Y-89340226D01*
X187659774Y-89196063D01*
X187490256Y-89082795D01*
X187301898Y-89004774D01*
X187101939Y-88965000D01*
X187039802Y-88965000D01*
X181174999Y-83100198D01*
X181174999Y-82324856D01*
X181326544Y-82355000D01*
X181593456Y-82355000D01*
X181855239Y-82302928D01*
X182101833Y-82200785D01*
X182323762Y-82052497D01*
X182512497Y-81863762D01*
X182660785Y-81641833D01*
X182730000Y-81474734D01*
X182799215Y-81641833D01*
X182947503Y-81863762D01*
X183136238Y-82052497D01*
X183358167Y-82200785D01*
X183604761Y-82302928D01*
X183866544Y-82355000D01*
X184133456Y-82355000D01*
X184395239Y-82302928D01*
X184641833Y-82200785D01*
X184863762Y-82052497D01*
X185052497Y-81863762D01*
X185200785Y-81641833D01*
X185302928Y-81395239D01*
X185355000Y-81133456D01*
X185355000Y-80866544D01*
X185302928Y-80604761D01*
X185200785Y-80358167D01*
X185052497Y-80136238D01*
X184863762Y-79947503D01*
X184641833Y-79799215D01*
X184395239Y-79697072D01*
X184133456Y-79645000D01*
X183866544Y-79645000D01*
X183604761Y-79697072D01*
X183358167Y-79799215D01*
X183136238Y-79947503D01*
X182947503Y-80136238D01*
X182799215Y-80358167D01*
X182730000Y-80525266D01*
X182660785Y-80358167D01*
X182512497Y-80136238D01*
X182323762Y-79947503D01*
X182101833Y-79799215D01*
X181855239Y-79697072D01*
X181593456Y-79645000D01*
X181326544Y-79645000D01*
X181064761Y-79697072D01*
X180857659Y-79782857D01*
X175913769Y-74838967D01*
X182365000Y-74838967D01*
X182365000Y-75161033D01*
X182427832Y-75476912D01*
X182551082Y-75774463D01*
X182730013Y-76042252D01*
X182957748Y-76269987D01*
X183225537Y-76448918D01*
X183523088Y-76572168D01*
X183838967Y-76635000D01*
X184161033Y-76635000D01*
X184476912Y-76572168D01*
X184774463Y-76448918D01*
X185042252Y-76269987D01*
X185269987Y-76042252D01*
X185448918Y-75774463D01*
X185572168Y-75476912D01*
X185635000Y-75161033D01*
X185635000Y-74898061D01*
X186965000Y-74898061D01*
X186965000Y-75101939D01*
X187004774Y-75301898D01*
X187082795Y-75490256D01*
X187196063Y-75659774D01*
X187340226Y-75803937D01*
X187509744Y-75917205D01*
X187698102Y-75995226D01*
X187898061Y-76035000D01*
X188101939Y-76035000D01*
X188301898Y-75995226D01*
X188490256Y-75917205D01*
X188659774Y-75803937D01*
X188703711Y-75760000D01*
X192685199Y-75760000D01*
X195965000Y-79039802D01*
X195965000Y-79101939D01*
X196004774Y-79301898D01*
X196082795Y-79490256D01*
X196196063Y-79659774D01*
X196340226Y-79803937D01*
X196509744Y-79917205D01*
X196698102Y-79995226D01*
X196898061Y-80035000D01*
X197101939Y-80035000D01*
X197301898Y-79995226D01*
X197490256Y-79917205D01*
X197659774Y-79803937D01*
X197803937Y-79659774D01*
X197917205Y-79490256D01*
X197995226Y-79301898D01*
X198035000Y-79101939D01*
X198035000Y-78898061D01*
X197995226Y-78698102D01*
X197917205Y-78509744D01*
X197803937Y-78340226D01*
X197659774Y-78196063D01*
X197490256Y-78082795D01*
X197301898Y-78004774D01*
X197101939Y-77965000D01*
X197039802Y-77965000D01*
X193563804Y-74489003D01*
X193540001Y-74459999D01*
X193424276Y-74365026D01*
X193292247Y-74294454D01*
X193148986Y-74250997D01*
X193037333Y-74240000D01*
X193037322Y-74240000D01*
X193000000Y-74236324D01*
X192962678Y-74240000D01*
X188703711Y-74240000D01*
X188659774Y-74196063D01*
X188490256Y-74082795D01*
X188301898Y-74004774D01*
X188101939Y-73965000D01*
X187898061Y-73965000D01*
X187698102Y-74004774D01*
X187509744Y-74082795D01*
X187340226Y-74196063D01*
X187196063Y-74340226D01*
X187082795Y-74509744D01*
X187004774Y-74698102D01*
X186965000Y-74898061D01*
X185635000Y-74898061D01*
X185635000Y-74838967D01*
X185572168Y-74523088D01*
X185448918Y-74225537D01*
X185269987Y-73957748D01*
X185042252Y-73730013D01*
X184774463Y-73551082D01*
X184476912Y-73427832D01*
X184161033Y-73365000D01*
X183838967Y-73365000D01*
X183523088Y-73427832D01*
X183225537Y-73551082D01*
X182957748Y-73730013D01*
X182730013Y-73957748D01*
X182551082Y-74225537D01*
X182427832Y-74523088D01*
X182365000Y-74838967D01*
X175913769Y-74838967D01*
X175035000Y-73960199D01*
X175035000Y-73898061D01*
X174995226Y-73698102D01*
X174917205Y-73509744D01*
X174803937Y-73340226D01*
X174659774Y-73196063D01*
X174490256Y-73082795D01*
X174301898Y-73004774D01*
X174101939Y-72965000D01*
X173898061Y-72965000D01*
X173698102Y-73004774D01*
X173509744Y-73082795D01*
X173340226Y-73196063D01*
X173196063Y-73340226D01*
X173082795Y-73509744D01*
X173004774Y-73698102D01*
X172965000Y-73898061D01*
X172965000Y-74101939D01*
X173004774Y-74301898D01*
X173082795Y-74490256D01*
X173196063Y-74659774D01*
X173340226Y-74803937D01*
X173509744Y-74917205D01*
X173698102Y-74995226D01*
X173898061Y-75035000D01*
X173960199Y-75035000D01*
X178602990Y-79677792D01*
X178582499Y-79680937D01*
X178331647Y-79772125D01*
X178225932Y-79828632D01*
X178164045Y-80064440D01*
X178920000Y-80820395D01*
X178934143Y-80806253D01*
X179113748Y-80985858D01*
X179099605Y-81000000D01*
X179113748Y-81014143D01*
X178934143Y-81193748D01*
X178920000Y-81179605D01*
X178164045Y-81935560D01*
X178225932Y-82171368D01*
X178467790Y-82284266D01*
X178727027Y-82347811D01*
X178993680Y-82359561D01*
X179257501Y-82319063D01*
X179508353Y-82227875D01*
X179614068Y-82171368D01*
X179655000Y-82015407D01*
X179655000Y-83377667D01*
X179651323Y-83414999D01*
X179655000Y-83452332D01*
X179664700Y-83550811D01*
X179665997Y-83563984D01*
X179709453Y-83707245D01*
X179780025Y-83839275D01*
X179851200Y-83926001D01*
X179874999Y-83955000D01*
X179903997Y-83978798D01*
X185965000Y-90039802D01*
X185965000Y-90101939D01*
X186004774Y-90301898D01*
X186082795Y-90490256D01*
X186196063Y-90659774D01*
X186261289Y-90725000D01*
X185978816Y-90725000D01*
X185682257Y-90783989D01*
X185402905Y-90899701D01*
X185151495Y-91067688D01*
X184937688Y-91281495D01*
X184860000Y-91397763D01*
X184782312Y-91281495D01*
X184568505Y-91067688D01*
X184317095Y-90899701D01*
X184037743Y-90783989D01*
X183741184Y-90725000D01*
X183438816Y-90725000D01*
X183181070Y-90776269D01*
X179893804Y-87489003D01*
X179870001Y-87459999D01*
X179754276Y-87365026D01*
X179622247Y-87294454D01*
X179478986Y-87250997D01*
X179367333Y-87240000D01*
X179367322Y-87240000D01*
X179330000Y-87236324D01*
X179292678Y-87240000D01*
X160314802Y-87240000D01*
X160035000Y-86960199D01*
X160035000Y-86898061D01*
X159995226Y-86698102D01*
X159917205Y-86509744D01*
X159803937Y-86340226D01*
X159659774Y-86196063D01*
X159490256Y-86082795D01*
X159301898Y-86004774D01*
X159101939Y-85965000D01*
X158898061Y-85965000D01*
X158698102Y-86004774D01*
X158509744Y-86082795D01*
X158340226Y-86196063D01*
X158196063Y-86340226D01*
X158082795Y-86509744D01*
X158004774Y-86698102D01*
X157965000Y-86898061D01*
X157965000Y-87101939D01*
X158004774Y-87301898D01*
X158082795Y-87490256D01*
X158196063Y-87659774D01*
X158340226Y-87803937D01*
X158509744Y-87917205D01*
X158698102Y-87995226D01*
X158898061Y-88035000D01*
X158960199Y-88035000D01*
X159436200Y-88511002D01*
X159459999Y-88540001D01*
X159488997Y-88563799D01*
X159575724Y-88634974D01*
X159707753Y-88705546D01*
X159851014Y-88749003D01*
X160000000Y-88763677D01*
X160037333Y-88760000D01*
X179015199Y-88760000D01*
X180980198Y-90725000D01*
X180898816Y-90725000D01*
X180602257Y-90783989D01*
X180322905Y-90899701D01*
X180071495Y-91067688D01*
X179857688Y-91281495D01*
X179780000Y-91397763D01*
X179702312Y-91281495D01*
X179488505Y-91067688D01*
X179237095Y-90899701D01*
X178957743Y-90783989D01*
X178661184Y-90725000D01*
X178358816Y-90725000D01*
X178062257Y-90783989D01*
X177782905Y-90899701D01*
X177531495Y-91067688D01*
X177317688Y-91281495D01*
X177240000Y-91397763D01*
X177162312Y-91281495D01*
X176948505Y-91067688D01*
X176697095Y-90899701D01*
X176417743Y-90783989D01*
X176121184Y-90725000D01*
X175818816Y-90725000D01*
X175522257Y-90783989D01*
X175242905Y-90899701D01*
X174991495Y-91067688D01*
X174777688Y-91281495D01*
X174700000Y-91397763D01*
X174622312Y-91281495D01*
X174408505Y-91067688D01*
X174157095Y-90899701D01*
X173877743Y-90783989D01*
X173581184Y-90725000D01*
X173278816Y-90725000D01*
X172982257Y-90783989D01*
X172702905Y-90899701D01*
X172451495Y-91067688D01*
X172237688Y-91281495D01*
X172160000Y-91397763D01*
X172082312Y-91281495D01*
X171868505Y-91067688D01*
X171617095Y-90899701D01*
X171337743Y-90783989D01*
X171041184Y-90725000D01*
X170738816Y-90725000D01*
X170442257Y-90783989D01*
X170162905Y-90899701D01*
X169911495Y-91067688D01*
X169697688Y-91281495D01*
X169620000Y-91397763D01*
X169542312Y-91281495D01*
X169328505Y-91067688D01*
X169077095Y-90899701D01*
X168797743Y-90783989D01*
X168501184Y-90725000D01*
X168198816Y-90725000D01*
X167902257Y-90783989D01*
X167622905Y-90899701D01*
X167371495Y-91067688D01*
X167157688Y-91281495D01*
X167055049Y-91435105D01*
X166874080Y-91375525D01*
X165989605Y-92260000D01*
X166874080Y-93144475D01*
X167055049Y-93084895D01*
X167157688Y-93238505D01*
X167371495Y-93452312D01*
X167622905Y-93620299D01*
X167902257Y-93736011D01*
X168198816Y-93795000D01*
X168501184Y-93795000D01*
X168797743Y-93736011D01*
X169077095Y-93620299D01*
X169328505Y-93452312D01*
X169542312Y-93238505D01*
X169620000Y-93122237D01*
X169697688Y-93238505D01*
X169911495Y-93452312D01*
X170162905Y-93620299D01*
X170442257Y-93736011D01*
X170738816Y-93795000D01*
X171041184Y-93795000D01*
X171337743Y-93736011D01*
X171617095Y-93620299D01*
X171868505Y-93452312D01*
X172082312Y-93238505D01*
X172160000Y-93122237D01*
X172237688Y-93238505D01*
X172451495Y-93452312D01*
X172702905Y-93620299D01*
X172982257Y-93736011D01*
X173278816Y-93795000D01*
X173581184Y-93795000D01*
X173877743Y-93736011D01*
X174157095Y-93620299D01*
X174408505Y-93452312D01*
X174622312Y-93238505D01*
X174700000Y-93122237D01*
X174777688Y-93238505D01*
X174991495Y-93452312D01*
X175242905Y-93620299D01*
X175522257Y-93736011D01*
X175818816Y-93795000D01*
X176121184Y-93795000D01*
X176417743Y-93736011D01*
X176697095Y-93620299D01*
X176948505Y-93452312D01*
X177162312Y-93238505D01*
X177240000Y-93122237D01*
X177317688Y-93238505D01*
X177531495Y-93452312D01*
X177782905Y-93620299D01*
X178062257Y-93736011D01*
X178358816Y-93795000D01*
X178661184Y-93795000D01*
X178957743Y-93736011D01*
X179237095Y-93620299D01*
X179488505Y-93452312D01*
X179702312Y-93238505D01*
X179780000Y-93122237D01*
X179857688Y-93238505D01*
X180071495Y-93452312D01*
X180322905Y-93620299D01*
X180602257Y-93736011D01*
X180898816Y-93795000D01*
X181201184Y-93795000D01*
X181497743Y-93736011D01*
X181777095Y-93620299D01*
X182028505Y-93452312D01*
X182242312Y-93238505D01*
X182320000Y-93122237D01*
X182397688Y-93238505D01*
X182611495Y-93452312D01*
X182862905Y-93620299D01*
X183142257Y-93736011D01*
X183438816Y-93795000D01*
X183741184Y-93795000D01*
X184037743Y-93736011D01*
X184317095Y-93620299D01*
X184568505Y-93452312D01*
X184782312Y-93238505D01*
X184860000Y-93122237D01*
X184937688Y-93238505D01*
X185151495Y-93452312D01*
X185370000Y-93598313D01*
X185370001Y-99092668D01*
X185366324Y-99130000D01*
X185370001Y-99167333D01*
X185380998Y-99278986D01*
X185385690Y-99294454D01*
X185424454Y-99422246D01*
X185495026Y-99554276D01*
X185561254Y-99634974D01*
X185590000Y-99670001D01*
X185618998Y-99693799D01*
X191436200Y-105511002D01*
X191459999Y-105540001D01*
X191488997Y-105563799D01*
X191575724Y-105634974D01*
X191707753Y-105705546D01*
X191851014Y-105749003D01*
X192000000Y-105763677D01*
X192037333Y-105760000D01*
X197828201Y-105760000D01*
X198177149Y-106108948D01*
X198102905Y-106139701D01*
X197851495Y-106307688D01*
X197637688Y-106521495D01*
X197535049Y-106675105D01*
X197354080Y-106615525D01*
X196469605Y-107500000D01*
X197354080Y-108384475D01*
X197535049Y-108324895D01*
X197637688Y-108478505D01*
X197851495Y-108692312D01*
X198102905Y-108860299D01*
X198382257Y-108976011D01*
X198678816Y-109035000D01*
X198981184Y-109035000D01*
X199277743Y-108976011D01*
X199557095Y-108860299D01*
X199808505Y-108692312D01*
X200022312Y-108478505D01*
X200190299Y-108227095D01*
X200221052Y-108152852D01*
X200240000Y-108171800D01*
X200240001Y-114685197D01*
X188685199Y-126240000D01*
X112071433Y-126240000D01*
X112168325Y-126006081D01*
X112235000Y-125670883D01*
X112235000Y-125329117D01*
X112168325Y-124993919D01*
X112037537Y-124678169D01*
X111847663Y-124394002D01*
X111605998Y-124152337D01*
X111321831Y-123962463D01*
X111006081Y-123831675D01*
X110670883Y-123765000D01*
X110329117Y-123765000D01*
X109993919Y-123831675D01*
X109678169Y-123962463D01*
X109394002Y-124152337D01*
X109152337Y-124394002D01*
X108962463Y-124678169D01*
X108869178Y-124903379D01*
X108760000Y-124794201D01*
X108760000Y-121706712D01*
X109472893Y-121706712D01*
X109580726Y-121981338D01*
X109887384Y-122132216D01*
X110217585Y-122220369D01*
X110558639Y-122242409D01*
X110897439Y-122197489D01*
X111220966Y-122087336D01*
X111419274Y-121981338D01*
X111527107Y-121706712D01*
X110500000Y-120679605D01*
X109472893Y-121706712D01*
X108760000Y-121706712D01*
X108760000Y-120576808D01*
X108802511Y-120897439D01*
X108912664Y-121220966D01*
X109018662Y-121419274D01*
X109293288Y-121527107D01*
X110320395Y-120500000D01*
X110679605Y-120500000D01*
X111706712Y-121527107D01*
X111981338Y-121419274D01*
X112132216Y-121112616D01*
X112220369Y-120782415D01*
X112242409Y-120441361D01*
X112197489Y-120102561D01*
X112087336Y-119779034D01*
X111981338Y-119580726D01*
X111706712Y-119472893D01*
X110679605Y-120500000D01*
X110320395Y-120500000D01*
X109293288Y-119472893D01*
X109018662Y-119580726D01*
X108867784Y-119887384D01*
X108779631Y-120217585D01*
X108760000Y-120521361D01*
X108760000Y-119293288D01*
X109472893Y-119293288D01*
X110500000Y-120320395D01*
X111527107Y-119293288D01*
X111419274Y-119018662D01*
X111112616Y-118867784D01*
X110782415Y-118779631D01*
X110441361Y-118757591D01*
X110102561Y-118802511D01*
X109779034Y-118912664D01*
X109580726Y-119018662D01*
X109472893Y-119293288D01*
X108760000Y-119293288D01*
X108760000Y-115329117D01*
X108765000Y-115329117D01*
X108765000Y-115670883D01*
X108831675Y-116006081D01*
X108962463Y-116321831D01*
X109152337Y-116605998D01*
X109394002Y-116847663D01*
X109678169Y-117037537D01*
X109993919Y-117168325D01*
X110329117Y-117235000D01*
X110670883Y-117235000D01*
X111006081Y-117168325D01*
X111321831Y-117037537D01*
X111605998Y-116847663D01*
X111847663Y-116605998D01*
X112037537Y-116321831D01*
X112168325Y-116006081D01*
X112235000Y-115670883D01*
X112235000Y-115329117D01*
X112168325Y-114993919D01*
X112037537Y-114678169D01*
X111847663Y-114394002D01*
X111605998Y-114152337D01*
X111321831Y-113962463D01*
X111006081Y-113831675D01*
X110670883Y-113765000D01*
X110329117Y-113765000D01*
X109993919Y-113831675D01*
X109678169Y-113962463D01*
X109394002Y-114152337D01*
X109152337Y-114394002D01*
X108962463Y-114678169D01*
X108831675Y-114993919D01*
X108765000Y-115329117D01*
X108760000Y-115329117D01*
X108760000Y-110329117D01*
X108765000Y-110329117D01*
X108765000Y-110670883D01*
X108831675Y-111006081D01*
X108962463Y-111321831D01*
X109152337Y-111605998D01*
X109394002Y-111847663D01*
X109678169Y-112037537D01*
X109993919Y-112168325D01*
X110329117Y-112235000D01*
X110670883Y-112235000D01*
X111006081Y-112168325D01*
X111321831Y-112037537D01*
X111605998Y-111847663D01*
X111847663Y-111605998D01*
X112037537Y-111321831D01*
X112168325Y-111006081D01*
X112235000Y-110670883D01*
X112235000Y-110329117D01*
X112168325Y-109993919D01*
X112037537Y-109678169D01*
X111847663Y-109394002D01*
X111605998Y-109152337D01*
X111321831Y-108962463D01*
X111006081Y-108831675D01*
X110670883Y-108765000D01*
X110329117Y-108765000D01*
X109993919Y-108831675D01*
X109678169Y-108962463D01*
X109394002Y-109152337D01*
X109152337Y-109394002D01*
X108962463Y-109678169D01*
X108831675Y-109993919D01*
X108765000Y-110329117D01*
X108760000Y-110329117D01*
X108760000Y-105329117D01*
X108765000Y-105329117D01*
X108765000Y-105670883D01*
X108831675Y-106006081D01*
X108962463Y-106321831D01*
X109152337Y-106605998D01*
X109394002Y-106847663D01*
X109678169Y-107037537D01*
X109993919Y-107168325D01*
X110329117Y-107235000D01*
X110670883Y-107235000D01*
X111006081Y-107168325D01*
X111321831Y-107037537D01*
X111605998Y-106847663D01*
X111847663Y-106605998D01*
X112037537Y-106321831D01*
X112168325Y-106006081D01*
X112235000Y-105670883D01*
X112235000Y-105329117D01*
X112168325Y-104993919D01*
X112037537Y-104678169D01*
X111847663Y-104394002D01*
X111605998Y-104152337D01*
X111321831Y-103962463D01*
X111006081Y-103831675D01*
X110670883Y-103765000D01*
X110329117Y-103765000D01*
X109993919Y-103831675D01*
X109678169Y-103962463D01*
X109394002Y-104152337D01*
X109152337Y-104394002D01*
X108962463Y-104678169D01*
X108831675Y-104993919D01*
X108765000Y-105329117D01*
X108760000Y-105329117D01*
X108760000Y-103703711D01*
X108803937Y-103659774D01*
X108917205Y-103490256D01*
X108995226Y-103301898D01*
X109035000Y-103101939D01*
X109035000Y-102898061D01*
X108995226Y-102698102D01*
X108917205Y-102509744D01*
X108803937Y-102340226D01*
X108659774Y-102196063D01*
X108490256Y-102082795D01*
X108301898Y-102004774D01*
X108101939Y-101965000D01*
X107898061Y-101965000D01*
X107698102Y-102004774D01*
X107509744Y-102082795D01*
X107340226Y-102196063D01*
X107196063Y-102340226D01*
X107082795Y-102509744D01*
X107004774Y-102698102D01*
X106965000Y-102898061D01*
X106965000Y-103101939D01*
X107004774Y-103301898D01*
X107082795Y-103490256D01*
X107196063Y-103659774D01*
X107240001Y-103703712D01*
X107240000Y-124560394D01*
X95127000Y-112447394D01*
X95127000Y-101706712D01*
X109472893Y-101706712D01*
X109580726Y-101981338D01*
X109887384Y-102132216D01*
X110217585Y-102220369D01*
X110558639Y-102242409D01*
X110897439Y-102197489D01*
X111220966Y-102087336D01*
X111419274Y-101981338D01*
X111527107Y-101706712D01*
X110500000Y-100679605D01*
X109472893Y-101706712D01*
X95127000Y-101706712D01*
X95127000Y-100558639D01*
X108757591Y-100558639D01*
X108802511Y-100897439D01*
X108912664Y-101220966D01*
X109018662Y-101419274D01*
X109293288Y-101527107D01*
X110320395Y-100500000D01*
X110679605Y-100500000D01*
X111706712Y-101527107D01*
X111981338Y-101419274D01*
X112132216Y-101112616D01*
X112220369Y-100782415D01*
X112242409Y-100441361D01*
X112197489Y-100102561D01*
X112087336Y-99779034D01*
X111981338Y-99580726D01*
X111706712Y-99472893D01*
X110679605Y-100500000D01*
X110320395Y-100500000D01*
X109293288Y-99472893D01*
X109018662Y-99580726D01*
X108867784Y-99887384D01*
X108779631Y-100217585D01*
X108757591Y-100558639D01*
X95127000Y-100558639D01*
X95127000Y-99293288D01*
X109472893Y-99293288D01*
X110500000Y-100320395D01*
X111527107Y-99293288D01*
X111419274Y-99018662D01*
X111112616Y-98867784D01*
X110782415Y-98779631D01*
X110441361Y-98757591D01*
X110102561Y-98802511D01*
X109779034Y-98912664D01*
X109580726Y-99018662D01*
X109472893Y-99293288D01*
X95127000Y-99293288D01*
X95127000Y-87552606D01*
X99679606Y-83000000D01*
X102236324Y-83000000D01*
X102240001Y-83037332D01*
X102240000Y-93962678D01*
X102236324Y-94000000D01*
X102240000Y-94037322D01*
X102240000Y-94037332D01*
X102250997Y-94148985D01*
X102294454Y-94292246D01*
X102365026Y-94424276D01*
X102404871Y-94472826D01*
X102459999Y-94540001D01*
X102489003Y-94563804D01*
X105436200Y-97511002D01*
X105459998Y-97540000D01*
X105575723Y-97634973D01*
X105707752Y-97705545D01*
X105851013Y-97749002D01*
X105962666Y-97759999D01*
X105962675Y-97759999D01*
X105999998Y-97763675D01*
X106037321Y-97759999D01*
X125962679Y-97759999D01*
X126000001Y-97763675D01*
X126037323Y-97759999D01*
X126037334Y-97759999D01*
X126148987Y-97749002D01*
X126292248Y-97705545D01*
X126424277Y-97634973D01*
X126508279Y-97566034D01*
X126523088Y-97572168D01*
X126838967Y-97635000D01*
X127161033Y-97635000D01*
X127476912Y-97572168D01*
X127774463Y-97448918D01*
X128042252Y-97269987D01*
X128269987Y-97042252D01*
X128448918Y-96774463D01*
X128572168Y-96476912D01*
X128635000Y-96161033D01*
X128635000Y-95838967D01*
X128572168Y-95523088D01*
X128448918Y-95225537D01*
X128269987Y-94957748D01*
X128072239Y-94760000D01*
X129685199Y-94760000D01*
X130240001Y-95314803D01*
X130240000Y-96685198D01*
X129685199Y-97240000D01*
X129037322Y-97240000D01*
X128999999Y-97236324D01*
X128962676Y-97240000D01*
X128962667Y-97240000D01*
X128851014Y-97250997D01*
X128727223Y-97288548D01*
X128707753Y-97294454D01*
X128575723Y-97365026D01*
X128503526Y-97424277D01*
X128459999Y-97459999D01*
X128436201Y-97488997D01*
X126488998Y-99436201D01*
X126460000Y-99459999D01*
X126436202Y-99488997D01*
X126436201Y-99488998D01*
X126365026Y-99575724D01*
X126294454Y-99707754D01*
X126250998Y-99851015D01*
X126236324Y-100000000D01*
X126240001Y-100037332D01*
X126240000Y-101545091D01*
X126225537Y-101551082D01*
X125957748Y-101730013D01*
X125730013Y-101957748D01*
X125551082Y-102225537D01*
X125427832Y-102523088D01*
X125365000Y-102838967D01*
X125365000Y-103161033D01*
X125427832Y-103476912D01*
X125551082Y-103774463D01*
X125730013Y-104042252D01*
X125957748Y-104269987D01*
X126225537Y-104448918D01*
X126523088Y-104572168D01*
X126838967Y-104635000D01*
X127161033Y-104635000D01*
X127476912Y-104572168D01*
X127774463Y-104448918D01*
X128042252Y-104269987D01*
X128269987Y-104042252D01*
X128448918Y-103774463D01*
X128572168Y-103476912D01*
X128635000Y-103161033D01*
X128635000Y-102838967D01*
X128572168Y-102523088D01*
X128448918Y-102225537D01*
X128269987Y-101957748D01*
X128042252Y-101730013D01*
X127774463Y-101551082D01*
X127760000Y-101545091D01*
X127760000Y-100314801D01*
X129314802Y-98760000D01*
X129962678Y-98760000D01*
X130000000Y-98763676D01*
X130037322Y-98760000D01*
X130037333Y-98760000D01*
X130148986Y-98749003D01*
X130292247Y-98705546D01*
X130424276Y-98634974D01*
X130540001Y-98540001D01*
X130563804Y-98510998D01*
X131511004Y-97563798D01*
X131540001Y-97540001D01*
X131634974Y-97424276D01*
X131705546Y-97292247D01*
X131749003Y-97148986D01*
X131760000Y-97037333D01*
X131760000Y-97037332D01*
X131763677Y-97000000D01*
X131760000Y-96962667D01*
X131760000Y-95037333D01*
X131763677Y-95000000D01*
X131759516Y-94957748D01*
X131749003Y-94851014D01*
X131705546Y-94707753D01*
X131634974Y-94575724D01*
X131540001Y-94459999D01*
X131511003Y-94436201D01*
X130563804Y-93489002D01*
X130540001Y-93459999D01*
X130424276Y-93365026D01*
X130292247Y-93294454D01*
X130148986Y-93250997D01*
X130037333Y-93240000D01*
X130037322Y-93240000D01*
X130000000Y-93236324D01*
X129962678Y-93240000D01*
X110205800Y-93240000D01*
X107760000Y-90794201D01*
X107760000Y-90329117D01*
X108765000Y-90329117D01*
X108765000Y-90670883D01*
X108831675Y-91006081D01*
X108962463Y-91321831D01*
X109152337Y-91605998D01*
X109394002Y-91847663D01*
X109678169Y-92037537D01*
X109993919Y-92168325D01*
X110329117Y-92235000D01*
X110670883Y-92235000D01*
X111006081Y-92168325D01*
X111321831Y-92037537D01*
X111605998Y-91847663D01*
X111847663Y-91605998D01*
X112037537Y-91321831D01*
X112168325Y-91006081D01*
X112235000Y-90670883D01*
X112235000Y-90329117D01*
X112168325Y-89993919D01*
X112037537Y-89678169D01*
X111847663Y-89394002D01*
X111605998Y-89152337D01*
X111321831Y-88962463D01*
X111006081Y-88831675D01*
X110670883Y-88765000D01*
X110329117Y-88765000D01*
X109993919Y-88831675D01*
X109678169Y-88962463D01*
X109394002Y-89152337D01*
X109152337Y-89394002D01*
X108962463Y-89678169D01*
X108831675Y-89993919D01*
X108765000Y-90329117D01*
X107760000Y-90329117D01*
X107760000Y-87898061D01*
X131965000Y-87898061D01*
X131965000Y-88101939D01*
X132004774Y-88301898D01*
X132082795Y-88490256D01*
X132196063Y-88659774D01*
X132340226Y-88803937D01*
X132509744Y-88917205D01*
X132698102Y-88995226D01*
X132898061Y-89035000D01*
X132960199Y-89035000D01*
X139240000Y-95314802D01*
X139240001Y-98296288D01*
X139196063Y-98340226D01*
X139082795Y-98509744D01*
X139004774Y-98698102D01*
X138965000Y-98898061D01*
X138965000Y-99101939D01*
X139004774Y-99301898D01*
X139082795Y-99490256D01*
X139196063Y-99659774D01*
X139340226Y-99803937D01*
X139509744Y-99917205D01*
X139698102Y-99995226D01*
X139898061Y-100035000D01*
X140101939Y-100035000D01*
X140301898Y-99995226D01*
X140490256Y-99917205D01*
X140659774Y-99803937D01*
X140803937Y-99659774D01*
X140917205Y-99490256D01*
X140995226Y-99301898D01*
X141035000Y-99101939D01*
X141035000Y-98898061D01*
X140995226Y-98698102D01*
X140917205Y-98509744D01*
X140803937Y-98340226D01*
X140760000Y-98296289D01*
X140760000Y-95037323D01*
X140763676Y-95000000D01*
X140760000Y-94962677D01*
X140760000Y-94962667D01*
X140749003Y-94851014D01*
X140705546Y-94707753D01*
X140674043Y-94648816D01*
X140634974Y-94575723D01*
X140563799Y-94488997D01*
X140540001Y-94459999D01*
X140511004Y-94436202D01*
X134035000Y-87960199D01*
X134035000Y-87898061D01*
X133995226Y-87698102D01*
X133917205Y-87509744D01*
X133803937Y-87340226D01*
X133659774Y-87196063D01*
X133490256Y-87082795D01*
X133301898Y-87004774D01*
X133101939Y-86965000D01*
X132898061Y-86965000D01*
X132698102Y-87004774D01*
X132509744Y-87082795D01*
X132340226Y-87196063D01*
X132196063Y-87340226D01*
X132082795Y-87509744D01*
X132004774Y-87698102D01*
X131965000Y-87898061D01*
X107760000Y-87898061D01*
X107760000Y-86706712D01*
X109472893Y-86706712D01*
X109580726Y-86981338D01*
X109887384Y-87132216D01*
X110217585Y-87220369D01*
X110558639Y-87242409D01*
X110897439Y-87197489D01*
X111220966Y-87087336D01*
X111419274Y-86981338D01*
X111527107Y-86706712D01*
X110500000Y-85679605D01*
X109472893Y-86706712D01*
X107760000Y-86706712D01*
X107760000Y-85558639D01*
X108757591Y-85558639D01*
X108802511Y-85897439D01*
X108912664Y-86220966D01*
X109018662Y-86419274D01*
X109293288Y-86527107D01*
X110320395Y-85500000D01*
X110679605Y-85500000D01*
X111706712Y-86527107D01*
X111981338Y-86419274D01*
X112132216Y-86112616D01*
X112220369Y-85782415D01*
X112242409Y-85441361D01*
X112197489Y-85102561D01*
X112087336Y-84779034D01*
X111981338Y-84580726D01*
X111706712Y-84472893D01*
X110679605Y-85500000D01*
X110320395Y-85500000D01*
X109293288Y-84472893D01*
X109018662Y-84580726D01*
X108867784Y-84887384D01*
X108779631Y-85217585D01*
X108757591Y-85558639D01*
X107760000Y-85558639D01*
X107760000Y-84314801D01*
X107781513Y-84293288D01*
X109472893Y-84293288D01*
X110500000Y-85320395D01*
X111527107Y-84293288D01*
X111419274Y-84018662D01*
X111112616Y-83867784D01*
X110782415Y-83779631D01*
X110441361Y-83757591D01*
X110102561Y-83802511D01*
X109779034Y-83912664D01*
X109580726Y-84018662D01*
X109472893Y-84293288D01*
X107781513Y-84293288D01*
X109932088Y-82142714D01*
X109993919Y-82168325D01*
X110329117Y-82235000D01*
X110670883Y-82235000D01*
X111006081Y-82168325D01*
X111321831Y-82037537D01*
X111605998Y-81847663D01*
X111847663Y-81605998D01*
X112037537Y-81321831D01*
X112168325Y-81006081D01*
X112235000Y-80670883D01*
X112235000Y-80398061D01*
X139465000Y-80398061D01*
X139465000Y-80601939D01*
X139504774Y-80801898D01*
X139582795Y-80990256D01*
X139696063Y-81159774D01*
X139751013Y-81214724D01*
X139794454Y-81357932D01*
X139814396Y-81395239D01*
X139865026Y-81489961D01*
X139936201Y-81576687D01*
X139960000Y-81605686D01*
X139988998Y-81629484D01*
X142007154Y-83647640D01*
X141959820Y-83694974D01*
X141846552Y-83864492D01*
X141768531Y-84052850D01*
X141728757Y-84252809D01*
X141728757Y-84456687D01*
X141768531Y-84656646D01*
X141846552Y-84845004D01*
X141959820Y-85014522D01*
X142103983Y-85158685D01*
X142273501Y-85271953D01*
X142461859Y-85349974D01*
X142661818Y-85389748D01*
X142723956Y-85389748D01*
X144240000Y-86905793D01*
X144240001Y-89296288D01*
X144196063Y-89340226D01*
X144082795Y-89509744D01*
X144004774Y-89698102D01*
X143965000Y-89898061D01*
X143965000Y-90101939D01*
X144004774Y-90301898D01*
X144082795Y-90490256D01*
X144196063Y-90659774D01*
X144340226Y-90803937D01*
X144509744Y-90917205D01*
X144698102Y-90995226D01*
X144898061Y-91035000D01*
X145101939Y-91035000D01*
X145301898Y-90995226D01*
X145490256Y-90917205D01*
X145659774Y-90803937D01*
X145803937Y-90659774D01*
X145917205Y-90490256D01*
X145995226Y-90301898D01*
X146035000Y-90101939D01*
X146035000Y-89898061D01*
X145995226Y-89698102D01*
X145917205Y-89509744D01*
X145803937Y-89340226D01*
X145760000Y-89296289D01*
X145760000Y-87400486D01*
X155408404Y-97048890D01*
X155301898Y-97004774D01*
X155101939Y-96965000D01*
X154898061Y-96965000D01*
X154698102Y-97004774D01*
X154509744Y-97082795D01*
X154340226Y-97196063D01*
X154196063Y-97340226D01*
X154082795Y-97509744D01*
X154004774Y-97698102D01*
X153965000Y-97898061D01*
X153965000Y-98101939D01*
X154004774Y-98301898D01*
X154082795Y-98490256D01*
X154196063Y-98659774D01*
X154230743Y-98694454D01*
X147491376Y-105433823D01*
X147476912Y-105427832D01*
X147161033Y-105365000D01*
X146838967Y-105365000D01*
X146523088Y-105427832D01*
X146225537Y-105551082D01*
X145957748Y-105730013D01*
X145730013Y-105957748D01*
X145551082Y-106225537D01*
X145427832Y-106523088D01*
X145365000Y-106838967D01*
X145365000Y-107161033D01*
X145427832Y-107476912D01*
X145551082Y-107774463D01*
X145730013Y-108042252D01*
X145957748Y-108269987D01*
X146225537Y-108448918D01*
X146523088Y-108572168D01*
X146838967Y-108635000D01*
X147161033Y-108635000D01*
X147476912Y-108572168D01*
X147774463Y-108448918D01*
X148042252Y-108269987D01*
X148269987Y-108042252D01*
X148448918Y-107774463D01*
X148572168Y-107476912D01*
X148635000Y-107161033D01*
X148635000Y-106838967D01*
X148572168Y-106523088D01*
X148566177Y-106508624D01*
X155511009Y-99563794D01*
X155540001Y-99540001D01*
X155563795Y-99511008D01*
X155563799Y-99511004D01*
X155634973Y-99424277D01*
X155634974Y-99424276D01*
X155705546Y-99292247D01*
X155749003Y-99148986D01*
X155760000Y-99037333D01*
X155760000Y-99037324D01*
X155763676Y-99000001D01*
X155760000Y-98962678D01*
X155760000Y-98703711D01*
X155803937Y-98659774D01*
X155917205Y-98490256D01*
X155995226Y-98301898D01*
X156035000Y-98101939D01*
X156035000Y-97898061D01*
X155995226Y-97698102D01*
X155951110Y-97591596D01*
X161290516Y-102931003D01*
X161314314Y-102960001D01*
X161332589Y-102974999D01*
X157302326Y-102974999D01*
X157265001Y-102971323D01*
X157227676Y-102974999D01*
X157227668Y-102974999D01*
X157116015Y-102985996D01*
X156972754Y-103029453D01*
X156840725Y-103100025D01*
X156725000Y-103194998D01*
X156701202Y-103223996D01*
X154491376Y-105433823D01*
X154476912Y-105427832D01*
X154161033Y-105365000D01*
X153838967Y-105365000D01*
X153523088Y-105427832D01*
X153225537Y-105551082D01*
X152957748Y-105730013D01*
X152730013Y-105957748D01*
X152551082Y-106225537D01*
X152427832Y-106523088D01*
X152365000Y-106838967D01*
X152365000Y-107161033D01*
X152427832Y-107476912D01*
X152551082Y-107774463D01*
X152730013Y-108042252D01*
X152957748Y-108269987D01*
X153225537Y-108448918D01*
X153523088Y-108572168D01*
X153838967Y-108635000D01*
X154161033Y-108635000D01*
X154476912Y-108572168D01*
X154774463Y-108448918D01*
X155042252Y-108269987D01*
X155269987Y-108042252D01*
X155448918Y-107774463D01*
X155572168Y-107476912D01*
X155635000Y-107161033D01*
X155635000Y-106838967D01*
X155572168Y-106523088D01*
X155566177Y-106508624D01*
X157579803Y-104494999D01*
X164341138Y-104494999D01*
X164333989Y-104512257D01*
X164275000Y-104808816D01*
X164275000Y-105111184D01*
X164333989Y-105407743D01*
X164449701Y-105687095D01*
X164538909Y-105820604D01*
X159488998Y-110870516D01*
X159460000Y-110894314D01*
X159436202Y-110923312D01*
X159436201Y-110923313D01*
X159365026Y-111010039D01*
X159326137Y-111082795D01*
X159294454Y-111142068D01*
X159251013Y-111285276D01*
X159196063Y-111340226D01*
X159082795Y-111509744D01*
X159004774Y-111698102D01*
X158965000Y-111898061D01*
X158965000Y-112101939D01*
X159004774Y-112301898D01*
X159082795Y-112490256D01*
X159196063Y-112659774D01*
X159340226Y-112803937D01*
X159509744Y-112917205D01*
X159698102Y-112995226D01*
X159898061Y-113035000D01*
X160101939Y-113035000D01*
X160301898Y-112995226D01*
X160490256Y-112917205D01*
X160659774Y-112803937D01*
X160803937Y-112659774D01*
X160917205Y-112490256D01*
X160995226Y-112301898D01*
X161035000Y-112101939D01*
X161035000Y-111898061D01*
X160995226Y-111698102D01*
X160941271Y-111567845D01*
X164400589Y-108108528D01*
X164449701Y-108227095D01*
X164617688Y-108478505D01*
X164831495Y-108692312D01*
X165082905Y-108860299D01*
X165157148Y-108891052D01*
X159808201Y-114240000D01*
X158703711Y-114240000D01*
X158659774Y-114196063D01*
X158490256Y-114082795D01*
X158301898Y-114004774D01*
X158101939Y-113965000D01*
X157898061Y-113965000D01*
X157698102Y-114004774D01*
X157509744Y-114082795D01*
X157340226Y-114196063D01*
X157196063Y-114340226D01*
X157082795Y-114509744D01*
X157004774Y-114698102D01*
X156965000Y-114898061D01*
X156965000Y-115101939D01*
X157004774Y-115301898D01*
X157082795Y-115490256D01*
X157196063Y-115659774D01*
X157340226Y-115803937D01*
X157509744Y-115917205D01*
X157698102Y-115995226D01*
X157898061Y-116035000D01*
X158101939Y-116035000D01*
X158301898Y-115995226D01*
X158490256Y-115917205D01*
X158659774Y-115803937D01*
X158703711Y-115760000D01*
X160085680Y-115760000D01*
X160123002Y-115763676D01*
X160160324Y-115760000D01*
X160160335Y-115760000D01*
X160271988Y-115749003D01*
X160415249Y-115705546D01*
X160547278Y-115634974D01*
X160663003Y-115540001D01*
X160686806Y-115510997D01*
X167451820Y-108745984D01*
X167622905Y-108860299D01*
X167902257Y-108976011D01*
X168198816Y-109035000D01*
X168501184Y-109035000D01*
X168797743Y-108976011D01*
X169077095Y-108860299D01*
X169328505Y-108692312D01*
X169542312Y-108478505D01*
X169620000Y-108362237D01*
X169697688Y-108478505D01*
X169911495Y-108692312D01*
X170162905Y-108860299D01*
X170442257Y-108976011D01*
X170738816Y-109035000D01*
X171041184Y-109035000D01*
X171337743Y-108976011D01*
X171617095Y-108860299D01*
X171868505Y-108692312D01*
X172082312Y-108478505D01*
X172160000Y-108362237D01*
X172237688Y-108478505D01*
X172451495Y-108692312D01*
X172702905Y-108860299D01*
X172982257Y-108976011D01*
X173278816Y-109035000D01*
X173581184Y-109035000D01*
X173877743Y-108976011D01*
X174157095Y-108860299D01*
X174408505Y-108692312D01*
X174622312Y-108478505D01*
X174700000Y-108362237D01*
X174777688Y-108478505D01*
X174991495Y-108692312D01*
X175242905Y-108860299D01*
X175522257Y-108976011D01*
X175818816Y-109035000D01*
X176121184Y-109035000D01*
X176417743Y-108976011D01*
X176697095Y-108860299D01*
X176948505Y-108692312D01*
X177162312Y-108478505D01*
X177240000Y-108362237D01*
X177317688Y-108478505D01*
X177531495Y-108692312D01*
X177782905Y-108860299D01*
X178062257Y-108976011D01*
X178358816Y-109035000D01*
X178661184Y-109035000D01*
X178957743Y-108976011D01*
X179237095Y-108860299D01*
X179488505Y-108692312D01*
X179702312Y-108478505D01*
X179780000Y-108362237D01*
X179857688Y-108478505D01*
X180071495Y-108692312D01*
X180322905Y-108860299D01*
X180602257Y-108976011D01*
X180898816Y-109035000D01*
X181201184Y-109035000D01*
X181497743Y-108976011D01*
X181777095Y-108860299D01*
X182028505Y-108692312D01*
X182242312Y-108478505D01*
X182320000Y-108362237D01*
X182397688Y-108478505D01*
X182611495Y-108692312D01*
X182862905Y-108860299D01*
X183142257Y-108976011D01*
X183438816Y-109035000D01*
X183741184Y-109035000D01*
X184037743Y-108976011D01*
X184317095Y-108860299D01*
X184568505Y-108692312D01*
X184782312Y-108478505D01*
X184860000Y-108362237D01*
X184937688Y-108478505D01*
X185151495Y-108692312D01*
X185402905Y-108860299D01*
X185682257Y-108976011D01*
X185978816Y-109035000D01*
X186281184Y-109035000D01*
X186577743Y-108976011D01*
X186857095Y-108860299D01*
X187108505Y-108692312D01*
X187322312Y-108478505D01*
X187400000Y-108362237D01*
X187477688Y-108478505D01*
X187691495Y-108692312D01*
X187942905Y-108860299D01*
X188222257Y-108976011D01*
X188518816Y-109035000D01*
X188821184Y-109035000D01*
X189117743Y-108976011D01*
X189397095Y-108860299D01*
X189648505Y-108692312D01*
X189862312Y-108478505D01*
X189940000Y-108362237D01*
X190017688Y-108478505D01*
X190231495Y-108692312D01*
X190482905Y-108860299D01*
X190762257Y-108976011D01*
X191058816Y-109035000D01*
X191361184Y-109035000D01*
X191657743Y-108976011D01*
X191937095Y-108860299D01*
X192188505Y-108692312D01*
X192402312Y-108478505D01*
X192480000Y-108362237D01*
X192557688Y-108478505D01*
X192771495Y-108692312D01*
X193022905Y-108860299D01*
X193302257Y-108976011D01*
X193598816Y-109035000D01*
X193901184Y-109035000D01*
X194197743Y-108976011D01*
X194477095Y-108860299D01*
X194728505Y-108692312D01*
X194856737Y-108564080D01*
X195405525Y-108564080D01*
X195489208Y-108818261D01*
X195761775Y-108949158D01*
X196054642Y-109024365D01*
X196356553Y-109040991D01*
X196655907Y-108998397D01*
X196941199Y-108898222D01*
X197090792Y-108818261D01*
X197174475Y-108564080D01*
X196290000Y-107679605D01*
X195405525Y-108564080D01*
X194856737Y-108564080D01*
X194942312Y-108478505D01*
X195044951Y-108324895D01*
X195225920Y-108384475D01*
X196110395Y-107500000D01*
X195225920Y-106615525D01*
X195044951Y-106675105D01*
X194942312Y-106521495D01*
X194856737Y-106435920D01*
X195405525Y-106435920D01*
X196290000Y-107320395D01*
X197174475Y-106435920D01*
X197090792Y-106181739D01*
X196818225Y-106050842D01*
X196525358Y-105975635D01*
X196223447Y-105959009D01*
X195924093Y-106001603D01*
X195638801Y-106101778D01*
X195489208Y-106181739D01*
X195405525Y-106435920D01*
X194856737Y-106435920D01*
X194728505Y-106307688D01*
X194477095Y-106139701D01*
X194197743Y-106023989D01*
X193901184Y-105965000D01*
X193598816Y-105965000D01*
X193302257Y-106023989D01*
X193022905Y-106139701D01*
X192771495Y-106307688D01*
X192557688Y-106521495D01*
X192480000Y-106637763D01*
X192402312Y-106521495D01*
X192188505Y-106307688D01*
X191937095Y-106139701D01*
X191657743Y-106023989D01*
X191361184Y-105965000D01*
X191058816Y-105965000D01*
X190762257Y-106023989D01*
X190482905Y-106139701D01*
X190231495Y-106307688D01*
X190017688Y-106521495D01*
X189940000Y-106637763D01*
X189862312Y-106521495D01*
X189648505Y-106307688D01*
X189397095Y-106139701D01*
X189117743Y-106023989D01*
X188821184Y-105965000D01*
X188518816Y-105965000D01*
X188222257Y-106023989D01*
X187942905Y-106139701D01*
X187691495Y-106307688D01*
X187477688Y-106521495D01*
X187400000Y-106637763D01*
X187322312Y-106521495D01*
X187108505Y-106307688D01*
X186857095Y-106139701D01*
X186577743Y-106023989D01*
X186281184Y-105965000D01*
X185978816Y-105965000D01*
X185682257Y-106023989D01*
X185402905Y-106139701D01*
X185151495Y-106307688D01*
X184937688Y-106521495D01*
X184860000Y-106637763D01*
X184782312Y-106521495D01*
X184568505Y-106307688D01*
X184317095Y-106139701D01*
X184037743Y-106023989D01*
X183741184Y-105965000D01*
X183438816Y-105965000D01*
X183142257Y-106023989D01*
X182862905Y-106139701D01*
X182611495Y-106307688D01*
X182397688Y-106521495D01*
X182320000Y-106637763D01*
X182242312Y-106521495D01*
X182028505Y-106307688D01*
X181777095Y-106139701D01*
X181497743Y-106023989D01*
X181201184Y-105965000D01*
X180898816Y-105965000D01*
X180602257Y-106023989D01*
X180322905Y-106139701D01*
X180071495Y-106307688D01*
X179857688Y-106521495D01*
X179780000Y-106637763D01*
X179702312Y-106521495D01*
X179488505Y-106307688D01*
X179237095Y-106139701D01*
X178957743Y-106023989D01*
X178661184Y-105965000D01*
X178358816Y-105965000D01*
X178062257Y-106023989D01*
X178042719Y-106032082D01*
X184039802Y-100035000D01*
X184101939Y-100035000D01*
X184301898Y-99995226D01*
X184490256Y-99917205D01*
X184659774Y-99803937D01*
X184803937Y-99659774D01*
X184917205Y-99490256D01*
X184995226Y-99301898D01*
X185035000Y-99101939D01*
X185035000Y-98898061D01*
X184995226Y-98698102D01*
X184917205Y-98509744D01*
X184803937Y-98340226D01*
X184659774Y-98196063D01*
X184490256Y-98082795D01*
X184301898Y-98004774D01*
X184101939Y-97965000D01*
X183898061Y-97965000D01*
X183698102Y-98004774D01*
X183509744Y-98082795D01*
X183340226Y-98196063D01*
X183196063Y-98340226D01*
X183082795Y-98509744D01*
X183004774Y-98698102D01*
X182965000Y-98898061D01*
X182965000Y-98960198D01*
X176960198Y-104965001D01*
X171109800Y-104965001D01*
X178511009Y-97563794D01*
X178540001Y-97540001D01*
X178563795Y-97511008D01*
X178563799Y-97511004D01*
X178634973Y-97424277D01*
X178634974Y-97424276D01*
X178705546Y-97292247D01*
X178749003Y-97148986D01*
X178760000Y-97037333D01*
X178760000Y-97037324D01*
X178763676Y-97000001D01*
X178760000Y-96962678D01*
X178760000Y-95703711D01*
X178803937Y-95659774D01*
X178917205Y-95490256D01*
X178995226Y-95301898D01*
X179035000Y-95101939D01*
X179035000Y-94898061D01*
X178995226Y-94698102D01*
X178917205Y-94509744D01*
X178803937Y-94340226D01*
X178659774Y-94196063D01*
X178490256Y-94082795D01*
X178301898Y-94004774D01*
X178101939Y-93965000D01*
X177898061Y-93965000D01*
X177698102Y-94004774D01*
X177509744Y-94082795D01*
X177340226Y-94196063D01*
X177196063Y-94340226D01*
X177082795Y-94509744D01*
X177004774Y-94698102D01*
X177000000Y-94722103D01*
X176995226Y-94698102D01*
X176917205Y-94509744D01*
X176803937Y-94340226D01*
X176659774Y-94196063D01*
X176490256Y-94082795D01*
X176301898Y-94004774D01*
X176101939Y-93965000D01*
X175898061Y-93965000D01*
X175698102Y-94004774D01*
X175509744Y-94082795D01*
X175340226Y-94196063D01*
X175196063Y-94340226D01*
X175082795Y-94509744D01*
X175004774Y-94698102D01*
X174965000Y-94898061D01*
X174965000Y-95101939D01*
X175004774Y-95301898D01*
X175082795Y-95490256D01*
X175196063Y-95659774D01*
X175240001Y-95703712D01*
X175240000Y-96268200D01*
X167201052Y-104307149D01*
X167170299Y-104232905D01*
X167038759Y-104036042D01*
X168039802Y-103035000D01*
X168101939Y-103035000D01*
X168301898Y-102995226D01*
X168490256Y-102917205D01*
X168659774Y-102803937D01*
X168803937Y-102659774D01*
X168917205Y-102490256D01*
X168995226Y-102301898D01*
X169035000Y-102101939D01*
X169035000Y-101898061D01*
X168995226Y-101698102D01*
X168917205Y-101509744D01*
X168803937Y-101340226D01*
X168659774Y-101196063D01*
X168490256Y-101082795D01*
X168301898Y-101004774D01*
X168101939Y-100965000D01*
X167898061Y-100965000D01*
X167698102Y-101004774D01*
X167509744Y-101082795D01*
X167340226Y-101196063D01*
X167196063Y-101340226D01*
X167082795Y-101509744D01*
X167069447Y-101541969D01*
X167002312Y-101441495D01*
X166788505Y-101227688D01*
X166672237Y-101150000D01*
X166788505Y-101072312D01*
X167002312Y-100858505D01*
X167170299Y-100607095D01*
X167286011Y-100327743D01*
X167345000Y-100031184D01*
X167345000Y-99728816D01*
X167286011Y-99432257D01*
X167170299Y-99152905D01*
X167002312Y-98901495D01*
X166788505Y-98687688D01*
X166634895Y-98585049D01*
X166694475Y-98404080D01*
X165810000Y-97519605D01*
X164925525Y-98404080D01*
X164985105Y-98585049D01*
X164831495Y-98687688D01*
X164617688Y-98901495D01*
X164449701Y-99152905D01*
X164333989Y-99432257D01*
X164275000Y-99728816D01*
X164275000Y-100031184D01*
X164333989Y-100327743D01*
X164449701Y-100607095D01*
X164617688Y-100858505D01*
X164831495Y-101072312D01*
X164947763Y-101150000D01*
X164831495Y-101227688D01*
X164617688Y-101441495D01*
X164471687Y-101660000D01*
X162169117Y-101660000D01*
X157915670Y-97406553D01*
X164269009Y-97406553D01*
X164311603Y-97705907D01*
X164411778Y-97991199D01*
X164491739Y-98140792D01*
X164745920Y-98224475D01*
X165630395Y-97340000D01*
X165989605Y-97340000D01*
X166874080Y-98224475D01*
X167128261Y-98140792D01*
X167259158Y-97868225D01*
X167334365Y-97575358D01*
X167350991Y-97273447D01*
X167308397Y-96974093D01*
X167208222Y-96688801D01*
X167128261Y-96539208D01*
X166874080Y-96455525D01*
X165989605Y-97340000D01*
X165630395Y-97340000D01*
X164745920Y-96455525D01*
X164491739Y-96539208D01*
X164360842Y-96811775D01*
X164285635Y-97104642D01*
X164269009Y-97406553D01*
X157915670Y-97406553D01*
X157445048Y-96935931D01*
X157490256Y-96917205D01*
X157659774Y-96803937D01*
X157803937Y-96659774D01*
X157917205Y-96490256D01*
X157995226Y-96301898D01*
X158035000Y-96101939D01*
X158035000Y-96039801D01*
X159425985Y-94648816D01*
X164275000Y-94648816D01*
X164275000Y-94951184D01*
X164333989Y-95247743D01*
X164449701Y-95527095D01*
X164617688Y-95778505D01*
X164831495Y-95992312D01*
X164985105Y-96094951D01*
X164925525Y-96275920D01*
X165810000Y-97160395D01*
X166694475Y-96275920D01*
X166634895Y-96094951D01*
X166788505Y-95992312D01*
X167002312Y-95778505D01*
X167170299Y-95527095D01*
X167286011Y-95247743D01*
X167345000Y-94951184D01*
X167345000Y-94648816D01*
X167286011Y-94352257D01*
X167170299Y-94072905D01*
X167002312Y-93821495D01*
X166788505Y-93607688D01*
X166634895Y-93505049D01*
X166694475Y-93324080D01*
X165810000Y-92439605D01*
X164925525Y-93324080D01*
X164985105Y-93505049D01*
X164831495Y-93607688D01*
X164617688Y-93821495D01*
X164449701Y-94072905D01*
X164333989Y-94352257D01*
X164275000Y-94648816D01*
X159425985Y-94648816D01*
X159511004Y-94563798D01*
X159540001Y-94540001D01*
X159632056Y-94427832D01*
X159634974Y-94424277D01*
X159705546Y-94292247D01*
X159722510Y-94236323D01*
X159749003Y-94148986D01*
X159760000Y-94037333D01*
X159760000Y-94037324D01*
X159763676Y-94000001D01*
X159760000Y-93962678D01*
X159760000Y-92326553D01*
X164269009Y-92326553D01*
X164311603Y-92625907D01*
X164411778Y-92911199D01*
X164491739Y-93060792D01*
X164745920Y-93144475D01*
X165630395Y-92260000D01*
X164745920Y-91375525D01*
X164491739Y-91459208D01*
X164360842Y-91731775D01*
X164285635Y-92024642D01*
X164269009Y-92326553D01*
X159760000Y-92326553D01*
X159760000Y-91195920D01*
X164925525Y-91195920D01*
X165810000Y-92080395D01*
X166694475Y-91195920D01*
X166610792Y-90941739D01*
X166338225Y-90810842D01*
X166045358Y-90735635D01*
X165743447Y-90719009D01*
X165444093Y-90761603D01*
X165158801Y-90861778D01*
X165009208Y-90941739D01*
X164925525Y-91195920D01*
X159760000Y-91195920D01*
X159760000Y-90703711D01*
X159803937Y-90659774D01*
X159917205Y-90490256D01*
X159995226Y-90301898D01*
X160035000Y-90101939D01*
X160035000Y-89898061D01*
X159995226Y-89698102D01*
X159917205Y-89509744D01*
X159803937Y-89340226D01*
X159659774Y-89196063D01*
X159490256Y-89082795D01*
X159301898Y-89004774D01*
X159101939Y-88965000D01*
X158898061Y-88965000D01*
X158698102Y-89004774D01*
X158509744Y-89082795D01*
X158340226Y-89196063D01*
X158196063Y-89340226D01*
X158082795Y-89509744D01*
X158004774Y-89698102D01*
X157965000Y-89898061D01*
X157965000Y-90101939D01*
X158004774Y-90301898D01*
X158082795Y-90490256D01*
X158196063Y-90659774D01*
X158240001Y-90703712D01*
X158240000Y-93685198D01*
X156960199Y-94965000D01*
X156898061Y-94965000D01*
X156698102Y-95004774D01*
X156509744Y-95082795D01*
X156340226Y-95196063D01*
X156196063Y-95340226D01*
X156082795Y-95509744D01*
X156064069Y-95554952D01*
X145445047Y-84935931D01*
X145490256Y-84917205D01*
X145659774Y-84803937D01*
X145803937Y-84659774D01*
X145917205Y-84490256D01*
X145995226Y-84301898D01*
X146035000Y-84101939D01*
X146035000Y-84010000D01*
X150046289Y-84010000D01*
X150090226Y-84053937D01*
X150259744Y-84167205D01*
X150448102Y-84245226D01*
X150648061Y-84285000D01*
X150851939Y-84285000D01*
X151051898Y-84245226D01*
X151240256Y-84167205D01*
X151409774Y-84053937D01*
X151553937Y-83909774D01*
X151667205Y-83740256D01*
X151745226Y-83551898D01*
X151785000Y-83351939D01*
X151785000Y-83148061D01*
X151745226Y-82948102D01*
X151667205Y-82759744D01*
X151553937Y-82590226D01*
X151409774Y-82446063D01*
X151240256Y-82332795D01*
X151051898Y-82254774D01*
X150851939Y-82215000D01*
X150648061Y-82215000D01*
X150448102Y-82254774D01*
X150259744Y-82332795D01*
X150090226Y-82446063D01*
X150046289Y-82490000D01*
X149973711Y-82490000D01*
X150053937Y-82409774D01*
X150167205Y-82240256D01*
X150245226Y-82051898D01*
X150268366Y-81935560D01*
X158164045Y-81935560D01*
X158225932Y-82171368D01*
X158467790Y-82284266D01*
X158727027Y-82347811D01*
X158993680Y-82359561D01*
X159257501Y-82319063D01*
X159508353Y-82227875D01*
X159614068Y-82171368D01*
X159675955Y-81935560D01*
X158920000Y-81179605D01*
X158164045Y-81935560D01*
X150268366Y-81935560D01*
X150285000Y-81851939D01*
X150285000Y-81648061D01*
X150245226Y-81448102D01*
X150167205Y-81259744D01*
X150053937Y-81090226D01*
X150037391Y-81073680D01*
X157560439Y-81073680D01*
X157600937Y-81337501D01*
X157692125Y-81588353D01*
X157748632Y-81694068D01*
X157984440Y-81755955D01*
X158740395Y-81000000D01*
X159099605Y-81000000D01*
X159855560Y-81755955D01*
X160091368Y-81694068D01*
X160191764Y-81478993D01*
X160259215Y-81641833D01*
X160407503Y-81863762D01*
X160596238Y-82052497D01*
X160818167Y-82200785D01*
X161064761Y-82302928D01*
X161326544Y-82355000D01*
X161593456Y-82355000D01*
X161855239Y-82302928D01*
X162101833Y-82200785D01*
X162323762Y-82052497D01*
X162512497Y-81863762D01*
X162660785Y-81641833D01*
X162730000Y-81474734D01*
X162799215Y-81641833D01*
X162947503Y-81863762D01*
X163136238Y-82052497D01*
X163358167Y-82200785D01*
X163604761Y-82302928D01*
X163866544Y-82355000D01*
X164133456Y-82355000D01*
X164395239Y-82302928D01*
X164641833Y-82200785D01*
X164863762Y-82052497D01*
X164980699Y-81935560D01*
X168164045Y-81935560D01*
X168225932Y-82171368D01*
X168467790Y-82284266D01*
X168727027Y-82347811D01*
X168993680Y-82359561D01*
X169257501Y-82319063D01*
X169508353Y-82227875D01*
X169614068Y-82171368D01*
X169675955Y-81935560D01*
X168920000Y-81179605D01*
X168164045Y-81935560D01*
X164980699Y-81935560D01*
X165052497Y-81863762D01*
X165200785Y-81641833D01*
X165302928Y-81395239D01*
X165355000Y-81133456D01*
X165355000Y-81073680D01*
X167560439Y-81073680D01*
X167600937Y-81337501D01*
X167692125Y-81588353D01*
X167748632Y-81694068D01*
X167984440Y-81755955D01*
X168740395Y-81000000D01*
X169099605Y-81000000D01*
X169855560Y-81755955D01*
X170091368Y-81694068D01*
X170191764Y-81478993D01*
X170259215Y-81641833D01*
X170407503Y-81863762D01*
X170596238Y-82052497D01*
X170818167Y-82200785D01*
X171064761Y-82302928D01*
X171326544Y-82355000D01*
X171593456Y-82355000D01*
X171855239Y-82302928D01*
X172101833Y-82200785D01*
X172323762Y-82052497D01*
X172512497Y-81863762D01*
X172660785Y-81641833D01*
X172730000Y-81474734D01*
X172799215Y-81641833D01*
X172947503Y-81863762D01*
X173136238Y-82052497D01*
X173358167Y-82200785D01*
X173604761Y-82302928D01*
X173866544Y-82355000D01*
X174133456Y-82355000D01*
X174395239Y-82302928D01*
X174641833Y-82200785D01*
X174863762Y-82052497D01*
X175052497Y-81863762D01*
X175200785Y-81641833D01*
X175302928Y-81395239D01*
X175355000Y-81133456D01*
X175355000Y-81073680D01*
X177560439Y-81073680D01*
X177600937Y-81337501D01*
X177692125Y-81588353D01*
X177748632Y-81694068D01*
X177984440Y-81755955D01*
X178740395Y-81000000D01*
X177984440Y-80244045D01*
X177748632Y-80305932D01*
X177635734Y-80547790D01*
X177572189Y-80807027D01*
X177560439Y-81073680D01*
X175355000Y-81073680D01*
X175355000Y-80866544D01*
X175302928Y-80604761D01*
X175200785Y-80358167D01*
X175052497Y-80136238D01*
X174863762Y-79947503D01*
X174641833Y-79799215D01*
X174395239Y-79697072D01*
X174133456Y-79645000D01*
X173866544Y-79645000D01*
X173604761Y-79697072D01*
X173358167Y-79799215D01*
X173136238Y-79947503D01*
X172947503Y-80136238D01*
X172799215Y-80358167D01*
X172730000Y-80525266D01*
X172660785Y-80358167D01*
X172512497Y-80136238D01*
X172323762Y-79947503D01*
X172101833Y-79799215D01*
X171855239Y-79697072D01*
X171593456Y-79645000D01*
X171326544Y-79645000D01*
X171064761Y-79697072D01*
X170818167Y-79799215D01*
X170596238Y-79947503D01*
X170407503Y-80136238D01*
X170259215Y-80358167D01*
X170189562Y-80526324D01*
X170147875Y-80411647D01*
X170091368Y-80305932D01*
X169855560Y-80244045D01*
X169099605Y-81000000D01*
X168740395Y-81000000D01*
X167984440Y-80244045D01*
X167748632Y-80305932D01*
X167635734Y-80547790D01*
X167572189Y-80807027D01*
X167560439Y-81073680D01*
X165355000Y-81073680D01*
X165355000Y-80866544D01*
X165302928Y-80604761D01*
X165200785Y-80358167D01*
X165052497Y-80136238D01*
X164980699Y-80064440D01*
X168164045Y-80064440D01*
X168920000Y-80820395D01*
X169675955Y-80064440D01*
X169614068Y-79828632D01*
X169372210Y-79715734D01*
X169112973Y-79652189D01*
X168846320Y-79640439D01*
X168582499Y-79680937D01*
X168331647Y-79772125D01*
X168225932Y-79828632D01*
X168164045Y-80064440D01*
X164980699Y-80064440D01*
X164863762Y-79947503D01*
X164641833Y-79799215D01*
X164395239Y-79697072D01*
X164133456Y-79645000D01*
X163866544Y-79645000D01*
X163604761Y-79697072D01*
X163358167Y-79799215D01*
X163136238Y-79947503D01*
X162947503Y-80136238D01*
X162799215Y-80358167D01*
X162730000Y-80525266D01*
X162660785Y-80358167D01*
X162512497Y-80136238D01*
X162323762Y-79947503D01*
X162101833Y-79799215D01*
X161855239Y-79697072D01*
X161593456Y-79645000D01*
X161326544Y-79645000D01*
X161064761Y-79697072D01*
X160818167Y-79799215D01*
X160596238Y-79947503D01*
X160407503Y-80136238D01*
X160259215Y-80358167D01*
X160189562Y-80526324D01*
X160147875Y-80411647D01*
X160091368Y-80305932D01*
X159855560Y-80244045D01*
X159099605Y-81000000D01*
X158740395Y-81000000D01*
X157984440Y-80244045D01*
X157748632Y-80305932D01*
X157635734Y-80547790D01*
X157572189Y-80807027D01*
X157560439Y-81073680D01*
X150037391Y-81073680D01*
X150010000Y-81046289D01*
X150010000Y-80064440D01*
X158164045Y-80064440D01*
X158920000Y-80820395D01*
X159675955Y-80064440D01*
X159614068Y-79828632D01*
X159372210Y-79715734D01*
X159112973Y-79652189D01*
X158846320Y-79640439D01*
X158582499Y-79680937D01*
X158331647Y-79772125D01*
X158225932Y-79828632D01*
X158164045Y-80064440D01*
X150010000Y-80064440D01*
X150010000Y-77667311D01*
X150198102Y-77745226D01*
X150398061Y-77785000D01*
X150601939Y-77785000D01*
X150801898Y-77745226D01*
X150990256Y-77667205D01*
X151159774Y-77553937D01*
X151303937Y-77409774D01*
X151417205Y-77240256D01*
X151495226Y-77051898D01*
X151535000Y-76851939D01*
X151535000Y-76648061D01*
X151495226Y-76448102D01*
X151417205Y-76259744D01*
X151303937Y-76090226D01*
X151159774Y-75946063D01*
X150990256Y-75832795D01*
X150801898Y-75754774D01*
X150601939Y-75715000D01*
X150539802Y-75715000D01*
X149663769Y-74838967D01*
X156365000Y-74838967D01*
X156365000Y-75161033D01*
X156427832Y-75476912D01*
X156551082Y-75774463D01*
X156730013Y-76042252D01*
X156957748Y-76269987D01*
X157225537Y-76448918D01*
X157523088Y-76572168D01*
X157838967Y-76635000D01*
X158161033Y-76635000D01*
X158476912Y-76572168D01*
X158774463Y-76448918D01*
X159042252Y-76269987D01*
X159269987Y-76042252D01*
X159448918Y-75774463D01*
X159572168Y-75476912D01*
X159635000Y-75161033D01*
X159635000Y-74838967D01*
X169365000Y-74838967D01*
X169365000Y-75161033D01*
X169427832Y-75476912D01*
X169551082Y-75774463D01*
X169730013Y-76042252D01*
X169957748Y-76269987D01*
X170225537Y-76448918D01*
X170523088Y-76572168D01*
X170838967Y-76635000D01*
X171161033Y-76635000D01*
X171476912Y-76572168D01*
X171774463Y-76448918D01*
X172042252Y-76269987D01*
X172269987Y-76042252D01*
X172448918Y-75774463D01*
X172572168Y-75476912D01*
X172635000Y-75161033D01*
X172635000Y-74838967D01*
X172572168Y-74523088D01*
X172448918Y-74225537D01*
X172269987Y-73957748D01*
X172042252Y-73730013D01*
X171774463Y-73551082D01*
X171476912Y-73427832D01*
X171161033Y-73365000D01*
X170838967Y-73365000D01*
X170523088Y-73427832D01*
X170225537Y-73551082D01*
X169957748Y-73730013D01*
X169730013Y-73957748D01*
X169551082Y-74225537D01*
X169427832Y-74523088D01*
X169365000Y-74838967D01*
X159635000Y-74838967D01*
X159572168Y-74523088D01*
X159448918Y-74225537D01*
X159269987Y-73957748D01*
X159042252Y-73730013D01*
X158774463Y-73551082D01*
X158476912Y-73427832D01*
X158161033Y-73365000D01*
X157838967Y-73365000D01*
X157523088Y-73427832D01*
X157225537Y-73551082D01*
X156957748Y-73730013D01*
X156730013Y-73957748D01*
X156551082Y-74225537D01*
X156427832Y-74523088D01*
X156365000Y-74838967D01*
X149663769Y-74838967D01*
X148313804Y-73489003D01*
X148290001Y-73459999D01*
X148174276Y-73365026D01*
X148042247Y-73294454D01*
X147898986Y-73250997D01*
X147787333Y-73240000D01*
X147787322Y-73240000D01*
X147750000Y-73236324D01*
X147712678Y-73240000D01*
X145953711Y-73240000D01*
X145909774Y-73196063D01*
X145740256Y-73082795D01*
X145551898Y-73004774D01*
X145351939Y-72965000D01*
X145148061Y-72965000D01*
X144948102Y-73004774D01*
X144759744Y-73082795D01*
X144590226Y-73196063D01*
X144446063Y-73340226D01*
X144332795Y-73509744D01*
X144254774Y-73698102D01*
X144215000Y-73898061D01*
X144215000Y-74101939D01*
X144254774Y-74301898D01*
X144332795Y-74490256D01*
X144446063Y-74659774D01*
X144590226Y-74803937D01*
X144759744Y-74917205D01*
X144948102Y-74995226D01*
X145148061Y-75035000D01*
X145351939Y-75035000D01*
X145495724Y-75006400D01*
X145504774Y-75051898D01*
X145582795Y-75240256D01*
X145696063Y-75409774D01*
X145840226Y-75553937D01*
X146009744Y-75667205D01*
X146198102Y-75745226D01*
X146398061Y-75785000D01*
X146460199Y-75785000D01*
X148490000Y-77814802D01*
X148490001Y-80990000D01*
X144953711Y-80990000D01*
X144909774Y-80946063D01*
X144740256Y-80832795D01*
X144551898Y-80754774D01*
X144351939Y-80715000D01*
X144148061Y-80715000D01*
X143948102Y-80754774D01*
X143759744Y-80832795D01*
X143590226Y-80946063D01*
X143446063Y-81090226D01*
X143332795Y-81259744D01*
X143254774Y-81448102D01*
X143215000Y-81648061D01*
X143215000Y-81751413D01*
X143198102Y-81754774D01*
X143009744Y-81832795D01*
X142840226Y-81946063D01*
X142696063Y-82090226D01*
X142657322Y-82148206D01*
X141441271Y-80932155D01*
X141495226Y-80801898D01*
X141535000Y-80601939D01*
X141535000Y-80398061D01*
X141495226Y-80198102D01*
X141417205Y-80009744D01*
X141303937Y-79840226D01*
X141159774Y-79696063D01*
X140990256Y-79582795D01*
X140801898Y-79504774D01*
X140601939Y-79465000D01*
X140398061Y-79465000D01*
X140198102Y-79504774D01*
X140009744Y-79582795D01*
X139840226Y-79696063D01*
X139696063Y-79840226D01*
X139582795Y-80009744D01*
X139504774Y-80198102D01*
X139465000Y-80398061D01*
X112235000Y-80398061D01*
X112235000Y-80329117D01*
X112168325Y-79993919D01*
X112037537Y-79678169D01*
X111847663Y-79394002D01*
X111605998Y-79152337D01*
X111321831Y-78962463D01*
X111006081Y-78831675D01*
X110670883Y-78765000D01*
X110329117Y-78765000D01*
X109993919Y-78831675D01*
X109678169Y-78962463D01*
X109394002Y-79152337D01*
X109152337Y-79394002D01*
X108962463Y-79678169D01*
X108831675Y-79993919D01*
X108765000Y-80329117D01*
X108765000Y-80670883D01*
X108831675Y-81006081D01*
X108857286Y-81067912D01*
X106488998Y-83436201D01*
X106460000Y-83459999D01*
X106436202Y-83488997D01*
X106436201Y-83488998D01*
X106365026Y-83575724D01*
X106294454Y-83707754D01*
X106250998Y-83851015D01*
X106236324Y-84000000D01*
X106240001Y-84037332D01*
X106240000Y-91071679D01*
X106236324Y-91109002D01*
X106240000Y-91146324D01*
X106240000Y-91146334D01*
X106250997Y-91257987D01*
X106270364Y-91321831D01*
X106294454Y-91401248D01*
X106365026Y-91533278D01*
X106382405Y-91554454D01*
X106459999Y-91649003D01*
X106489003Y-91672806D01*
X109181268Y-94365071D01*
X109152337Y-94394002D01*
X108962463Y-94678169D01*
X108831675Y-94993919D01*
X108765000Y-95329117D01*
X108765000Y-95670883D01*
X108831675Y-96006081D01*
X108928567Y-96239999D01*
X106314801Y-96239999D01*
X103760000Y-93685199D01*
X103760000Y-83314801D01*
X108676740Y-78398061D01*
X131840000Y-78398061D01*
X131840000Y-78601939D01*
X131879774Y-78801898D01*
X131957795Y-78990256D01*
X132071063Y-79159774D01*
X132215226Y-79303937D01*
X132384744Y-79417205D01*
X132573102Y-79495226D01*
X132773061Y-79535000D01*
X132976939Y-79535000D01*
X133176898Y-79495226D01*
X133365256Y-79417205D01*
X133534774Y-79303937D01*
X133678937Y-79159774D01*
X133792205Y-78990256D01*
X133870226Y-78801898D01*
X133910000Y-78601939D01*
X133910000Y-78398061D01*
X133870226Y-78198102D01*
X133810000Y-78052705D01*
X133810000Y-75413454D01*
X133842205Y-75365256D01*
X133920226Y-75176898D01*
X133960000Y-74976939D01*
X133960000Y-74773061D01*
X133955413Y-74750000D01*
X139111928Y-74750000D01*
X139115000Y-76214250D01*
X139147856Y-76247106D01*
X139114887Y-76413998D01*
X139115116Y-76588328D01*
X139148039Y-76752711D01*
X139115000Y-76785750D01*
X139111928Y-78250000D01*
X139124188Y-78374482D01*
X139160498Y-78494180D01*
X139219463Y-78604494D01*
X139298815Y-78701185D01*
X139395506Y-78780537D01*
X139505820Y-78839502D01*
X139625518Y-78875812D01*
X139750000Y-78888072D01*
X140464250Y-78885000D01*
X140623000Y-78726250D01*
X140623000Y-78421641D01*
X140750000Y-78418920D01*
X140877000Y-78421641D01*
X140877000Y-78726250D01*
X141035750Y-78885000D01*
X141750000Y-78888072D01*
X141874482Y-78875812D01*
X141994180Y-78839502D01*
X142104494Y-78780537D01*
X142201185Y-78701185D01*
X142280537Y-78604494D01*
X142339502Y-78494180D01*
X142375812Y-78374482D01*
X142388072Y-78250000D01*
X142385000Y-76785750D01*
X142352144Y-76752894D01*
X142385113Y-76586002D01*
X142384884Y-76411672D01*
X142351961Y-76247289D01*
X142385000Y-76214250D01*
X142388072Y-74750000D01*
X142375812Y-74625518D01*
X142339502Y-74505820D01*
X142280537Y-74395506D01*
X142201185Y-74298815D01*
X142104494Y-74219463D01*
X141994180Y-74160498D01*
X141874482Y-74124188D01*
X141750000Y-74111928D01*
X141035750Y-74115000D01*
X140877000Y-74273750D01*
X140877000Y-74578359D01*
X140750000Y-74581080D01*
X140623000Y-74578359D01*
X140623000Y-74273750D01*
X140464250Y-74115000D01*
X139750000Y-74111928D01*
X139625518Y-74124188D01*
X139505820Y-74160498D01*
X139395506Y-74219463D01*
X139298815Y-74298815D01*
X139219463Y-74395506D01*
X139160498Y-74505820D01*
X139124188Y-74625518D01*
X139111928Y-74750000D01*
X133955413Y-74750000D01*
X133920226Y-74573102D01*
X133842205Y-74384744D01*
X133728937Y-74215226D01*
X133584774Y-74071063D01*
X133415256Y-73957795D01*
X133226898Y-73879774D01*
X133026939Y-73840000D01*
X132823061Y-73840000D01*
X132623102Y-73879774D01*
X132434744Y-73957795D01*
X132265226Y-74071063D01*
X132121063Y-74215226D01*
X132007795Y-74384744D01*
X131929774Y-74573102D01*
X131890000Y-74773061D01*
X131890000Y-74976939D01*
X131929774Y-75176898D01*
X132007795Y-75365256D01*
X132040000Y-75413455D01*
X132040001Y-77886714D01*
X131957795Y-78009744D01*
X131879774Y-78198102D01*
X131840000Y-78398061D01*
X108676740Y-78398061D01*
X109932088Y-77142714D01*
X109993919Y-77168325D01*
X110329117Y-77235000D01*
X110670883Y-77235000D01*
X111006081Y-77168325D01*
X111321831Y-77037537D01*
X111605998Y-76847663D01*
X111847663Y-76605998D01*
X112037537Y-76321831D01*
X112168325Y-76006081D01*
X112235000Y-75670883D01*
X112235000Y-75329117D01*
X112168325Y-74993919D01*
X112037537Y-74678169D01*
X111847663Y-74394002D01*
X111605998Y-74152337D01*
X111321831Y-73962463D01*
X111006081Y-73831675D01*
X110670883Y-73765000D01*
X110329117Y-73765000D01*
X109993919Y-73831675D01*
X109678169Y-73962463D01*
X109394002Y-74152337D01*
X109152337Y-74394002D01*
X108962463Y-74678169D01*
X108831675Y-74993919D01*
X108765000Y-75329117D01*
X108765000Y-75670883D01*
X108831675Y-76006081D01*
X108857286Y-76067912D01*
X102488998Y-82436201D01*
X102460000Y-82459999D01*
X102436202Y-82488997D01*
X102436201Y-82488998D01*
X102365026Y-82575724D01*
X102294454Y-82707754D01*
X102250998Y-82851015D01*
X102236324Y-83000000D01*
X99679606Y-83000000D01*
X110052606Y-72627000D01*
X192447394Y-72627000D01*
X207373000Y-87552606D01*
G37*
%TD.AperFunction*%
D20*
X141690919Y-76483029D02*
X141673948Y-76500000D01*
X141690919Y-76516971D01*
X141580890Y-76627000D01*
X141199052Y-76627000D01*
X141326052Y-76500000D01*
X141199052Y-76373000D01*
X141580890Y-76373000D01*
X141690919Y-76483029D01*
%TA.AperFunction,Conductor*%
D21*
G36*
X141690919Y-76483029D02*
G01*
X141673948Y-76500000D01*
X141690919Y-76516971D01*
X141580890Y-76627000D01*
X141199052Y-76627000D01*
X141326052Y-76500000D01*
X141199052Y-76373000D01*
X141580890Y-76373000D01*
X141690919Y-76483029D01*
G37*
%TD.AperFunction*%
D20*
X140173948Y-76500000D02*
X140300948Y-76627000D01*
X139919110Y-76627000D01*
X139809081Y-76516971D01*
X139826052Y-76500000D01*
X139809081Y-76483029D01*
X139919110Y-76373000D01*
X140300948Y-76373000D01*
X140173948Y-76500000D01*
%TA.AperFunction,Conductor*%
D21*
G36*
X140173948Y-76500000D02*
G01*
X140300948Y-76627000D01*
X139919110Y-76627000D01*
X139809081Y-76516971D01*
X139826052Y-76500000D01*
X139809081Y-76483029D01*
X139919110Y-76373000D01*
X140300948Y-76373000D01*
X140173948Y-76500000D01*
G37*
%TD.AperFunction*%
D20*
X140877000Y-75421641D02*
X140877000Y-76078359D01*
X140750000Y-76081080D01*
X140623000Y-76078359D01*
X140623000Y-75421641D01*
X140750000Y-75418920D01*
X140877000Y-75421641D01*
%TA.AperFunction,Conductor*%
D21*
G36*
X140877000Y-75421641D02*
G01*
X140877000Y-76078359D01*
X140750000Y-76081080D01*
X140623000Y-76078359D01*
X140623000Y-75421641D01*
X140750000Y-75418920D01*
X140877000Y-75421641D01*
G37*
%TD.AperFunction*%
%TD*%
M02*
