%TF.GenerationSoftware,KiCad,Pcbnew,(5.1.7)-1*%
%TF.CreationDate,2020-11-09T09:10:02-08:00*%
%TF.ProjectId,Valve_Controller_Schematic,56616c76-655f-4436-9f6e-74726f6c6c65,rev?*%
%TF.SameCoordinates,Original*%
%TF.FileFunction,Soldermask,Bot*%
%TF.FilePolarity,Negative*%
%FSLAX46Y46*%
G04 Gerber Fmt 4.6, Leading zero omitted, Abs format (unit mm)*
G04 Created by KiCad (PCBNEW (5.1.7)-1) date 2020-11-09 09:10:02*
%MOMM*%
%LPD*%
G01*
G04 APERTURE LIST*
%ADD10C,2.000000*%
%ADD11C,1.800000*%
%ADD12C,1.440000*%
%ADD13C,2.200000*%
G04 APERTURE END LIST*
D10*
%TO.C,TP7*%
X127000000Y-103000000D03*
%TD*%
%TO.C,TP6*%
X127000000Y-96000000D03*
%TD*%
%TO.C,TP5*%
X154000000Y-107000000D03*
%TD*%
%TO.C,TP4*%
X147000000Y-107000000D03*
%TD*%
%TO.C,TP3*%
X184000000Y-75000000D03*
%TD*%
%TO.C,TP2*%
X171000000Y-75000000D03*
%TD*%
%TO.C,TP1*%
X158000000Y-75000000D03*
%TD*%
D11*
%TO.C,U1*%
X173430000Y-107500000D03*
X170890000Y-107500000D03*
X168350000Y-107500000D03*
X165810000Y-107500000D03*
X165810000Y-104960000D03*
X165810000Y-102420000D03*
X165810000Y-99880000D03*
X165810000Y-97340000D03*
X165810000Y-94800000D03*
X165810000Y-92260000D03*
X168350000Y-92260000D03*
X170890000Y-92260000D03*
X173430000Y-92260000D03*
X175970000Y-92260000D03*
X175970000Y-107500000D03*
X178510000Y-107500000D03*
X178510000Y-92260000D03*
X181050000Y-107500000D03*
X181050000Y-92260000D03*
X183590000Y-107500000D03*
X183590000Y-92260000D03*
X186130000Y-92260000D03*
X188670000Y-92260000D03*
X186130000Y-107500000D03*
X188670000Y-107500000D03*
X191210000Y-107500000D03*
X193750000Y-107500000D03*
X196290000Y-107500000D03*
X198830000Y-107500000D03*
X191210000Y-92260000D03*
X193750000Y-92260000D03*
X196290000Y-92260000D03*
X198830000Y-92260000D03*
%TD*%
D12*
%TO.C,RV3*%
X158920000Y-81000000D03*
X161460000Y-81000000D03*
X164000000Y-81000000D03*
%TD*%
%TO.C,RV2*%
X178920000Y-81000000D03*
X181460000Y-81000000D03*
X184000000Y-81000000D03*
%TD*%
%TO.C,RV1*%
X168920000Y-81000000D03*
X171460000Y-81000000D03*
X174000000Y-81000000D03*
%TD*%
D13*
%TO.C,J1*%
X110500000Y-75500000D03*
X110500000Y-80500000D03*
X110500000Y-85500000D03*
X110500000Y-90500000D03*
X110500000Y-95500000D03*
X110500000Y-100500000D03*
X110500000Y-105500000D03*
X110500000Y-110500000D03*
X110500000Y-115500000D03*
X110500000Y-120500000D03*
X110500000Y-125500000D03*
%TD*%
M02*
