M48
; DRILL file {KiCad (5.1.7)-1} date 11/09/20 09:10:05
; FORMAT={-:-/ absolute / inch / decimal}
; #@! TF.CreationDate,2020-11-09T09:10:05-08:00
; #@! TF.GenerationSoftware,Kicad,Pcbnew,(5.1.7)-1
; #@! TF.FileFunction,Plated,1,2,PTH
FMAT,2
INCH
T1C0.0079
T2C0.0157
T3C0.0315
T4C0.0394
T5C0.0512
%
G90
G05
T1
X5.5118Y-2.9528
X5.5118Y-3.0118
X5.5118Y-3.0709
X5.5709Y-2.9528
X5.5709Y-3.0118
X5.5709Y-3.0709
T2
X4.252Y-4.0551
X4.8425Y-2.9134
X4.9213Y-3.1496
X5.1575Y-4.0157
X5.1969Y-3.2094
X5.2313Y-3.0906
X5.2333Y-2.9478
X5.2362Y-3.4646
X5.2776Y-4.4075
X5.5118Y-3.8976
X5.5315Y-3.1693
X5.5531Y-3.9783
X5.6206Y-3.3211
X5.6496Y-3.2579
X5.6791Y-3.2185
X5.7087Y-3.3071
X5.7087Y-3.5433
X5.7185Y-2.9134
X5.7677Y-2.9429
X5.7874Y-3.7795
X5.8268Y-3.5827
X5.876Y-3.2185
X5.9252Y-3.0217
X5.935Y-3.2776
X6.1024Y-3.8583
X6.1811Y-3.7795
X6.2205Y-4.5276
X6.2598Y-3.4252
X6.2598Y-3.5433
X6.2992Y-4.4094
X6.5748Y-4.5669
X6.6142Y-4.0157
X6.6929Y-4.1339
X6.811Y-4.8425
X6.8504Y-2.9134
X6.9291Y-3.7402
X7.0079Y-3.7402
X7.2441Y-3.8976
X7.2835Y-4.5669
X7.3622Y-3.5433
X7.4016Y-2.9528
X7.4803Y-3.1102
X7.4803Y-3.189
X7.4803Y-3.2677
X7.5197Y-4.7638
X7.7559Y-3.1102
T3
X6.2567Y-3.189
X6.3567Y-3.189
X6.4567Y-3.189
X7.0441Y-3.189
X7.1441Y-3.189
X7.2441Y-3.189
X6.6504Y-3.189
X6.7504Y-3.189
X6.8504Y-3.189
T4
X5.0Y-3.7795
X6.2205Y-2.9528
X5.0Y-4.0551
X6.7323Y-2.9528
X6.528Y-3.6323
X6.528Y-3.7323
X6.528Y-3.8323
X6.528Y-3.9323
X6.528Y-4.0323
X6.528Y-4.1323
X6.528Y-4.2323
X6.628Y-3.6323
X6.628Y-4.2323
X6.728Y-3.6323
X6.728Y-4.2323
X6.828Y-3.6323
X6.828Y-4.2323
X6.928Y-3.6323
X6.928Y-4.2323
X7.028Y-3.6323
X7.028Y-4.2323
X7.128Y-3.6323
X7.128Y-4.2323
X7.228Y-3.6323
X7.228Y-4.2323
X7.328Y-3.6323
X7.328Y-4.2323
X7.428Y-3.6323
X7.428Y-4.2323
X7.528Y-3.6323
X7.528Y-4.2323
X7.628Y-3.6323
X7.628Y-4.2323
X7.728Y-3.6323
X7.728Y-4.2323
X7.828Y-3.6323
X7.828Y-4.2323
X7.2441Y-2.9528
X6.063Y-4.2126
X5.7874Y-4.2126
T5
X4.3504Y-2.9724
X4.3504Y-3.1693
X4.3504Y-3.3661
X4.3504Y-3.563
X4.3504Y-3.7598
X4.3504Y-3.9567
X4.3504Y-4.1535
X4.3504Y-4.3504
X4.3504Y-4.5472
X4.3504Y-4.7441
X4.3504Y-4.9409
T0
M30
